<?xml version="1.0" standalone="no"?>
<!DOCTYPE svg PUBLIC "-//W3C//DTD SVG 1.1//EN" "http://www.w3.org/Graphics/SVG/1.1/DTD/svg11.dtd" >
<svg xmlns="http://www.w3.org/2000/svg" xmlns:xlink="http://www.w3.org/1999/xlink" version="1.1">
<metadata>
Created by FontForge 20161013 at Wed Jun 24 23:48:34 2015
 By ,,,
(c) Copyright The Font Bureau, Inc. 2014. All rights reserved.
</metadata>
<defs>
<font id="InputMono-Italic" horiz-adv-x="700" >
  <font-face 
    font-family="InputMono"
    font-weight="400"
    font-style="italic"
    font-stretch="normal"
    units-per-em="1100"
    panose-1="2 0 5 9 2 0 0 9 0 4"
    ascent="850"
    descent="-250"
    x-height="600"
    cap-height="800"
    bbox="-256.381 -450 980 1400"
    underline-thickness="0"
    underline-position="0"
    slope="-8"
    unicode-range="U+000D-1F41B"
  />
<missing-glyph 
d="M50 -250v1100h600v-1100h-600zM150 -150h400v900h-400v-900z" />
    <glyph glyph-name=".notdef" 
d="M50 -250v1100h600v-1100h-600zM150 -150h400v900h-400v-900z" />
    <glyph glyph-name=".null" horiz-adv-x="0" 
 />
    <glyph glyph-name="nonmarkingreturn" unicode="&#xd;" horiz-adv-x="0" 
 />
    <glyph glyph-name="NULL" horiz-adv-x="0" 
 />
    <glyph glyph-name="space" unicode="&#xa0;" 
 />
    <glyph glyph-name="space" unicode=" " 
 />
    <glyph glyph-name="exclam" unicode="!" 
d="M296 300l40 500h140l-100 -500h-80zM294 -10q-50 0 -71 20.5t-15 63.5l4 28q7 44 33 65t76 21t70.5 -21t13.5 -65l-4 -28q-6 -43 -32 -63.5t-75 -20.5z" />
    <glyph glyph-name="quotedbl" unicode="&#x22;" 
d="M450 400l26 400h160l-86 -400h-100zM150 400l26 400h160l-86 -400h-100z" />
    <glyph glyph-name="numbersign" unicode="#" 
d="M400 290l42 220h-140l-42 -220h140zM344 0l38 200h-140l-38 -200h-90l38 200h-130l13 90h135l42 220h-146l12 90h150l38 200h90l-38 -200h140l38 200h90l-38 -200h130l-12 -90h-134l-42 -220h145l-13 -90h-150l-38 -200h-90z" />
    <glyph glyph-name="dollar" unicode="$" 
d="M212 565q-5 -37 20.5 -62t95.5 -47l30 211q-60 -2 -99 -23.5t-47 -78.5zM492 235q6 39 -20.5 64t-98.5 47l-31 -220q60 2 101 28.5t49 80.5zM327 -50h-80l14 97q-59 5 -114.5 23t-91.5 46l42 81q39 -28 88.5 -45t96.5 -23l33 233q-118 31 -160.5 78t-31.5 125
q13 87 71 135t166 53l13 97h80l-13 -98q53 -5 101 -20t80 -37l-42 -83q-35 21 -77 34.5t-85 17.5l-31 -225q120 -34 163.5 -79.5t32.5 -121.5q-12 -89 -74.5 -138t-167.5 -55z" />
    <glyph glyph-name="percent" unicode="%" 
d="M202 448q-69 0 -106.5 38t-26.5 117l8 60q11 80 59.5 118.5t117.5 38.5t106 -38.5t26 -118.5l-8 -60q-11 -79 -59 -117t-117 -38zM213 529q30 0 49.5 17t24.5 55l9 64q6 38 -8.5 56t-44.5 18t-50 -18t-26 -56l-9 -64q-5 -38 10 -55t45 -17zM13 168l634 529l47 -58
l-636 -529zM447 -22q-69 0 -106.5 38t-26.5 117l8 60q11 80 59.5 118.5t117.5 38.5t106 -38.5t26 -118.5l-8 -60q-11 -79 -59 -117t-117 -38zM458 59q30 0 49.5 17t24.5 55l9 64q6 38 -8.5 56t-44.5 18t-50 -18t-26 -56l-9 -64q-5 -38 10 -55t45 -17z" />
    <glyph glyph-name="ampersand" unicode="&#x26;" 
d="M608 -6q-57 18 -107.5 46.5t-94.5 63.5q-54 -53 -107 -83.5t-121 -30.5q-85 0 -132.5 54t-33.5 157q12 82 61.5 141t109.5 90q-16 50 -22.5 94.5t-1.5 77.5q13 95 68 150.5t141 55.5q73 0 115.5 -51t32.5 -120q-12 -84 -66.5 -134t-170.5 -91q6 -17 14 -33.5t16 -32.5
q20 -37 44 -71.5t53 -64.5q34 43 67.5 97t65.5 117l79 -39q-39 -70 -86 -122.5t-90 -100.5l194 -79zM253 599q-4 -31 -1.5 -65.5t11.5 -68.5q79 33 118 72t46 91q6 42 -14.5 68.5t-53.5 26.5q-49 0 -73.5 -34t-32.5 -90zM198 77q38 0 76.5 20t78.5 57q-33 32 -59.5 67.5
t-48.5 72.5q-11 20 -21.5 40.5t-18.5 39.5q-37 -30 -63.5 -73.5t-32.5 -89.5q-9 -60 13.5 -97t75.5 -37z" />
    <glyph glyph-name="quotesingle" unicode="'" 
d="M300 400l26 400h160l-86 -400h-100z" />
    <glyph glyph-name="parenleft" unicode="(" 
d="M464 -210q-151 37 -229 171t-49 339t144.5 339t277.5 171l-1 -78q-139 -37 -218.5 -154.5t-102.5 -277.5q-22 -160 24.5 -277.5t174.5 -154.5z" />
    <glyph glyph-name="parenright" unicode=")" 
d="M64 -210l1 78q140 37 219.5 155.5t101.5 276.5t-24 276.5t-175 155.5l21 78q152 -37 229.5 -171.5t48.5 -338.5t-144 -338.5t-278 -171.5z" />
    <glyph glyph-name="asterisk" unicode="*" 
d="M562 279l-175 164l-6 -243h-120l62 242l-220 -163l-45 104l250 118l-217 118l75 104l174 -164l5 241h120l-62 -242l222 165l45 -104l-251 -118l218 -118z" />
    <glyph glyph-name="plus" unicode="+" 
d="M250 40l36 260h-230l14 100h230l37 260h100l-37 -260h230l-14 -100h-230l-36 -260h-100z" />
    <glyph glyph-name="comma" unicode="," 
d="M116 -200l146 400h199l-261 -400h-84z" />
    <glyph glyph-name="hyphen" unicode="&#x2011;" 
d="M56 300l14 100h560l-14 -100h-560z" />
    <glyph glyph-name="hyphen" unicode="&#x2010;" 
d="M56 300l14 100h560l-14 -100h-560z" />
    <glyph glyph-name="hyphen" unicode="&#xad;" 
d="M56 300l14 100h560l-14 -100h-560z" />
    <glyph glyph-name="hyphen" unicode="-" 
d="M56 300l14 100h560l-14 -100h-560z" />
    <glyph glyph-name="period" unicode="." 
d="M294 -10q-50 0 -78 22.5t-21 71.5l4 28q7 49 41 72.5t84 23.5t77.5 -23.5t20.5 -72.5l-4 -28q-7 -49 -41 -71.5t-83 -22.5z" />
    <glyph glyph-name="slash" unicode="/" 
d="M16 -200l540 1000h100l-540 -1000h-100z" />
    <glyph glyph-name="zero" unicode="0" 
d="M293 -10q-132 0 -189 88.5t-33 258.5l18 122q24 172 105.5 261.5t214.5 89.5q132 0 188 -89.5t32 -261.5l-18 -122q-24 -170 -105 -258.5t-213 -88.5zM305 80q91 0 139 60t67 197l18 122q19 140 -12 200.5t-122 60.5t-139 -60.5t-67 -200.5l-18 -122q-19 -137 12 -197
t122 -60zM339 322q-32 0 -50.5 11t-13.5 42l7 49q4 30 25.5 41.5t53.5 11.5t50 -11.5t14 -41.5l-7 -49q-5 -31 -26.5 -42t-52.5 -11z" />
    <glyph glyph-name="one" unicode="1" 
d="M74 0l13 90h220l83 590h-29q-43 -60 -100 -85t-125 -13l4 98q75 -9 143.5 21.5t125.5 98.5h97l-99 -710h200l-13 -90h-520z" />
    <glyph glyph-name="two" unicode="2" 
d="M24 0l24 170q13 91 64.5 144t156.5 83l141 40q60 16 87.5 41t34.5 75l5 41q10 69 -19.5 97.5t-122.5 28.5q-85 0 -123.5 -35.5t-60.5 -135.5l-98 10q27 137 93.5 194t200.5 57q131 0 189 -51t43 -155l-9 -66q-11 -75 -60.5 -120t-152.5 -74l-142 -40q-51 -14 -84.5 -40.5
t-42.5 -91.5l-11 -82h440l-13 -90h-540z" />
    <glyph glyph-name="three" unicode="3" 
d="M283 -10q-154 0 -200.5 57t-38.5 170l102 10q-3 -90 26 -119.5t123 -29.5q100 0 144.5 31t54.5 108l4 27q11 75 -23 105.5t-128 30.5h-100l13 90h100q83 0 120 23.5t45 82.5l4 32q9 63 -23 88.5t-121 25.5q-78 0 -113.5 -28t-54.5 -106l-99 10q23 113 91.5 162.5
t188.5 49.5q121 0 184 -47t47 -155l-4 -32q-8 -60 -54.5 -95t-121.5 -40l-4 -29q88 -7 125 -55t28 -113l-4 -27q-15 -108 -85.5 -167.5t-225.5 -59.5z" />
    <glyph glyph-name="four" unicode="4" 
d="M166 300h270l56 396zM644 210h-120l-30 -210h-100l30 210h-380l12 90l405 500h145l-70 -500h120z" />
    <glyph glyph-name="five" unicode="5" 
d="M292 -10q-155 0 -207 48.5t-40 182.5l101 10q-6 -95 23.5 -123t135.5 -28q91 0 135.5 34t53.5 102l7 48q10 72 -17.5 104t-98.5 32h-285l56 400h480l-12 -90h-380l-30 -215h185q119 0 169 -55t34 -167l-9 -67q-14 -99 -92 -157.5t-209 -58.5z" />
    <glyph glyph-name="six" unicode="6" 
d="M293 -10q-141 0 -195 77.5t-35 208.5l34 243q20 140 101 215.5t212 75.5q119 0 173 -43.5t60 -140.5l-112 -23q-5 61 -30 89t-106 28q-92 0 -137.5 -46.5t-60.5 -154.5l-14 -96h20q33 36 77 56t113 20q120 0 171.5 -66t36.5 -171l-3 -22q-17 -121 -96 -185.5t-209 -64.5z
M304 80q87 0 133.5 38.5t57.5 119.5l2 13q12 81 -24 119.5t-123 38.5t-133 -38.5t-58 -119.5l-2 -13q-11 -81 24.5 -119.5t122.5 -38.5z" />
    <glyph glyph-name="seven" unicode="7" 
d="M194 0q89 247 158 387.5t210 312.5h-440l14 100h540l-14 -100q-140 -187 -216 -337.5t-142 -362.5h-110z" />
    <glyph glyph-name="eight" unicode="8" 
d="M293 -10q-142 0 -199 51.5t-41 165.5l3 22q11 75 59 123t123 55l4 29q-57 5 -91 45t-25 105l5 32q14 101 80 146.5t197 45.5t184 -45.5t39 -146.5l-5 -32q-9 -65 -54 -105t-104 -45l-4 -29q73 -7 108 -55.5t24 -122.5l-3 -22q-16 -114 -87 -165.5t-213 -51.5zM359 465
q84 0 121 25.5t46 90.5l3 27q9 63 -20.5 88.5t-113.5 25.5t-120.5 -25.5t-45.5 -88.5l-3 -27q-9 -65 20 -90.5t113 -25.5zM305 78q95 0 137 30.5t52 108.5l3 17q11 79 -22 110t-128 31t-137 -31t-53 -110l-3 -17q-10 -78 23 -108.5t128 -30.5z" />
    <glyph glyph-name="nine" unicode="9" 
d="M350 391q85 0 132.5 39t58.5 119l2 13q11 80 -25.5 119t-121.5 39t-132.5 -39t-58.5 -119l-2 -13q-11 -80 25.5 -119t121.5 -39zM291 -10q-119 0 -173 43.5t-61 140.5l113 23q5 -67 33.5 -92t101.5 -25q90 0 136.5 47t61.5 154l14 96h-20q-33 -39 -81 -57.5t-113 -18.5
q-117 0 -167.5 66t-35.5 171l3 22q17 121 96 185.5t209 64.5q141 0 194.5 -77.5t35.5 -208.5l-35 -243q-18 -132 -94 -211.5t-218 -79.5z" />
    <glyph glyph-name="colon" unicode=":" 
d="M350 390q-50 0 -78 20.5t-22 63.5l6 48q7 44 40.5 65t83.5 21t78 -21t21 -65l-6 -48q-6 -43 -40 -63.5t-83 -20.5zM294 -10q-50 0 -78.5 20.5t-22.5 63.5l7 48q6 44 40 65t84 21t77.5 -21t21.5 -65l-7 -48q-6 -43 -39.5 -63.5t-82.5 -20.5z" />
    <glyph glyph-name="semicolon" unicode=";" 
d="M350 390q-50 0 -78 20.5t-22 63.5l6 48q7 44 40.5 65t83.5 21t78 -21t21 -65l-6 -48q-6 -43 -40 -63.5t-83 -20.5zM116 -200l146 400h199l-261 -400h-84z" />
    <glyph glyph-name="less" unicode="&#x3c;" 
d="M547 20l-461 280l14 100l540 280l-14 -95l-453 -235l387 -235z" />
    <glyph glyph-name="equal" unicode="=" 
d="M76 440l14 100h560l-14 -100h-560zM36 160l15 100h560l-15 -100h-560z" />
    <glyph glyph-name="greater" unicode="&#x3e;" 
d="M47 20l13 95l453 235l-387 235l14 95l460 -280l-14 -100z" />
    <glyph glyph-name="question" unicode="?" 
d="M258 313l-9 81q178 28 241 63t72 95l4 30q8 59 -22 98.5t-149 39.5q-127 0 -165 -38t-59 -133l-98 10q26 140 98 195.5t236 55.5t218.5 -62.5t41.5 -153.5l-6 -46q-15 -110 -112 -157.5t-291 -77.5zM248 -10q-50 0 -70.5 20.5t-14.5 63.5l4 28q7 44 32.5 65t75.5 21
t71 -21t14 -65l-4 -28q-6 -43 -32.5 -63.5t-75.5 -20.5z" />
    <glyph glyph-name="at" unicode="@" 
d="M337 -110q-160 0 -227 87t-47 232l42 298q20 137 98.5 220t213.5 83q121 0 174.5 -80t35.5 -213l-35 -244q-17 -84 -65 -123.5t-128 -39.5q-87 0 -122 45.5t-23 126.5l17 122q11 80 58.5 128t107.5 48q34 0 52.5 -16.5t26.5 -38.5h30q12 101 -21 156.5t-119 55.5
q-101 0 -153 -60.5t-68 -169.5l-42 -298q-16 -116 30 -180t174 -64q53 0 99.5 6.5t86.5 18.5l-11 -75q-38 -10 -88 -17.5t-97 -7.5zM411 190q40 0 64.5 18.5t32.5 75.5l16 112q7 55 -13 79.5t-57 24.5q-40 0 -65.5 -24.5t-33.5 -81.5l-14 -102q-8 -55 10.5 -78.5t59.5 -23.5
z" />
    <glyph glyph-name="A" unicode="A" 
d="M448 320l-58 367l-163 -367h221zM499 0l-37 230h-275l-101 -230h-102l370 800h105l146 -800h-106z" />
    <glyph glyph-name="B" unicode="B" 
d="M44 0l112 800h248q125 0 178.5 -46t39.5 -142l-6 -45q-7 -51 -41 -85.5t-86 -43.5l-5 -29q65 -6 97 -49t22 -111l-6 -45q-15 -104 -88 -154t-210 -50h-255zM209 460h158q71 0 107 26.5t44 84.5l4 28q8 58 -20.5 84.5t-99.5 26.5h-158zM157 90h178q76 0 115 29.5t48 95.5
l5 32q9 66 -22 95.5t-107 29.5h-178z" />
    <glyph glyph-name="C" unicode="C" 
d="M303 -10q-140 0 -200 71.5t-40 215.5l34 242q20 146 100.5 218.5t221.5 72.5q138 0 195.5 -64.5t45.5 -206.5l-102 -10q6 108 -27 149.5t-126 41.5q-99 0 -146 -45.5t-62 -155.5l-34 -242q-15 -108 19 -152.5t133 -44.5q93 0 137.5 40.5t69.5 146.5l98 -10
q-28 -140 -103 -203.5t-214 -63.5z" />
    <glyph glyph-name="D" unicode="D" 
d="M44 0l112 800h221q140 0 208.5 -79.5t50.5 -211.5l-32 -222q-18 -131 -109 -209t-231 -78h-220zM157 90h120q101 0 158 54.5t69 142.5l32 222q12 87 -29.5 144t-142.5 57h-120z" />
    <glyph glyph-name="E" unicode="E" 
d="M44 0l112 800h520l-12 -90h-420l-33 -230h370l-12 -90h-370l-42 -300h420l-13 -90h-520z" />
    <glyph glyph-name="F" unicode="F" 
d="M44 0l112 800h520l-12 -90h-420l-44 -310h350l-12 -90h-350l-44 -310h-100z" />
    <glyph glyph-name="G" unicode="G" 
d="M313 -10q-140 0 -204.5 74.5t-45.5 212.5l34 242q20 140 103.5 215.5t218.5 75.5q123 0 178.5 -62t45.5 -189l-102 -10q5 93 -26.5 132t-109.5 39q-97 0 -145 -46.5t-63 -154.5l-34 -242q-15 -107 22.5 -152t139.5 -45q92 0 138.5 51.5t63.5 173.5h-190l13 90h290
l-16 -108q-20 -143 -100.5 -220t-210.5 -77z" />
    <glyph glyph-name="H" unicode="H" 
d="M44 0l112 800h100l-45 -320h300l45 320h100l-112 -800h-100l55 390h-300l-55 -390h-100z" />
    <glyph glyph-name="I" unicode="I" 
d="M44 0l13 90h200l87 620h-200l12 90h500l-12 -90h-200l-87 -620h200l-13 -90h-500z" />
    <glyph glyph-name="J" unicode="J" 
d="M272 -10q-131 0 -187.5 65t-44.5 202l102 11q-9 -112 20.5 -150t122.5 -38q86 0 134.5 44.5t60.5 134.5l64 451h-200l12 90h300l-75 -540q-19 -131 -98 -200.5t-211 -69.5z" />
    <glyph glyph-name="K" unicode="K" 
d="M197 380l-53 -380h-100l112 800h100l-46 -330h34l355 330h116l-394 -368l279 -432h-120l-246 380h-37z" />
    <glyph glyph-name="L" unicode="L" 
d="M94 0l112 800h100l-99 -710h350l-13 -90h-450z" />
    <glyph glyph-name="M" unicode="M" 
d="M274 200l-80 439l-90 -639h-90l112 800h135l81 -481l214 481h130l-112 -800h-90l90 640l-204 -440h-96z" />
    <glyph glyph-name="N" unicode="N" 
d="M401 0l-172 674l-95 -674h-90l112 800h137l177 -689l96 689h90l-112 -800h-143z" />
    <glyph glyph-name="O" unicode="O" 
d="M293 -10q-132 0 -191 73.5t-39 213.5l34 242q20 142 100 216.5t212 74.5q131 0 189.5 -74.5t38.5 -216.5l-34 -242q-20 -140 -99 -213.5t-211 -73.5zM305 80q92 0 137.5 45t60.5 152l34 242q15 109 -17.5 155t-124.5 46t-137.5 -46t-60.5 -155l-34 -242
q-15 -107 17.5 -152t124.5 -45z" />
    <glyph glyph-name="P" unicode="P" 
d="M44 0l112 800h281q125 0 180 -52.5t40 -158.5l-14 -98q-15 -106 -85 -158.5t-195 -52.5h-180l-39 -280h-100zM196 368h180q81 0 119.5 28.5t47.5 96.5l13 92q10 68 -20.5 96.5t-111.5 28.5h-180z" />
    <glyph glyph-name="Q" unicode="Q" 
d="M567 -191q-152 -32 -225 14.5t-59 166.5q-128 3 -183.5 76t-36.5 211l34 242q20 143 99 217t213 74q133 0 190.5 -74t37.5 -217l-34 -242q-16 -115 -71.5 -185t-147.5 -92q-8 -71 35.5 -95.5t145.5 -5.5zM307 90q92 0 137 43t59 144l34 242q14 103 -18.5 147t-124.5 44
t-137.5 -44t-59.5 -147l-34 -242q-14 -101 19 -144t125 -43z" />
    <glyph glyph-name="R" unicode="R" 
d="M200 398h200q81 0 119.5 29.5t48.5 99.5l9 62q9 66 -21.5 93.5t-111.5 27.5h-200zM144 0h-100l112 800h301q125 0 180 -52.5t40 -158.5l-9 -62q-13 -96 -69.5 -150t-156.5 -64l161 -313h-114l-159 310h-142z" />
    <glyph glyph-name="S" unicode="S" 
d="M306 -6q-90 0 -164 29t-125 106l82 68q34 -57 88.5 -85t134.5 -28q74 0 124.5 34.5t58.5 93.5q8 57 -27 87.5t-145 64.5q-140 42 -186 91t-34 139q15 104 92 157t176 53q84 0 155.5 -29.5t118.5 -104.5l-79 -69q-32 57 -88 85t-118 28q-63 0 -104.5 -25.5t-49.5 -85.5
q-8 -53 29.5 -83.5t154.5 -65.5q132 -40 176 -87.5t31 -137.5q-16 -115 -106.5 -175t-194.5 -60z" />
    <glyph glyph-name="T" unicode="T" 
d="M244 0l100 710h-250l12 90h600l-12 -90h-250l-100 -710h-100z" />
    <glyph glyph-name="U" unicode="U" 
d="M293 -10q-125 0 -177.5 71.5t-32.5 215.5l73 523h100l-73 -523q-15 -107 13 -152t109 -45t122 45t56 152l73 523h100l-73 -523q-20 -144 -92.5 -215.5t-197.5 -71.5z" />
    <glyph glyph-name="V" unicode="V" 
d="M347 0h-105l-146 800h108l110 -673l298 673h105z" />
    <glyph glyph-name="W" unicode="W" 
d="M412 0l-51 477l-185 -477h-100l4 800h99l-19 -653l168 453h105l42 -453l163 653h94l-220 -800h-100z" />
    <glyph glyph-name="X" unicode="X" 
d="M508 0l-167 328l-260 -328h-117l336 408l-199 392h115l159 -312l247 312h116l-323 -391l208 -409h-115z" />
    <glyph glyph-name="Y" unicode="Y" 
d="M344 0h-100l42 300l-216 500h112l173 -410l276 410h110l-355 -500z" />
    <glyph glyph-name="Z" unicode="Z" 
d="M564 0h-540l13 90l507 620h-420l12 90h540l-12 -90l-508 -620h421z" />
    <glyph glyph-name="bracketleft" unicode="[" 
d="M116 -200l140 1000h350l-12 -90h-250l-117 -832h250l-11 -78h-350z" />
    <glyph glyph-name="backslash" unicode="\" 
d="M416 -200l-260 1000h100l260 -1000h-100z" />
    <glyph glyph-name="bracketright" unicode="]" 
d="M66 -200l11 78h250l117 832h-250l12 90h350l-140 -1000h-350z" />
    <glyph glyph-name="asciicircum" unicode="^" 
d="M537 200l-144 494l-276 -494h-95l334 600h100l176 -600h-95z" />
    <glyph glyph-name="underscore" unicode="_" 
d="M-14 -200l14 100h560l-14 -100h-560z" />
    <glyph glyph-name="grave" unicode="`" 
d="M395 400l-169 400h199l54 -400h-84z" />
    <glyph glyph-name="a" unicode="a" 
d="M233 76q52 0 98.5 18.5t84.5 64.5l14 96h-180q-43 0 -74.5 -19.5t-38.5 -68.5q-6 -43 15.5 -67t80.5 -24zM208 -10q-76 0 -130 40.5t-41 130.5q11 79 68.5 124t126.5 45h208l12 86q7 48 -21 76t-93 28q-66 0 -101 -19.5t-64 -86.5l-84 24q29 85 94.5 128.5t165.5 43.5
q99 0 158.5 -44.5t46.5 -137.5l-38 -268q-7 -54 21 -67.5t90 -3.5l-13 -92q-64 -9 -116 8.5t-46 94.5h-20q-34 -46 -94.5 -78t-129.5 -32z" />
    <glyph glyph-name="b" unicode="b" 
d="M285 -10q-60 0 -121.5 18t-111.5 52l104 740h100l-42 -300h30q34 52 84 81t107 29q93 0 135.5 -60t27.5 -168l-23 -163q-16 -109 -92 -169t-198 -60zM296 78q81 0 125 35.5t54 107.5l23 160q9 68 -16.5 101t-85.5 33q-49 0 -96.5 -26t-97.5 -79l-42 -294q30 -19 63 -28.5
t73 -9.5z" />
    <glyph glyph-name="c" unicode="c" 
d="M307 -10q-131 0 -189.5 57.5t-43.5 169.5l23 162q16 114 91 172.5t205 58.5q116 0 171 -52.5t48 -153.5l-99 -6q5 62 -28 92t-106 30q-82 0 -127 -34.5t-55 -106.5l-23 -162q-9 -69 26.5 -103t118.5 -34q72 0 112.5 25.5t51.5 76.5l97 -6q-20 -92 -88.5 -139t-184.5 -47z
" />
    <glyph glyph-name="d" unicode="d" 
d="M276 85q49 0 96.5 26t98.5 79l41 294q-28 19 -62 28.5t-74 9.5q-81 0 -125 -35.5t-54 -107.5l-22 -161q-10 -67 15.5 -100t85.5 -33zM428 100q-33 -52 -83 -81t-107 -29q-93 0 -136 60t-27 168l23 163q15 109 91.5 169t198.5 60q35 0 71 -7.5t67 -20.5l30 218h100
l-112 -800h-100l14 100h-30z" />
    <glyph glyph-name="e" unicode="e" 
d="M565 132q-38 -75 -97.5 -108.5t-173.5 -33.5q-119 0 -177 57.5t-42 170.5l22 161q17 116 94.5 173.5t189.5 57.5q113 0 172.5 -58.5t42.5 -179.5l-13 -92h-400l-9 -63q-10 -75 23 -108.5t108 -33.5q72 0 107.5 20t58.5 65zM197 379l-3 -24h300l2 15q11 81 -21 118
t-107 37t-117.5 -35.5t-53.5 -110.5z" />
    <glyph glyph-name="f" unicode="f" 
d="M166 -200l100 710h-170l12 90h170l6 40q11 81 81 125.5t164 44.5q40 0 79.5 -8t64.5 -18l-32 -84q-24 10 -57.5 15t-67.5 5q-55 0 -90.5 -18.5t-41.5 -60.5l-6 -41h250l-12 -90h-250l-100 -710h-100z" />
    <glyph glyph-name="g" unicode="g" 
d="M587 -48q-11 -81 -76.5 -121.5t-151.5 -40.5h-188q-90 0 -143 36t-43 111q7 48 36.5 76.5t78.5 32.5l3 21q-34 6 -53 29t-13 71q7 43 38.5 77.5t96.5 39.5l3 19q-47 16 -59.5 48.5t-8.5 62.5l4 27q10 69 75 114t172 45h295l-12 -90l-152 23l-3 -18q39 -11 55 -42t12 -62
l-4 -26q-10 -69 -69 -111.5t-178 -42.5h-121q-27 0 -42.5 -13.5t-20.5 -45.5q-4 -31 13 -46.5t56 -15.5h227q84 0 134.5 -37t38.5 -121zM317 307q61 0 96 22t42 69l4 32q7 47 -22 68.5t-90 21.5t-96 -21.5t-42 -68.5l-4 -32q-7 -47 22 -69t90 -22zM181 -130h203
q45 0 75.5 17t35.5 59q6 40 -17 57t-63 17h-318l-10 -68q-6 -41 18.5 -61.5t75.5 -20.5z" />
    <glyph glyph-name="h" unicode="h" 
d="M44 0l112 800h100l-42 -300h30q29 51 80.5 80.5t111.5 29.5q90 0 134 -55t31 -149l-57 -406h-100l54 385q9 63 -17 96.5t-83 33.5q-45 0 -95 -27t-101 -78l-58 -410h-100z" />
    <glyph glyph-name="i" unicode="i" 
d="M44 0l13 90h200l59 420h-200l12 90h300l-71 -510h200l-13 -90h-500zM394 710q-38 0 -60 12t-17 45l1 7q5 34 30 46.5t63 12.5t60 -12.5t17 -46.5l-1 -7q-5 -33 -30.5 -45t-62.5 -12z" />
    <glyph glyph-name="j" unicode="j" 
d="M173 -208q-38 0 -75.5 4.5t-78.5 17.5l33 96q36 -13 67.5 -17.5t63.5 -4.5q65 0 109 27.5t53 91.5l71 503h-280l12 90h380l-85 -606q-14 -103 -90.5 -152.5t-179.5 -49.5zM491 710q-38 0 -60 12t-17 45l1 7q5 34 30 46.5t63 12.5t60 -12.5t17 -46.5l-1 -7
q-5 -33 -30.5 -45t-62.5 -12z" />
    <glyph glyph-name="k" unicode="k" 
d="M232 273l-38 -273h-100l112 800h100l-62 -443h51l226 243h122l-274 -279l187 -321h-114l-159 273h-51z" />
    <glyph glyph-name="l" unicode="l" 
d="M44 0l13 90h200l87 620h-200l12 90h300l-99 -710h200l-13 -90h-500z" />
    <glyph glyph-name="m" unicode="m" 
d="M156 430l-60 -430h-92l84 600h92l-11 -80h20q25 42 59.5 66t68.5 24q39 0 62 -23.5t27 -66.5h22q25 42 61 66t73 24q50 0 73 -40.5t14 -109.5l-65 -460h-92l62 444q7 45 -2 68t-32 23q-19 0 -51.5 -28t-68.5 -77l-60 -430h-92l62 444q7 45 -2.5 68t-32.5 23
q-20 0 -50 -27t-69 -78z" />
    <glyph glyph-name="n" unicode="n" 
d="M44 0l84 600h100l-14 -100h30q29 51 80.5 80.5t111.5 29.5q90 0 134 -55t31 -150l-57 -405h-100l54 385q9 63 -17 96.5t-83 33.5q-45 0 -95 -27t-101 -78l-58 -410h-100z" />
    <glyph glyph-name="o" unicode="o" 
d="M293 -10q-121 0 -177.5 58.5t-41.5 168.5l23 162q16 111 89.5 171t194.5 60q120 0 176 -60t40 -171l-23 -162q-15 -110 -87.5 -168.5t-193.5 -58.5zM305 80q76 0 118 34t51 103l23 162q10 72 -22 106.5t-108 34.5t-118 -34.5t-52 -106.5l-23 -162q-9 -69 23 -103t108 -34
z" />
    <glyph glyph-name="p" unicode="p" 
d="M296 78q84 0 126.5 34t52.5 109l23 162q10 69 -14.5 100.5t-87.5 31.5q-50 0 -96.5 -25t-97.5 -80l-42 -294q29 -19 61 -28.5t75 -9.5zM285 -10q-34 0 -70.5 7.5t-67.5 20.5l-31 -218h-100l112 800h100l-14 -100h30q32 51 84 80.5t107 29.5q90 0 133.5 -61.5t29.5 -166.5
l-23 -163q-15 -106 -93 -167.5t-197 -61.5z" />
    <glyph glyph-name="q" unicode="q" 
d="M416 -200l42 300h-30q-35 -54 -83.5 -82t-106.5 -28q-95 0 -137 59t-26 169l23 163q15 111 97.5 170t192.5 59q66 0 125.5 -16t107.5 -46l-105 -748h-100zM276 85q49 0 96.5 25.5t98.5 79.5l41 294q-31 19 -64.5 28.5t-71.5 9.5q-66 0 -117 -35t-62 -108l-21 -151
q-10 -73 14.5 -108t85.5 -35z" />
    <glyph glyph-name="r" unicode="r" 
d="M94 0l84 600h100l-14 -100h30q29 57 76 83.5t108 26.5q67 0 105.5 -44.5t27.5 -125.5l-13 -90h-95l8 54q8 57 -14 84t-74 27q-47 0 -88.5 -23t-81.5 -72l-59 -420h-100z" />
    <glyph glyph-name="s" unicode="s" 
d="M301 -10q-76 0 -144 22.5t-121 69.5l56 79q43 -40 100.5 -60.5t120.5 -20.5q52 0 102 16t57 68q6 43 -30.5 61t-138.5 31q-108 13 -159 51.5t-40 121.5q13 90 87.5 135.5t164.5 45.5q71 0 133 -24t112 -68l-56 -79q-41 37 -92 59t-110 22q-48 0 -90 -18t-49 -66
q-5 -41 28.5 -59.5t135.5 -31.5q113 -13 164 -55.5t40 -118.5q-13 -94 -95 -137.5t-176 -43.5z" />
    <glyph glyph-name="t" unicode="t" 
d="M392 -9q-99 0 -147 49t-34 150l45 320h-170l12 90h170l28 200h100l-28 -200h260l-12 -90h-260l-44 -311q-8 -58 17 -86t82 -28q38 0 71.5 5.5t65.5 14.5l7 -91q-35 -10 -74.5 -16.5t-88.5 -6.5z" />
    <glyph glyph-name="u" unicode="u" 
d="M237 -10q-87 0 -133 56.5t-33 148.5l57 405h100l-54 -385q-9 -66 15.5 -98t84.5 -32q47 0 95 25.5t102 79.5l57 410h100l-84 -600h-100l14 100h-30q-28 -49 -80.5 -79.5t-110.5 -30.5z" />
    <glyph glyph-name="v" unicode="v" 
d="M356 0h-125l-129 600h109l95 -519l241 519h106z" />
    <glyph glyph-name="w" unicode="w" 
d="M382 0l-33 391l-139 -391h-114l-29 600h96l2 -527l138 427h118l28 -411l144 511h96l-197 -600h-110z" />
    <glyph glyph-name="x" unicode="x" 
d="M443 0l-123 229l-180 -229h-111l252 301l-161 299h112l118 -220l182 220h111l-253 -294l165 -306h-112z" />
    <glyph glyph-name="y" unicode="y" 
d="M87 -206q-24 0 -46.5 3t-45.5 8l29 89q25 -6 47 -9t41 -3q46 0 85.5 26t66.5 83l4 9h-37l-129 600h109l97 -516l240 516h105l-307 -620q-47 -97 -112 -141.5t-147 -44.5z" />
    <glyph glyph-name="z" unicode="z" 
d="M524 0h-460l13 90l396 420h-337l12 90h460l-12 -90l-396 -420h337z" />
    <glyph glyph-name="braceleft" unicode="{" 
d="M464 -210q-210 -4 -299 37.5t-77 128.5q7 50 32 84t53 59t51.5 47t26.5 47q7 47 -40.5 66.5t-176.5 22.5l8 60q130 3 183 22t59 65q4 25 -13.5 42.5l-39.5 39.5q-21 22 -37 53t-9 82q12 85 112.5 126.5t310.5 37.5l-13 -90q-168 3 -236.5 -18t-75.5 -68q-3 -20 8.5 -41
t44.5 -55q31 -33 41.5 -56.5t6.5 -51.5q-7 -56 -60.5 -84.5t-147.5 -32.5l-1 -5q92 -10 137 -42t37 -90q-4 -25 -22 -48t-61 -58q-39 -30 -55.5 -51.5t-20.5 -49.5q-7 -50 55 -72t232 -19z" />
    <glyph glyph-name="bar" unicode="|" 
d="M221 -200l140 1000h90l-140 -1000h-90z" />
    <glyph glyph-name="braceright" unicode="}" 
d="M488 -44q-12 -87 -113 -128.5t-311 -37.5l13 88q168 -3 237 19t76 72q4 28 -6.5 49.5t-41.5 51.5q-33 35 -45 58t-8 48q8 58 62 90t148 42l1 5q-92 4 -137.5 32.5t-38.5 84.5q4 28 21.5 51.5t58.5 56.5q41 34 58.5 55t20.5 41q7 47 -55.5 68t-232.5 18l13 90
q210 4 299.5 -37.5t77.5 -126.5q-7 -51 -32 -82t-52 -53q-28 -22 -50.5 -39.5t-26.5 -42.5q-6 -46 41 -65t177 -22l-8 -60q-131 -3 -183.5 -22.5t-59.5 -66.5q-3 -25 13.5 -47t38.5 -47q20 -25 36 -59t9 -84z" />
    <glyph glyph-name="asciitilde" unicode="~" 
d="M455 210q-57 0 -89 33.5t-58 124.5q-21 72 -37 97.5t-44 25.5q-27 0 -49 -26.5t-32 -91.5l-21 -153h-90l22 159q15 102 68 156.5t119 54.5q59 0 90.5 -34t58.5 -127q20 -69 35.5 -94.5t44.5 -25.5q27 0 49.5 26.5t31.5 92.5l22 152h90l-23 -159q-14 -102 -67 -156.5
t-121 -54.5z" />
    <glyph glyph-name="exclamdown" unicode="&#xa1;" 
d="M408 810q50 0 70.5 -20.5t14.5 -63.5l-4 -28q-6 -44 -32.5 -65t-76.5 -21t-70 21t-14 65l4 28q6 43 32.5 63.5t75.5 20.5zM405 500l-40 -500h-140l100 500h80z" />
    <glyph glyph-name="cent" unicode="&#xa2;" 
d="M189 317q-10 -66 17 -98t93 -38l62 438q-68 -5 -104 -37.5t-45 -98.5zM257 -50l20 142q-116 9 -159 69t-28 166l21 150q15 104 75 163.5t178 67.5l19 142h80l-19 -141q103 -7 145.5 -60.5t34.5 -154.5l-93 -6q6 72 -19.5 100t-90.5 31l-62 -438q66 2 99 27.5t46 93.5
l93 -6q-21 -99 -78 -148.5t-162 -56.5l-20 -141h-80z" />
    <glyph glyph-name="sterling" unicode="&#xa3;" 
d="M614 217q-22 -111 -84.5 -169t-156.5 -58q-37 0 -68.5 18.5t-62.5 33.5q-30 13 -55 20t-56 -11l-100 -60l-47 74l89 50q39 22 72 72.5t40 99.5q5 31 2 54.5t-10 43.5h-139l13 90h88q-10 24 -14 53t2 69q13 96 84 154.5t189 58.5q127 0 181.5 -52.5t45.5 -168.5l-102 -10
q5 80 -25.5 110.5t-112.5 30.5q-75 0 -112.5 -30t-46.5 -95q-6 -37 1.5 -65.5t20.5 -54.5h201l-13 -90h-153q4 -19 5.5 -41.5t-2.5 -48.5q-4 -34 -26.5 -76t-85.5 -82l10 -17q30 18 55 16t51 -11t49.5 -23t52.5 -14q51 0 77.5 29.5t44.5 109.5z" />
    <glyph glyph-name="currency" unicode="&#xa4;" 
d="M319 180q60 0 94.5 32t45.5 105l22 162q10 72 -15 106.5t-85 34.5t-95 -34.5t-45 -106.5l-22 -162q-11 -73 14.5 -105t85.5 -32zM307 90q-49 0 -88.5 13.5t-63.5 41.5l-99 -89l-54 63l116 104q-3 20 -3 43.5t4 50.5l22 162q4 28 11 52t17 45l-88 105l72 63l75 -90
q33 28 75.5 42t91.5 14t88 -14.5t63 -42.5l98 86l54 -63l-116 -102q3 -20 3 -44t-4 -51l-22 -162q-4 -26 -10.5 -49t-15.5 -42l87 -102l-71 -63l-73 85q-33 -28 -76 -42t-93 -14z" />
    <glyph glyph-name="yen" unicode="&#xa5;" 
d="M558 100h-200l-14 -100h-100l14 100h-200l13 90h200l15 110h-200l13 90h149l-178 410h109l167 -427l287 427h108l-291 -410h149l-13 -90h-200l-15 -110h200z" />
    <glyph glyph-name="brokenbar" unicode="&#xa6;" 
d="M305 400l56 400h90l-56 -400h-90zM221 -200l56 400h90l-56 -400h-90z" />
    <glyph glyph-name="section" unicode="&#xa7;" 
d="M312 202l18 -4t17 -4q50 1 93 23.5t50 76.5q7 51 -31.5 70t-93.5 31l-18 4t-17 4q-51 -1 -93.5 -23.5t-49.5 -76.5q-8 -51 31 -70t94 -31zM283 -207q-70 0 -131 24.5t-103 69.5l62 81q44 -43 88 -64t102 -21q55 0 99 21t52 72q9 64 -43 89.5t-122 40.5q-106 22 -160 62
t-42 125q8 57 48 92.5t96 51.5q-56 27 -82 68.5t-17 104.5q14 104 94 149t170 45q70 0 131 -24.5t103 -69.5l-62 -81q-45 43 -88.5 64t-101.5 21t-101.5 -24.5t-49.5 -68.5q-9 -64 43 -89.5t122 -40.5q106 -22 160 -62t42 -125q-8 -57 -48 -92.5t-97 -51.5q57 -27 83 -68.5
t17 -104.5q-14 -99 -89.5 -146.5t-174.5 -47.5z" />
    <glyph glyph-name="dieresis" unicode="&#xa8;" 
d="M279 710q-29 0 -45.5 12t-11.5 45l1 7q5 34 24.5 46.5t48.5 12.5t45.5 -12.5t11.5 -46.5l-1 -7q-5 -33 -25 -45t-48 -12zM509 710q-29 0 -45.5 12t-11.5 45l1 7q5 34 24.5 46.5t48.5 12.5t45.5 -12.5t11.5 -46.5l-1 -7q-5 -33 -25 -45t-48 -12z" />
    <glyph glyph-name="copyright" unicode="&#xa9;" 
d="M350 -110q-172 0 -251 95.5t-79 271.5v222q0 178 79.5 274.5t251.5 96.5t250.5 -96.5t78.5 -274.5v-222q0 -176 -79 -271.5t-251 -95.5zM350 -44q137 0 198.5 71.5t61.5 228.5v223q0 160 -61.5 232.5t-198.5 72.5t-198.5 -73t-61.5 -233v-221q0 -158 61.5 -229.5
t198.5 -71.5zM359 100q-84 0 -120 48t-36 138v171q0 89 36.5 136t118.5 47q71 0 103.5 -43t38.5 -133l-83 -6q-4 60 -16.5 80.5t-43.5 20.5q-34 0 -49 -22t-15 -74v-186q0 -51 16 -73.5t50 -22.5q30 0 42 17.5t16 74.5l83 -6q-6 -87 -38.5 -127t-102.5 -40z" />
    <glyph glyph-name="ordfeminine" unicode="&#xaa;" 
d="M290 395q39 0 73.5 16.5t65.5 54.5l8 55h-137q-37 0 -63.5 -13.5t-30.5 -48.5q-5 -31 14 -47.5t70 -16.5zM259 321q-62 0 -106 31.5t-34 101.5q9 62 57 97.5t108 35.5h162l8 56q6 41 -16 67t-73 26q-52 0 -80.5 -15t-51.5 -68l-72 21q22 66 73 101t140 35
q81 0 129.5 -38.5t37.5 -118.5l-26 -186q-7 -48 12.5 -58t73.5 -4l-11 -79q-58 -4 -96.5 9.5t-33.5 79.5h-17q-28 -40 -77.5 -67t-106.5 -27z" />
    <glyph glyph-name="guillemotleft" unicode="&#xab;" 
d="M589 99l-232 200l14 100l288 200l-13 -95l-223 -155l179 -155zM289 99l-232 200l14 100l288 200l-13 -95l-223 -155l179 -155z" />
    <glyph glyph-name="logicalnot" unicode="&#xac;" 
d="M474 0l42 300h-460l14 100h560l-56 -400h-100z" />
    <glyph glyph-name="registered" unicode="&#xae;" 
d="M350 138q-146 0 -213 74.5t-67 198.5v173q0 125 67 200.5t214 75.5q146 0 212.5 -75.5t66.5 -200.5v-173q0 -124 -67 -198.5t-213 -74.5zM350 195q113 0 166 55t53 171v153q0 119 -53 174.5t-166 55.5t-166 -55.5t-53 -174.5v-153q0 -116 53 -171t166 -55zM297 501h63
q25 0 36 10t11 32v28q0 28 -11 40t-36 12h-63v-122zM297 323h-65v358h128q55 0 84 -28t29 -82v-28q0 -37 -16.5 -60.5t-48.5 -33.5l71 -126h-74l-67 120h-41v-120z" />
    <glyph glyph-name="macron" unicode="&#x2c9;" 
d="M200 755l13 90h400l-13 -90h-400z" />
    <glyph glyph-name="macron" unicode="&#xaf;" 
d="M200 755l13 90h400l-13 -90h-400z" />
    <glyph glyph-name="degree" unicode="&#xb0;" 
d="M350 346q-90 0 -145 44.5t-55 137.5v93q0 93 55 139t145 46q91 0 145.5 -46t54.5 -139v-93q0 -93 -55 -137.5t-145 -44.5zM350 433q51 0 78 22t27 73v93q0 50 -27 74t-78 24q-53 0 -79 -24t-26 -74v-93q0 -51 26 -73t79 -22z" />
    <glyph glyph-name="plusminus" unicode="&#xb1;" 
d="M250 140l36 260h-230l14 100h230l37 260h100l-37 -260h230l-14 -100h-230l-36 -260h-100zM56 0l14 100h560l-14 -100h-560z" />
    <glyph glyph-name="two.sups" unicode="&#xb2;" 
d="M137 304l14 104q8 54 40.5 93.5t97.5 52.5l125 25q36 7 53.5 22.5t21.5 46.5l3 19q4 32 -14.5 50.5t-80.5 18.5t-83 -20.5t-32 -71.5l-91 7q15 77 62.5 116t153.5 39t145 -36.5t30 -99.5l-5 -34q-8 -57 -43.5 -86.5t-87.5 -39.5l-126 -25q-32 -6 -52 -21t-26 -55l-4 -32
h310l-10 -73h-401z" />
    <glyph glyph-name="three.sups" unicode="&#xb3;" 
d="M334 298q-110 0 -150 36.5t-34 108.5l91 6q-1 -44 16.5 -62t86.5 -18q68 0 92.5 19t29.5 53l2 16q5 37 -14.5 54.5t-85.5 17.5h-82l10 72h82q54 0 78 11t28 43l3 20q5 34 -21.5 47t-74.5 13q-49 0 -73 -16t-33 -53l-91 6q16 72 65 103t142 31q84 0 135.5 -26t41.5 -99
l-3 -16q-5 -40 -34 -62.5t-72 -26.5l-3 -18q47 -4 73 -32.5t20 -72.5l-2 -14q-11 -73 -65 -107t-158 -34z" />
    <glyph glyph-name="acute" unicode="&#xb4;" 
d="M278 700l164 200h150l-223 -200h-91z" />
    <glyph glyph-name="mu1" unicode="&#xb5;" 
d="M137 20l-21 -220h-120l41 220l81 580h100l-56 -404q-9 -60 22 -85.5t80 -25.5q45 0 81.5 20t70.5 55l62 440h100l-62 -440q-7 -54 16 -67t75 -4l-13 -92q-75 -11 -111 15t-31 88h-20q-31 -43 -79 -76.5t-114 -33.5q-31 0 -57 12t-43 37z" />
    <glyph glyph-name="paragraph" unicode="&#xb6;" 
d="M492 340h-100l-76 -540h-100l76 540q-90 0 -154 44.5t-49 152.5l8 52q15 110 91.5 160.5t166.5 50.5h301l-140 -1000h-100z" />
    <glyph glyph-name="periodcentered" unicode="&#x2219;" 
d="M336 290q-50 0 -78 22.5t-21 71.5l4 28q7 49 41 72.5t84 23.5t77.5 -23.5t20.5 -72.5l-4 -28q-7 -49 -41 -71.5t-83 -22.5z" />
    <glyph glyph-name="periodcentered" unicode="&#xb7;" 
d="M336 290q-50 0 -78 22.5t-21 71.5l4 28q7 49 41 72.5t84 23.5t77.5 -23.5t20.5 -72.5l-4 -28q-7 -49 -41 -71.5t-83 -22.5z" />
    <glyph glyph-name="cedilla" unicode="&#xb8;" 
d="M264 0l26 42q43 -8 78.5 -37.5t26.5 -95.5q-9 -65 -58 -95t-105 -30q-66 0 -104 24.5t-34 81.5l89 10q-1 -19 11.5 -26.5t43.5 -7.5q30 0 47.5 12.5t21.5 46.5q5 34 -5 50.5t-38 24.5z" />
    <glyph glyph-name="one.sups" unicode="&#xb9;" 
d="M187 304l10 73h136l45 318h-15q-18 -40 -57 -64t-84 -25l5 75q47 2 96.5 30.5t70.5 88.5h89l-59 -423h124l-10 -73h-351z" />
    <glyph glyph-name="ordmasculine" unicode="&#xba;" 
d="M339 321q-96 0 -149 45.5t-40 139.5l16 114q14 96 80 143t162 47t148.5 -47t38.5 -143l-16 -114q-13 -94 -78.5 -139.5t-161.5 -45.5zM350 398q64 0 99.5 25.5t43.5 82.5l16 114q8 57 -20 84.5t-92 27.5t-100.5 -27.5t-44.5 -84.5l-16 -114q-8 -57 21 -82.5t93 -25.5z
" />
    <glyph glyph-name="guillemotright" unicode="&#xbb;" 
d="M28 100l13 95l224 155l-180 155l13 95l232 -200l-14 -100zM328 100l13 95l224 155l-180 155l13 95l232 -200l-14 -100z" />
    <glyph glyph-name="onequarter" unicode="&#xbc;" 
d="M182 410l10 73h136l31 218h-15q-9 -20 -23.5 -36t-32.5 -28q-20 -12 -41.5 -18.5t-43.5 -6.5l5 75q25 1 50 8.5t48 22.5q23 14 41 36.5t28 51.5h89l-45 -323h124l-10 -73h-351zM-21 250l14 100l315 -20l-8 -60zM378 270l8 60l307 20l-14 -100zM510 -114h-93l-14 -96h-91
l14 96h-254l10 70l262 260h119l-36 -260h93zM161 -44h175l28 198z" />
    <glyph glyph-name="onehalf" unicode="&#xbd;" 
d="M182 410l10 73h136l31 218h-15q-9 -20 -23.5 -36t-32.5 -28q-20 -12 -41.5 -18.5t-43.5 -6.5l5 75q25 1 50 8.5t48 22.5q23 14 41 36.5t28 51.5h89l-45 -323h124l-10 -73h-351zM-21 250l14 100l315 -20l-8 -60zM378 270l8 60l307 20l-14 -100zM64 -210l12 84q4 24 13 44
t26 37q16 16 40 27.5t56 17.5l126 25q19 4 31.5 8t20.5 9q9 6 13.5 13.5t5.5 18.5l3 19q2 12 -2 21t-14 15q-11 7 -30.5 10t-50.5 3t-51 -4t-32 -12t-18.5 -21.5t-11.5 -34.5l-90 7q7 35 21.5 60t38.5 42q24 16 62 24.5t91 8.5q52 0 88.5 -8t56.5 -23q21 -15 28.5 -36
t3.5 -49l-4 -34q-4 -23 -14.5 -41t-26.5 -30q-17 -13 -38.5 -21t-49.5 -14l-126 -25q-18 -4 -30 -7.5t-21 -10.5q-10 -7 -16.5 -19t-8.5 -31h310l-11 -73h-401z" />
    <glyph glyph-name="threequarters" unicode="&#xbe;" 
d="M349 404q-55 0 -92 7.5t-59 23.5q-22 15 -30 38.5t-6 55.5l91 6q0 -18 3.5 -29t14.5 -18t32 -10t56 -3q34 0 55.5 2.5t35.5 8.5q13 5 19 12.5t8 18.5l2 16q1 11 -2.5 18.5t-15.5 13.5q-12 5 -32.5 7.5t-53.5 2.5h-52l10 72h52q28 0 46.5 2t30.5 7q13 5 19 13.5t8 21.5
l3 20q1 8 -5 14t-20 10q-12 3 -31 4.5t-44 1.5t-43 -2.5t-30 -8.5t-19.5 -15t-11.5 -23l-90 6q6 31 21 52.5t40 35.5q25 13 60.5 19.5t82.5 6.5q44 0 78.5 -4.5t58.5 -15.5q25 -11 36.5 -29.5t7.5 -45.5l-2 -16q-3 -17 -11.5 -31t-22.5 -24t-32 -16t-40 -8l-2 -18
q24 -2 42.5 -8t31.5 -16q13 -9 18.5 -22.5t3.5 -28.5l-2 -14q-4 -29 -19 -50t-41 -34q-27 -14 -66.5 -20.5t-91.5 -6.5zM-21 250l14 100l315 -20l-8 -60zM378 270l8 60l307 20l-14 -100zM510 -114h-93l-14 -96h-91l14 96h-254l10 70l262 260h119l-36 -260h93zM161 -44h175
l28 198z" />
    <glyph glyph-name="questiondown" unicode="&#xbf;" 
d="M453 810q50 0 70 -20.5t14 -63.5l-4 -28q-6 -44 -32 -65t-76 -21t-70.5 21t-14.5 65l4 28q6 43 33 63.5t76 20.5zM442 487l9 -81q-178 -28 -241 -63t-71 -95l-4 -30q-9 -59 21 -98.5t149 -39.5q127 0 165.5 38t58.5 133l99 -10q-27 -140 -98.5 -195.5t-235.5 -55.5
t-219 62.5t-42 153.5l6 46q16 110 112.5 157.5t290.5 77.5z" />
    <glyph glyph-name="Agrave" unicode="&#xc0;" 
d="M448 320l-58 367l-163 -367h221zM499 0l-37 230h-275l-101 -230h-102l370 800h105l146 -800h-106zM418 900l-167 200h150l108 -200h-91z" />
    <glyph glyph-name="Aacute" unicode="&#xc1;" 
d="M448 320l-58 367l-163 -367h221zM499 0l-37 230h-275l-101 -230h-102l370 800h105l146 -800h-106zM303 900l164 200h150l-223 -200h-91z" />
    <glyph glyph-name="Acircumflex" unicode="&#xc2;" 
d="M448 320l-58 367l-163 -367h221zM499 0l-37 230h-275l-101 -230h-102l370 800h105l146 -800h-106zM245 904l-29 64l195 149h72l155 -149l-47 -64l-158 116z" />
    <glyph glyph-name="Atilde" unicode="&#xc3;" 
d="M448 320l-58 367l-163 -367h221zM499 0l-37 230h-275l-101 -230h-102l370 800h105l146 -800h-106zM498 910q-34 0 -55 18t-36 40q-15 21 -28 39t-31 18q-19 0 -35.5 -18.5t-23.5 -75.5l-2 -11h-77l2 15q11 75 52 125t104 50q38 0 60 -18t36 -39q14 -22 25.5 -40t28.5 -18
q19 0 35 18.5t24 75.5l1 11h77l-2 -15q-10 -76 -51 -125.5t-104 -49.5z" />
    <glyph glyph-name="Adieresis" unicode="&#xc4;" 
d="M448 320l-58 367l-163 -367h221zM499 0l-37 230h-275l-101 -230h-102l370 800h105l146 -800h-106zM304 910q-29 0 -45.5 12t-11.5 45l1 7q5 34 24.5 46.5t48.5 12.5t45.5 -12.5t11.5 -46.5l-1 -7q-5 -33 -25 -45t-48 -12zM534 910q-29 0 -45.5 12t-11.5 45l1 7
q5 34 24.5 46.5t48.5 12.5t45.5 -12.5t11.5 -46.5l-1 -7q-5 -33 -25 -45t-48 -12z" />
    <glyph glyph-name="Aring" unicode="&#xc5;" 
d="M448 320l-58 367l-163 -367h221zM499 0l-37 230h-275l-101 -230h-102l370 800h105l146 -800h-106zM415 885q-72 0 -111 35.5t-28 109.5l4 32q11 75 60 111.5t121 36.5t111 -36.5t28 -111.5l-4 -32q-11 -74 -60 -109.5t-121 -35.5zM425 956q40 0 63.5 17t29.5 57l4 32
q6 40 -12.5 58.5t-58.5 18.5q-41 0 -64 -18.5t-29 -58.5l-4 -32q-6 -40 12 -57t59 -17z" />
    <glyph glyph-name="AE" unicode="&#xc6;" 
d="M341 720l-177 -410h184l57 410h-64zM336 230h-207l-99 -230h-86l355 800h447l-11 -80h-240l-35 -250h230l-11 -80h-230l-44 -310h240l-11 -80h-330z" />
    <glyph glyph-name="Ccedilla" unicode="&#xc7;" 
d="M303 -10q-140 0 -200 71.5t-40 215.5l34 242q20 146 100.5 218.5t221.5 72.5q138 0 195.5 -64.5t45.5 -206.5l-102 -10q6 108 -27 149.5t-126 41.5q-99 0 -146 -45.5t-62 -155.5l-34 -242q-15 -108 19 -152.5t133 -44.5q93 0 137.5 40.5t69.5 146.5l98 -10
q-28 -140 -103 -203.5t-214 -63.5zM274 0l26 42q43 -8 78.5 -37.5t26.5 -95.5q-9 -65 -58 -95t-105 -30q-66 0 -104 24.5t-34 81.5l89 10q-1 -19 11.5 -26.5t43.5 -7.5q30 0 47.5 12.5t21.5 46.5q5 34 -5 50.5t-38 24.5z" />
    <glyph glyph-name="Egrave" unicode="&#xc8;" 
d="M44 0l112 800h520l-12 -90h-420l-33 -230h370l-12 -90h-370l-42 -300h420l-13 -90h-520zM427 900l-167 200h150l108 -200h-91z" />
    <glyph glyph-name="Eacute" unicode="&#xc9;" 
d="M44 0l112 800h520l-12 -90h-420l-33 -230h370l-12 -90h-370l-42 -300h420l-13 -90h-520zM332 900l164 200h150l-223 -200h-91z" />
    <glyph glyph-name="Ecircumflex" unicode="&#xca;" 
d="M44 0l112 800h520l-12 -90h-420l-33 -230h370l-12 -90h-370l-42 -300h420l-13 -90h-520zM264 904l-29 64l195 149h72l155 -149l-47 -64l-158 116z" />
    <glyph glyph-name="Edieresis" unicode="&#xcb;" 
d="M44 0l112 800h520l-12 -90h-420l-33 -230h370l-12 -90h-370l-42 -300h420l-13 -90h-520zM323 910q-29 0 -45.5 12t-11.5 45l1 7q5 34 24.5 46.5t48.5 12.5t45.5 -12.5t11.5 -46.5l-1 -7q-5 -33 -25 -45t-48 -12zM553 910q-29 0 -45.5 12t-11.5 45l1 7q5 34 24.5 46.5
t48.5 12.5t45.5 -12.5t11.5 -46.5l-1 -7q-5 -33 -25 -45t-48 -12z" />
    <glyph glyph-name="Igrave" unicode="&#xcc;" 
d="M44 0l13 90h200l87 620h-200l12 90h500l-12 -90h-200l-87 -620h200l-13 -90h-500zM417 900l-167 200h150l108 -200h-91z" />
    <glyph glyph-name="Iacute" unicode="&#xcd;" 
d="M44 0l13 90h200l87 620h-200l12 90h500l-12 -90h-200l-87 -620h200l-13 -90h-500zM302 900l164 200h150l-223 -200h-91z" />
    <glyph glyph-name="Icircumflex" unicode="&#xce;" 
d="M44 0l13 90h200l87 620h-200l12 90h500l-12 -90h-200l-87 -620h200l-13 -90h-500zM244 904l-29 64l195 149h72l155 -149l-47 -64l-158 116z" />
    <glyph glyph-name="Idieresis" unicode="&#xcf;" 
d="M44 0l13 90h200l87 620h-200l12 90h500l-12 -90h-200l-87 -620h200l-13 -90h-500zM303 910q-29 0 -45.5 12t-11.5 45l1 7q5 34 24.5 46.5t48.5 12.5t45.5 -12.5t11.5 -46.5l-1 -7q-5 -33 -25 -45t-48 -12zM533 910q-29 0 -45.5 12t-11.5 45l1 7q5 34 24.5 46.5t48.5 12.5
t45.5 -12.5t11.5 -46.5l-1 -7q-5 -33 -25 -45t-48 -12z" />
    <glyph glyph-name="Eth" unicode="&#xd0;" 
d="M44 0l56 395h-100l12 90h100l44 315h221q140 0 208.5 -79.5t50.5 -211.5l-32 -222q-18 -131 -109 -209t-231 -78h-220zM157 90h120q101 0 158 54.5t69 142.5l32 222q12 87 -29.5 144t-142.5 57h-120l-32 -225h150l-12 -90h-150z" />
    <glyph glyph-name="Ntilde" unicode="&#xd1;" 
d="M401 0l-172 674l-95 -674h-90l112 800h137l177 -689l96 689h90l-112 -800h-143zM517 910q-34 0 -55 18t-36 40q-15 21 -28 39t-31 18q-19 0 -35.5 -18.5t-23.5 -75.5l-2 -11h-77l2 15q11 75 52 125t104 50q38 0 60 -18t36 -39q14 -22 25.5 -40t28.5 -18q19 0 35 18.5
t24 75.5l1 11h77l-2 -15q-10 -76 -51 -125.5t-104 -49.5z" />
    <glyph glyph-name="Ograve" unicode="&#xd2;" 
d="M293 -10q-132 0 -191 73.5t-39 213.5l34 242q20 142 100 216.5t212 74.5q131 0 189.5 -74.5t38.5 -216.5l-34 -242q-20 -140 -99 -213.5t-211 -73.5zM305 80q92 0 137.5 45t60.5 152l34 242q15 109 -17.5 155t-124.5 46t-137.5 -46t-60.5 -155l-34 -242
q-15 -107 17.5 -152t124.5 -45zM417 900l-167 200h150l108 -200h-91z" />
    <glyph glyph-name="Oacute" unicode="&#xd3;" 
d="M293 -10q-132 0 -191 73.5t-39 213.5l34 242q20 142 100 216.5t212 74.5q131 0 189.5 -74.5t38.5 -216.5l-34 -242q-20 -140 -99 -213.5t-211 -73.5zM305 80q92 0 137.5 45t60.5 152l34 242q15 109 -17.5 155t-124.5 46t-137.5 -46t-60.5 -155l-34 -242
q-15 -107 17.5 -152t124.5 -45zM342 900l164 200h150l-223 -200h-91z" />
    <glyph glyph-name="Ocircumflex" unicode="&#xd4;" 
d="M293 -10q-132 0 -191 73.5t-39 213.5l34 242q20 142 100 216.5t212 74.5q131 0 189.5 -74.5t38.5 -216.5l-34 -242q-20 -140 -99 -213.5t-211 -73.5zM305 80q92 0 137.5 45t60.5 152l34 242q15 109 -17.5 155t-124.5 46t-137.5 -46t-60.5 -155l-34 -242
q-15 -107 17.5 -152t124.5 -45zM244 904l-29 64l195 149h72l155 -149l-47 -64l-158 116z" />
    <glyph glyph-name="Otilde" unicode="&#xd5;" 
d="M293 -10q-132 0 -191 73.5t-39 213.5l34 242q20 142 100 216.5t212 74.5q131 0 189.5 -74.5t38.5 -216.5l-34 -242q-20 -140 -99 -213.5t-211 -73.5zM305 80q92 0 137.5 45t60.5 152l34 242q15 109 -17.5 155t-124.5 46t-137.5 -46t-60.5 -155l-34 -242
q-15 -107 17.5 -152t124.5 -45zM497 910q-34 0 -55 18t-36 40q-15 21 -28 39t-31 18q-19 0 -35.5 -18.5t-23.5 -75.5l-2 -11h-77l2 15q11 75 52 125t104 50q38 0 60 -18t36 -39q14 -22 25.5 -40t28.5 -18q19 0 35 18.5t24 75.5l1 11h77l-2 -15q-10 -76 -51 -125.5
t-104 -49.5z" />
    <glyph glyph-name="Odieresis" unicode="&#xd6;" 
d="M293 -10q-132 0 -191 73.5t-39 213.5l34 242q20 142 100 216.5t212 74.5q131 0 189.5 -74.5t38.5 -216.5l-34 -242q-20 -140 -99 -213.5t-211 -73.5zM305 80q92 0 137.5 45t60.5 152l34 242q15 109 -17.5 155t-124.5 46t-137.5 -46t-60.5 -155l-34 -242
q-15 -107 17.5 -152t124.5 -45zM303 910q-29 0 -45.5 12t-11.5 45l1 7q5 34 24.5 46.5t48.5 12.5t45.5 -12.5t11.5 -46.5l-1 -7q-5 -33 -25 -45t-48 -12zM533 910q-29 0 -45.5 12t-11.5 45l1 7q5 34 24.5 46.5t48.5 12.5t45.5 -12.5t11.5 -46.5l-1 -7q-5 -33 -25 -45
t-48 -12z" />
    <glyph glyph-name="multiply" unicode="&#xd7;" 
d="M84 46l-54 63l250 241l-182 241l72 63l182 -241l249 236l54 -63l-249 -236l183 -236l-72 -63l-183 236z" />
    <glyph glyph-name="Oslash" unicode="&#xd8;" 
d="M166 152l302 559q-16 4 -33.5 6.5t-39.5 2.5q-93 0 -138 -45.5t-60 -155.5l-34 -242q-6 -40 -5 -71t8 -54zM305 80q93 0 138 45t60 152l34 242q7 51 4.5 88t-16.5 61l-309 -573q17 -7 39 -11t50 -4zM293 -10q-33 0 -61.5 4.5t-52.5 14.5l-59 -109h-100l85 159
q-31 36 -41.5 91t-0.5 127l34 242q20 142 100 216.5t212 74.5q27 0 51 -3t45 -10l55 103h100l-79 -146q39 -36 53 -95t3 -140l-34 -242q-20 -140 -99.5 -213.5t-210.5 -73.5z" />
    <glyph glyph-name="Ugrave" unicode="&#xd9;" 
d="M293 -10q-125 0 -177.5 71.5t-32.5 215.5l73 523h100l-73 -523q-15 -107 13 -152t109 -45t122 45t56 152l73 523h100l-73 -523q-20 -144 -92.5 -215.5t-197.5 -71.5zM417 900l-167 200h150l108 -200h-91z" />
    <glyph glyph-name="Uacute" unicode="&#xda;" 
d="M293 -10q-125 0 -177.5 71.5t-32.5 215.5l73 523h100l-73 -523q-15 -107 13 -152t109 -45t122 45t56 152l73 523h100l-73 -523q-20 -144 -92.5 -215.5t-197.5 -71.5zM302 900l164 200h150l-223 -200h-91z" />
    <glyph glyph-name="Ucircumflex" unicode="&#xdb;" 
d="M293 -10q-125 0 -177.5 71.5t-32.5 215.5l73 523h100l-73 -523q-15 -107 13 -152t109 -45t122 45t56 152l73 523h100l-73 -523q-20 -144 -92.5 -215.5t-197.5 -71.5zM244 904l-29 64l195 149h72l155 -149l-47 -64l-158 116z" />
    <glyph glyph-name="Udieresis" unicode="&#xdc;" 
d="M293 -10q-125 0 -177.5 71.5t-32.5 215.5l73 523h100l-73 -523q-15 -107 13 -152t109 -45t122 45t56 152l73 523h100l-73 -523q-20 -144 -92.5 -215.5t-197.5 -71.5zM303 910q-29 0 -45.5 12t-11.5 45l1 7q5 34 24.5 46.5t48.5 12.5t45.5 -12.5t11.5 -46.5l-1 -7
q-5 -33 -25 -45t-48 -12zM533 910q-29 0 -45.5 12t-11.5 45l1 7q5 34 24.5 46.5t48.5 12.5t45.5 -12.5t11.5 -46.5l-1 -7q-5 -33 -25 -45t-48 -12z" />
    <glyph glyph-name="Yacute" unicode="&#xdd;" 
d="M344 0h-100l42 300l-216 500h112l173 -410l276 410h110l-355 -500zM302 900l164 200h150l-223 -200h-91z" />
    <glyph glyph-name="Thorn" unicode="&#xde;" 
d="M44 0l112 800h100l-18 -130h181q124 0 179 -53.5t41 -157.5l-13 -92q-15 -107 -86 -162t-195 -55h-180l-21 -150h-100zM177 238h180q81 0 120 29.5t49 99.5l13 92q9 66 -21.5 93.5t-111.5 27.5h-180z" />
    <glyph glyph-name="germandbls" unicode="&#xdf;" 
d="M400 -6q-63 0 -119 22.5t-90 64.5l66 79q30 -31 72.5 -53.5t92.5 -22.5q44 0 82 17.5t44 62.5q7 47 -22 65t-94 30q-68 13 -131.5 43.5t-50.5 127.5q12 79 81.5 127.5t159.5 49.5q-1 57 -41 81t-101 24q-59 0 -111.5 -34t-64.5 -115l-107 -763h-100l109 776
q17 118 102.5 175t186.5 57q116 0 177 -64.5t47 -165.5l-6 -46q-98 0 -160.5 -18.5t-70.5 -72.5q-6 -46 31.5 -61.5t109.5 -28.5q65 -12 118 -48t39 -130q-13 -95 -87.5 -137t-161.5 -42z" />
    <glyph glyph-name="agrave" unicode="&#xe0;" 
d="M233 76q52 0 98.5 18.5t84.5 64.5l14 96h-180q-43 0 -74.5 -19.5t-38.5 -68.5q-6 -43 15.5 -67t80.5 -24zM208 -10q-76 0 -130 40.5t-41 130.5q11 79 68.5 124t126.5 45h208l12 86q7 48 -21 76t-93 28q-66 0 -101 -19.5t-64 -86.5l-84 24q29 85 94.5 128.5t165.5 43.5
q99 0 158.5 -44.5t46.5 -137.5l-38 -268q-7 -54 21 -67.5t90 -3.5l-13 -92q-64 -9 -116 8.5t-46 94.5h-20q-34 -46 -94.5 -78t-129.5 -32zM373 700l-167 200h150l108 -200h-91z" />
    <glyph glyph-name="aacute" unicode="&#xe1;" 
d="M233 76q52 0 98.5 18.5t84.5 64.5l14 96h-180q-43 0 -74.5 -19.5t-38.5 -68.5q-6 -43 15.5 -67t80.5 -24zM208 -10q-76 0 -130 40.5t-41 130.5q11 79 68.5 124t126.5 45h208l12 86q7 48 -21 76t-93 28q-66 0 -101 -19.5t-64 -86.5l-84 24q29 85 94.5 128.5t165.5 43.5
q99 0 158.5 -44.5t46.5 -137.5l-38 -268q-7 -54 21 -67.5t90 -3.5l-13 -92q-64 -9 -116 8.5t-46 94.5h-20q-34 -46 -94.5 -78t-129.5 -32zM258 700l164 200h150l-223 -200h-91z" />
    <glyph glyph-name="acircumflex" unicode="&#xe2;" 
d="M233 76q52 0 98.5 18.5t84.5 64.5l14 96h-180q-43 0 -74.5 -19.5t-38.5 -68.5q-6 -43 15.5 -67t80.5 -24zM208 -10q-76 0 -130 40.5t-41 130.5q11 79 68.5 124t126.5 45h208l12 86q7 48 -21 76t-93 28q-66 0 -101 -19.5t-64 -86.5l-84 24q29 85 94.5 128.5t165.5 43.5
q99 0 158.5 -44.5t46.5 -137.5l-38 -268q-7 -54 21 -67.5t90 -3.5l-13 -92q-64 -9 -116 8.5t-46 94.5h-20q-34 -46 -94.5 -78t-129.5 -32zM210 704l-29 64l195 149h72l155 -149l-47 -64l-158 116z" />
    <glyph glyph-name="atilde" unicode="&#xe3;" 
d="M233 76q52 0 98.5 18.5t84.5 64.5l14 96h-180q-43 0 -74.5 -19.5t-38.5 -68.5q-6 -43 15.5 -67t80.5 -24zM208 -10q-76 0 -130 40.5t-41 130.5q11 79 68.5 124t126.5 45h208l12 86q7 48 -21 76t-93 28q-66 0 -101 -19.5t-64 -86.5l-84 24q29 85 94.5 128.5t165.5 43.5
q99 0 158.5 -44.5t46.5 -137.5l-38 -268q-7 -54 21 -67.5t90 -3.5l-13 -92q-64 -9 -116 8.5t-46 94.5h-20q-34 -46 -94.5 -78t-129.5 -32zM453 710q-34 0 -55 18t-36 40q-15 21 -28 39t-31 18q-19 0 -35.5 -18.5t-23.5 -75.5l-2 -11h-77l2 15q11 75 52 125t104 50
q38 0 60 -18t36 -39q14 -22 25.5 -40t28.5 -18q19 0 35 18.5t24 75.5l1 11h77l-2 -15q-10 -76 -51 -125.5t-104 -49.5z" />
    <glyph glyph-name="adieresis" unicode="&#xe4;" 
d="M233 76q52 0 98.5 18.5t84.5 64.5l14 96h-180q-43 0 -74.5 -19.5t-38.5 -68.5q-6 -43 15.5 -67t80.5 -24zM208 -10q-76 0 -130 40.5t-41 130.5q11 79 68.5 124t126.5 45h208l12 86q7 48 -21 76t-93 28q-66 0 -101 -19.5t-64 -86.5l-84 24q29 85 94.5 128.5t165.5 43.5
q99 0 158.5 -44.5t46.5 -137.5l-38 -268q-7 -54 21 -67.5t90 -3.5l-13 -92q-64 -9 -116 8.5t-46 94.5h-20q-34 -46 -94.5 -78t-129.5 -32zM259 710q-29 0 -45.5 12t-11.5 45l1 7q5 34 24.5 46.5t48.5 12.5t45.5 -12.5t11.5 -46.5l-1 -7q-5 -33 -25 -45t-48 -12zM489 710
q-29 0 -45.5 12t-11.5 45l1 7q5 34 24.5 46.5t48.5 12.5t45.5 -12.5t11.5 -46.5l-1 -7q-5 -33 -25 -45t-48 -12z" />
    <glyph glyph-name="aring" unicode="&#xe5;" 
d="M233 76q52 0 98.5 18.5t84.5 64.5l14 96h-180q-43 0 -74.5 -19.5t-38.5 -68.5q-6 -43 15.5 -67t80.5 -24zM208 -10q-76 0 -130 40.5t-41 130.5q11 79 68.5 124t126.5 45h208l12 86q7 48 -21 76t-93 28q-66 0 -101 -19.5t-64 -86.5l-84 24q29 85 94.5 128.5t165.5 43.5
q99 0 158.5 -44.5t46.5 -137.5l-38 -268q-7 -54 21 -67.5t90 -3.5l-13 -92q-64 -9 -116 8.5t-46 94.5h-20q-34 -46 -94.5 -78t-129.5 -32zM370 685q-72 0 -111 35.5t-28 109.5l4 32q11 75 60 111.5t121 36.5t111 -36.5t28 -111.5l-4 -32q-11 -74 -60 -109.5t-121 -35.5z
M380 756q40 0 63.5 17t29.5 57l4 32q6 40 -12.5 58.5t-58.5 18.5q-41 0 -64 -18.5t-29 -58.5l-4 -32q-6 -40 12 -57t59 -17z" />
    <glyph glyph-name="ae" unicode="&#xe6;" 
d="M635 144q-21 -79 -66.5 -116.5t-129.5 -37.5q-56 0 -93 22t-51 68h-16q-28 -39 -65.5 -64.5t-92.5 -25.5q-52 0 -94.5 40.5t-29.5 130.5q11 80 64 124.5t116 44.5h123l12 86q8 52 -12 83t-66 31q-42 0 -62.5 -18t-45.5 -78l-75 24q24 72 72 112t131 40q41 0 72 -16.5
t47 -50.5q27 34 63.5 50.5t79.5 16.5q84 0 127 -49.5t28 -153.5l-18 -127h-280l-13 -98q-9 -62 10 -89.5t68 -27.5t71.5 18t37.5 69zM392 414l-10 -69h190l9 60q9 68 -10 99t-67 31q-46 0 -74.5 -29.5t-37.5 -91.5zM274 139l17 126h-95q-41 0 -71 -21.5t-38 -76.5
q-6 -48 7.5 -74.5t56.5 -26.5q34 0 63.5 19.5t59.5 53.5z" />
    <glyph glyph-name="ccedilla" unicode="&#xe7;" 
d="M307 -10q-131 0 -189.5 57.5t-43.5 169.5l23 162q16 114 91 172.5t205 58.5q116 0 171 -52.5t48 -153.5l-99 -6q5 62 -28 92t-106 30q-82 0 -127 -34.5t-55 -106.5l-23 -162q-9 -69 26.5 -103t118.5 -34q72 0 112.5 25.5t51.5 76.5l97 -6q-20 -92 -88.5 -139t-184.5 -47z
M260 0l26 42q43 -8 78.5 -37.5t26.5 -95.5q-9 -65 -58 -95t-105 -30q-66 0 -104 24.5t-34 81.5l89 10q-1 -19 11.5 -26.5t43.5 -7.5q30 0 47.5 12.5t21.5 46.5q5 34 -5 50.5t-38 24.5z" />
    <glyph glyph-name="egrave" unicode="&#xe8;" 
d="M565 132q-38 -75 -97.5 -108.5t-173.5 -33.5q-119 0 -177 57.5t-42 170.5l22 161q17 116 94.5 173.5t189.5 57.5q113 0 172.5 -58.5t42.5 -179.5l-13 -92h-400l-9 -63q-10 -75 23 -108.5t108 -33.5q72 0 107.5 20t58.5 65zM197 379l-3 -24h300l2 15q11 81 -21 118
t-107 37t-117.5 -35.5t-53.5 -110.5zM394 700l-167 200h150l108 -200h-91z" />
    <glyph glyph-name="eacute" unicode="&#xe9;" 
d="M565 132q-38 -75 -97.5 -108.5t-173.5 -33.5q-119 0 -177 57.5t-42 170.5l22 161q17 116 94.5 173.5t189.5 57.5q113 0 172.5 -58.5t42.5 -179.5l-13 -92h-400l-9 -63q-10 -75 23 -108.5t108 -33.5q72 0 107.5 20t58.5 65zM197 379l-3 -24h300l2 15q11 81 -21 118
t-107 37t-117.5 -35.5t-53.5 -110.5zM279 700l164 200h150l-223 -200h-91z" />
    <glyph glyph-name="ecircumflex" unicode="&#xea;" 
d="M565 132q-38 -75 -97.5 -108.5t-173.5 -33.5q-119 0 -177 57.5t-42 170.5l22 161q17 116 94.5 173.5t189.5 57.5q113 0 172.5 -58.5t42.5 -179.5l-13 -92h-400l-9 -63q-10 -75 23 -108.5t108 -33.5q72 0 107.5 20t58.5 65zM197 379l-3 -24h300l2 15q11 81 -21 118
t-107 37t-117.5 -35.5t-53.5 -110.5zM221 704l-29 64l195 149h72l155 -149l-47 -64l-158 116z" />
    <glyph glyph-name="edieresis" unicode="&#xeb;" 
d="M565 132q-38 -75 -97.5 -108.5t-173.5 -33.5q-119 0 -177 57.5t-42 170.5l22 161q17 116 94.5 173.5t189.5 57.5q113 0 172.5 -58.5t42.5 -179.5l-13 -92h-400l-9 -63q-10 -75 23 -108.5t108 -33.5q72 0 107.5 20t58.5 65zM197 379l-3 -24h300l2 15q11 81 -21 118
t-107 37t-117.5 -35.5t-53.5 -110.5zM280 710q-29 0 -45.5 12t-11.5 45l1 7q5 34 24.5 46.5t48.5 12.5t45.5 -12.5t11.5 -46.5l-1 -7q-5 -33 -25 -45t-48 -12zM510 710q-29 0 -45.5 12t-11.5 45l1 7q5 34 24.5 46.5t48.5 12.5t45.5 -12.5t11.5 -46.5l-1 -7q-5 -33 -25 -45
t-48 -12z" />
    <glyph glyph-name="igrave" unicode="&#xec;" 
d="M44 0l13 90h200l59 420h-200l12 90h300l-71 -510h200l-13 -90h-500zM393 700l-167 200h150l108 -200h-91z" />
    <glyph glyph-name="iacute" unicode="&#xed;" 
d="M44 0l13 90h200l59 420h-200l12 90h300l-71 -510h200l-13 -90h-500zM278 700l164 200h150l-223 -200h-91z" />
    <glyph glyph-name="icircumflex" unicode="&#xee;" 
d="M44 0l13 90h200l59 420h-200l12 90h300l-71 -510h200l-13 -90h-500zM220 704l-29 64l195 149h72l155 -149l-47 -64l-158 116z" />
    <glyph glyph-name="idieresis" unicode="&#xef;" 
d="M44 0l13 90h200l59 420h-200l12 90h300l-71 -510h200l-13 -90h-500zM279 710q-29 0 -45.5 12t-11.5 45l1 7q5 34 24.5 46.5t48.5 12.5t45.5 -12.5t11.5 -46.5l-1 -7q-5 -33 -25 -45t-48 -12zM509 710q-29 0 -45.5 12t-11.5 45l1 7q5 34 24.5 46.5t48.5 12.5t45.5 -12.5
t11.5 -46.5l-1 -7q-5 -33 -25 -45t-48 -12z" />
    <glyph glyph-name="eth" unicode="&#xf0;" 
d="M293 -10q-112 0 -173 57t-45 173l10 72q14 96 85 152t172 56q63 0 100 -22t49 -52h22q5 64 -4 114t-34 87l-205 -87l11 80l143 60q-30 22 -71.5 40t-93.5 32l35 69q73 -20 126 -46t90 -58l196 83l-11 -80l-137 -58q35 -54 43.5 -124.5t-4.5 -160.5l-21 -151
q-18 -123 -94.5 -179.5t-188.5 -56.5zM306 80q81 0 120 34.5t49 103.5l8 63q9 64 -20.5 96t-110.5 32t-119.5 -32t-47.5 -96l-8 -63q-10 -69 19 -103.5t110 -34.5z" />
    <glyph glyph-name="ntilde" unicode="&#xf1;" 
d="M44 0l84 600h100l-14 -100h30q29 51 80.5 80.5t111.5 29.5q90 0 134 -55t31 -150l-57 -405h-100l54 385q9 63 -17 96.5t-83 33.5q-45 0 -95 -27t-101 -78l-58 -410h-100zM493 710q-34 0 -55 18t-36 40q-15 21 -28 39t-31 18q-19 0 -35.5 -18.5t-23.5 -75.5l-2 -11h-77
l2 15q11 75 52 125t104 50q38 0 60 -18t36 -39q14 -22 25.5 -40t28.5 -18q19 0 35 18.5t24 75.5l1 11h77l-2 -15q-10 -76 -51 -125.5t-104 -49.5z" />
    <glyph glyph-name="ograve" unicode="&#xf2;" 
d="M293 -10q-121 0 -177.5 58.5t-41.5 168.5l23 162q16 111 89.5 171t194.5 60q120 0 176 -60t40 -171l-23 -162q-15 -110 -87.5 -168.5t-193.5 -58.5zM305 80q76 0 118 34t51 103l23 162q10 72 -22 106.5t-108 34.5t-118 -34.5t-52 -106.5l-23 -162q-9 -69 23 -103t108 -34
zM393 700l-167 200h150l108 -200h-91z" />
    <glyph glyph-name="oacute" unicode="&#xf3;" 
d="M293 -10q-121 0 -177.5 58.5t-41.5 168.5l23 162q16 111 89.5 171t194.5 60q120 0 176 -60t40 -171l-23 -162q-15 -110 -87.5 -168.5t-193.5 -58.5zM305 80q76 0 118 34t51 103l23 162q10 72 -22 106.5t-108 34.5t-118 -34.5t-52 -106.5l-23 -162q-9 -69 23 -103t108 -34
zM278 700l164 200h150l-223 -200h-91z" />
    <glyph glyph-name="ocircumflex" unicode="&#xf4;" 
d="M293 -10q-121 0 -177.5 58.5t-41.5 168.5l23 162q16 111 89.5 171t194.5 60q120 0 176 -60t40 -171l-23 -162q-15 -110 -87.5 -168.5t-193.5 -58.5zM305 80q76 0 118 34t51 103l23 162q10 72 -22 106.5t-108 34.5t-118 -34.5t-52 -106.5l-23 -162q-9 -69 23 -103t108 -34
zM220 704l-29 64l195 149h72l155 -149l-47 -64l-158 116z" />
    <glyph glyph-name="otilde" unicode="&#xf5;" 
d="M293 -10q-121 0 -177.5 58.5t-41.5 168.5l23 162q16 111 89.5 171t194.5 60q120 0 176 -60t40 -171l-23 -162q-15 -110 -87.5 -168.5t-193.5 -58.5zM305 80q76 0 118 34t51 103l23 162q10 72 -22 106.5t-108 34.5t-118 -34.5t-52 -106.5l-23 -162q-9 -69 23 -103t108 -34
zM473 710q-34 0 -55 18t-36 40q-15 21 -28 39t-31 18q-19 0 -35.5 -18.5t-23.5 -75.5l-2 -11h-77l2 15q11 75 52 125t104 50q38 0 60 -18t36 -39q14 -22 25.5 -40t28.5 -18q19 0 35 18.5t24 75.5l1 11h77l-2 -15q-10 -76 -51 -125.5t-104 -49.5z" />
    <glyph glyph-name="odieresis" unicode="&#xf6;" 
d="M293 -10q-121 0 -177.5 58.5t-41.5 168.5l23 162q16 111 89.5 171t194.5 60q120 0 176 -60t40 -171l-23 -162q-15 -110 -87.5 -168.5t-193.5 -58.5zM305 80q76 0 118 34t51 103l23 162q10 72 -22 106.5t-108 34.5t-118 -34.5t-52 -106.5l-23 -162q-9 -69 23 -103t108 -34
zM279 710q-29 0 -45.5 12t-11.5 45l1 7q5 34 24.5 46.5t48.5 12.5t45.5 -12.5t11.5 -46.5l-1 -7q-5 -33 -25 -45t-48 -12zM509 710q-29 0 -45.5 12t-11.5 45l1 7q5 34 24.5 46.5t48.5 12.5t45.5 -12.5t11.5 -46.5l-1 -7q-5 -33 -25 -45t-48 -12z" />
    <glyph glyph-name="divide" unicode="&#xf7;" 
d="M368 526q-38 0 -60 15.5t-17 48.5l2 17q5 34 31.5 50t64.5 16t59 -16t16 -50l-2 -17q-5 -33 -31 -48.5t-63 -15.5zM56 300l14 100h560l-14 -100h-560zM298 26q-38 0 -60 15.5t-17 48.5l2 17q5 34 31 50t64 16t59.5 -16t16.5 -50l-2 -17q-5 -33 -31 -48.5t-63 -15.5z" />
    <glyph glyph-name="oslash" unicode="&#xf8;" 
d="M174 217q-4 -29 -1 -52t13 -39l246 386q-13 4 -29.5 6t-35.5 2q-78 0 -118.5 -34t-51.5 -107zM305 80q78 0 119 33t50 104l23 162q4 30 1.5 53.5t-12.5 39.5l-247 -384q14 -4 30.5 -6t35.5 -2zM293 -10q-27 0 -52 3t-46 10l-65 -103h-100l92 143q-30 28 -43 71.5
t-5 102.5l23 162q17 117 94.5 174t189.5 57q27 0 51 -3t45 -10l65 103h100l-92 -143q30 -28 43 -73t4 -105l-23 -162q-16 -116 -92.5 -171.5t-188.5 -55.5z" />
    <glyph glyph-name="ugrave" unicode="&#xf9;" 
d="M237 -10q-87 0 -133 56.5t-33 148.5l57 405h100l-54 -385q-9 -66 15.5 -98t84.5 -32q47 0 95 25.5t102 79.5l57 410h100l-84 -600h-100l14 100h-30q-28 -49 -80.5 -79.5t-110.5 -30.5zM363 700l-167 200h150l108 -200h-91z" />
    <glyph glyph-name="uacute" unicode="&#xfa;" 
d="M237 -10q-87 0 -133 56.5t-33 148.5l57 405h100l-54 -385q-9 -66 15.5 -98t84.5 -32q47 0 95 25.5t102 79.5l57 410h100l-84 -600h-100l14 100h-30q-28 -49 -80.5 -79.5t-110.5 -30.5zM318 700l164 200h150l-223 -200h-91z" />
    <glyph glyph-name="ucircumflex" unicode="&#xfb;" 
d="M237 -10q-87 0 -133 56.5t-33 148.5l57 405h100l-54 -385q-9 -66 15.5 -98t84.5 -32q47 0 95 25.5t102 79.5l57 410h100l-84 -600h-100l14 100h-30q-28 -49 -80.5 -79.5t-110.5 -30.5zM220 704l-29 64l195 149h72l155 -149l-47 -64l-158 116z" />
    <glyph glyph-name="udieresis" unicode="&#xfc;" 
d="M237 -10q-87 0 -133 56.5t-33 148.5l57 405h100l-54 -385q-9 -66 15.5 -98t84.5 -32q47 0 95 25.5t102 79.5l57 410h100l-84 -600h-100l14 100h-30q-28 -49 -80.5 -79.5t-110.5 -30.5zM279 710q-29 0 -45.5 12t-11.5 45l1 7q5 34 24.5 46.5t48.5 12.5t45.5 -12.5
t11.5 -46.5l-1 -7q-5 -33 -25 -45t-48 -12zM509 710q-29 0 -45.5 12t-11.5 45l1 7q5 34 24.5 46.5t48.5 12.5t45.5 -12.5t11.5 -46.5l-1 -7q-5 -33 -25 -45t-48 -12z" />
    <glyph glyph-name="yacute" unicode="&#xfd;" 
d="M87 -206q-24 0 -46.5 3t-45.5 8l29 89q25 -6 47 -9t41 -3q46 0 85.5 26t66.5 83l4 9h-37l-129 600h109l97 -516l240 516h105l-307 -620q-47 -97 -112 -141.5t-147 -44.5zM278 700l164 200h150l-223 -200h-91z" />
    <glyph glyph-name="thorn" unicode="&#xfe;" 
d="M296 78q82 0 125.5 34.5t53.5 108.5l23 162q10 69 -15 100.5t-87 31.5q-49 0 -96.5 -25.5t-97.5 -79.5l-42 -294q31 -19 63.5 -28.5t72.5 -9.5zM285 -10q-35 0 -72 7.5t-66 20.5l-31 -218h-100l140 1000h100l-42 -300h30q32 51 84 80.5t107 29.5q90 0 133.5 -61.5
t29.5 -166.5l-23 -163q-15 -105 -93 -167t-197 -62z" />
    <glyph glyph-name="ydieresis" unicode="&#xff;" 
d="M87 -206q-24 0 -46.5 3t-45.5 8l29 89q25 -6 47 -9t41 -3q46 0 85.5 26t66.5 83l4 9h-37l-129 600h109l97 -516l240 516h105l-307 -620q-47 -97 -112 -141.5t-147 -44.5zM279 710q-29 0 -45.5 12t-11.5 45l1 7q5 34 24.5 46.5t48.5 12.5t45.5 -12.5t11.5 -46.5l-1 -7
q-5 -33 -25 -45t-48 -12zM509 710q-29 0 -45.5 12t-11.5 45l1 7q5 34 24.5 46.5t48.5 12.5t45.5 -12.5t11.5 -46.5l-1 -7q-5 -33 -25 -45t-48 -12z" />
    <glyph glyph-name="Amacron" unicode="&#x100;" 
d="M448 320l-58 367l-163 -367h221zM499 0l-37 230h-275l-101 -230h-102l370 800h105l146 -800h-106zM225 955l13 90h400l-13 -90h-400z" />
    <glyph glyph-name="amacron" unicode="&#x101;" 
d="M233 76q52 0 98.5 18.5t84.5 64.5l14 96h-180q-43 0 -74.5 -19.5t-38.5 -68.5q-6 -43 15.5 -67t80.5 -24zM208 -10q-76 0 -130 40.5t-41 130.5q11 79 68.5 124t126.5 45h208l12 86q7 48 -21 76t-93 28q-66 0 -101 -19.5t-64 -86.5l-84 24q29 85 94.5 128.5t165.5 43.5
q99 0 158.5 -44.5t46.5 -137.5l-38 -268q-7 -54 21 -67.5t90 -3.5l-13 -92q-64 -9 -116 8.5t-46 94.5h-20q-34 -46 -94.5 -78t-129.5 -32zM180 755l13 90h400l-13 -90h-400z" />
    <glyph glyph-name="Abreve" unicode="&#x102;" 
d="M448 320l-58 367l-163 -367h221zM499 0l-37 230h-275l-101 -230h-102l370 800h105l146 -800h-106zM416 893q-97 0 -157 47t-45 163h100q-9 -72 19 -101.5t94 -29.5t103 29.5t48 101.5h100q-17 -116 -91 -163t-171 -47z" />
    <glyph glyph-name="abreve" unicode="&#x103;" 
d="M233 76q52 0 98.5 18.5t84.5 64.5l14 96h-180q-43 0 -74.5 -19.5t-38.5 -68.5q-6 -43 15.5 -67t80.5 -24zM208 -10q-76 0 -130 40.5t-41 130.5q11 79 68.5 124t126.5 45h208l12 86q7 48 -21 76t-93 28q-66 0 -101 -19.5t-64 -86.5l-84 24q29 85 94.5 128.5t165.5 43.5
q99 0 158.5 -44.5t46.5 -137.5l-38 -268q-7 -54 21 -67.5t90 -3.5l-13 -92q-64 -9 -116 8.5t-46 94.5h-20q-34 -46 -94.5 -78t-129.5 -32zM371 693q-97 0 -157 47t-45 163h100q-9 -72 19 -101.5t94 -29.5t103 29.5t48 101.5h100q-17 -116 -91 -163t-171 -47z" />
    <glyph glyph-name="Aogonek" unicode="&#x104;" 
d="M448 320l-58 367l-163 -367h221zM499 0l-37 230h-275l-101 -230h-102l370 800h105l146 -800h-106zM536 -215q-63 0 -102 31.5t-31 87.5q6 49 49.5 87t92.5 56l23 -24q-37 -21 -53 -46t-19 -45q-3 -28 13 -42.5t50 -14.5q18 0 46 3t45 7l-13 -90q-19 -4 -48.5 -7t-52.5 -3
z" />
    <glyph glyph-name="aogonek" unicode="&#x105;" 
d="M233 76q52 0 98.5 18.5t84.5 64.5l14 96h-180q-43 0 -74.5 -19.5t-38.5 -68.5q-6 -43 15.5 -67t80.5 -24zM208 -10q-76 0 -130 40.5t-41 130.5q11 79 68.5 124t126.5 45h208l12 86q7 48 -21 76t-93 28q-66 0 -101 -19.5t-64 -86.5l-84 24q29 85 94.5 128.5t165.5 43.5
q99 0 158.5 -44.5t46.5 -137.5l-38 -268q-7 -54 21 -67.5t90 -3.5l-13 -92q-64 -9 -116 8.5t-46 94.5h-20q-34 -46 -94.5 -78t-129.5 -32zM514 -215q-63 0 -102 31.5t-31 87.5q6 49 49.5 87t92.5 56l23 -24q-37 -21 -53 -46t-19 -45q-3 -28 13 -42.5t50 -14.5q18 0 46 3
t45 7l-13 -90q-19 -4 -48.5 -7t-52.5 -3z" />
    <glyph glyph-name="Cacute" unicode="&#x106;" 
d="M303 -10q-140 0 -200 71.5t-40 215.5l34 242q20 146 100.5 218.5t221.5 72.5q138 0 195.5 -64.5t45.5 -206.5l-102 -10q6 108 -27 149.5t-126 41.5q-99 0 -146 -45.5t-62 -155.5l-34 -242q-15 -108 19 -152.5t133 -44.5q93 0 137.5 40.5t69.5 146.5l98 -10
q-28 -140 -103 -203.5t-214 -63.5zM352 900l164 200h150l-223 -200h-91z" />
    <glyph glyph-name="cacute" unicode="&#x107;" 
d="M307 -10q-131 0 -189.5 57.5t-43.5 169.5l23 162q16 114 91 172.5t205 58.5q116 0 171 -52.5t48 -153.5l-99 -6q5 62 -28 92t-106 30q-82 0 -127 -34.5t-55 -106.5l-23 -162q-9 -69 26.5 -103t118.5 -34q72 0 112.5 25.5t51.5 76.5l97 -6q-20 -92 -88.5 -139t-184.5 -47z
M284 700l164 200h150l-223 -200h-91z" />
    <glyph glyph-name="Ccircumflex" unicode="&#x108;" 
d="M303 -10q-140 0 -200 71.5t-40 215.5l34 242q20 146 100.5 218.5t221.5 72.5q138 0 195.5 -64.5t45.5 -206.5l-102 -10q6 108 -27 149.5t-126 41.5q-99 0 -146 -45.5t-62 -155.5l-34 -242q-15 -108 19 -152.5t133 -44.5q93 0 137.5 40.5t69.5 146.5l98 -10
q-28 -140 -103 -203.5t-214 -63.5zM254 904l-29 64l195 149h72l155 -149l-47 -64l-158 116z" />
    <glyph glyph-name="ccircumflex" unicode="&#x109;" 
d="M307 -10q-131 0 -189.5 57.5t-43.5 169.5l23 162q16 114 91 172.5t205 58.5q116 0 171 -52.5t48 -153.5l-99 -6q5 62 -28 92t-106 30q-82 0 -127 -34.5t-55 -106.5l-23 -162q-9 -69 26.5 -103t118.5 -34q72 0 112.5 25.5t51.5 76.5l97 -6q-20 -92 -88.5 -139t-184.5 -47z
M236 704l-29 64l195 149h72l155 -149l-47 -64l-158 116z" />
    <glyph glyph-name="Cdotaccent" unicode="&#x10a;" 
d="M303 -10q-140 0 -200 71.5t-40 215.5l34 242q20 146 100.5 218.5t221.5 72.5q138 0 195.5 -64.5t45.5 -206.5l-102 -10q6 108 -27 149.5t-126 41.5q-99 0 -146 -45.5t-62 -155.5l-34 -242q-15 -108 19 -152.5t133 -44.5q93 0 137.5 40.5t69.5 146.5l98 -10
q-28 -140 -103 -203.5t-214 -63.5zM428 910q-38 0 -60 12t-17 45l1 7q5 34 30 46.5t63 12.5t60 -12.5t17 -46.5l-1 -7q-5 -33 -30.5 -45t-62.5 -12z" />
    <glyph glyph-name="cdotaccent" unicode="&#x10b;" 
d="M307 -10q-131 0 -189.5 57.5t-43.5 169.5l23 162q16 114 91 172.5t205 58.5q116 0 171 -52.5t48 -153.5l-99 -6q5 62 -28 92t-106 30q-82 0 -127 -34.5t-55 -106.5l-23 -162q-9 -69 26.5 -103t118.5 -34q72 0 112.5 25.5t51.5 76.5l97 -6q-20 -92 -88.5 -139t-184.5 -47z
M400 710q-38 0 -60 12t-17 45l1 7q5 34 30 46.5t63 12.5t60 -12.5t17 -46.5l-1 -7q-5 -33 -30.5 -45t-62.5 -12z" />
    <glyph glyph-name="Ccaron" unicode="&#x10c;" 
d="M303 -10q-140 0 -200 71.5t-40 215.5l34 242q20 146 100.5 218.5t221.5 72.5q138 0 195.5 -64.5t45.5 -206.5l-102 -10q6 108 -27 149.5t-126 41.5q-99 0 -146 -45.5t-62 -155.5l-34 -242q-15 -108 19 -152.5t133 -44.5q93 0 137.5 40.5t69.5 146.5l98 -10
q-28 -140 -103 -203.5t-214 -63.5zM392 904l-155 149l47 64l158 -116l188 116l29 -64l-195 -149h-72z" />
    <glyph glyph-name="ccaron" unicode="&#x10d;" 
d="M307 -10q-131 0 -189.5 57.5t-43.5 169.5l23 162q16 114 91 172.5t205 58.5q116 0 171 -52.5t48 -153.5l-99 -6q5 62 -28 92t-106 30q-82 0 -127 -34.5t-55 -106.5l-23 -162q-9 -69 26.5 -103t118.5 -34q72 0 112.5 25.5t51.5 76.5l97 -6q-20 -92 -88.5 -139t-184.5 -47z
M364 704l-155 149l47 64l158 -116l188 116l29 -64l-195 -149h-72z" />
    <glyph glyph-name="Dcaron" unicode="&#x10e;" 
d="M44 0l112 800h221q140 0 208.5 -79.5t50.5 -211.5l-32 -222q-18 -131 -109 -209t-231 -78h-220zM157 90h120q101 0 158 54.5t69 142.5l32 222q12 87 -29.5 144t-142.5 57h-120zM382 904l-155 149l47 64l158 -116l188 116l29 -64l-195 -149h-72z" />
    <glyph glyph-name="dcaron" unicode="&#x10f;" 
d="M276 85q49 0 96.5 26t98.5 79l41 294q-28 19 -62 28.5t-74 9.5q-81 0 -125 -35.5t-54 -107.5l-22 -161q-10 -67 15.5 -100t85.5 -33zM428 100q-33 -52 -83 -81t-107 -29q-93 0 -136 60t-27 168l23 163q15 109 91.5 169t198.5 60q35 0 71 -7.5t67 -20.5l30 218h100
l-112 -800h-100l14 100h-30zM711 705l122 295h147l-197 -295h-72z" />
    <glyph glyph-name="Dcroat" unicode="&#x110;" 
d="M44 0l56 395h-100l12 90h100l44 315h221q140 0 208.5 -79.5t50.5 -211.5l-32 -222q-18 -131 -109 -209t-231 -78h-220zM157 90h120q101 0 158 54.5t69 142.5l32 222q12 87 -29.5 144t-142.5 57h-120l-32 -225h150l-12 -90h-150z" />
    <glyph glyph-name="dcroat" unicode="&#x111;" 
d="M276 85q49 0 96.5 25.5t98.5 79.5l34 244q-28 19 -61 28.5t-75 9.5q-81 0 -123.5 -34.5t-53.5 -108.5l-14 -101q-10 -74 13.5 -108.5t84.5 -34.5zM428 100q-32 -51 -83.5 -80.5t-106.5 -29.5q-90 0 -134 61.5t-29 166.5l16 113q14 105 92.5 167t197.5 62q34 0 70 -8
t68 -21l14 99h-200l11 80h200l12 90h100l-12 -90h100l-11 -80h-100l-89 -630h-100l14 100h-30z" />
    <glyph glyph-name="Emacron" unicode="&#x112;" 
d="M44 0l112 800h520l-12 -90h-420l-33 -230h370l-12 -90h-370l-42 -300h420l-13 -90h-520zM244 955l13 90h400l-13 -90h-400z" />
    <glyph glyph-name="emacron" unicode="&#x113;" 
d="M565 132q-38 -75 -97.5 -108.5t-173.5 -33.5q-119 0 -177 57.5t-42 170.5l22 161q17 116 94.5 173.5t189.5 57.5q113 0 172.5 -58.5t42.5 -179.5l-13 -92h-400l-9 -63q-10 -75 23 -108.5t108 -33.5q72 0 107.5 20t58.5 65zM197 379l-3 -24h300l2 15q11 81 -21 118
t-107 37t-117.5 -35.5t-53.5 -110.5zM201 755l13 90h400l-13 -90h-400z" />
    <glyph glyph-name="Ebreve" unicode="&#x114;" 
d="M44 0l112 800h520l-12 -90h-420l-33 -230h370l-12 -90h-370l-42 -300h420l-13 -90h-520zM435 893q-97 0 -157 47t-45 163h100q-9 -72 19 -101.5t94 -29.5t103 29.5t48 101.5h100q-17 -116 -91 -163t-171 -47z" />
    <glyph glyph-name="ebreve" unicode="&#x115;" 
d="M565 132q-38 -75 -97.5 -108.5t-173.5 -33.5q-119 0 -177 57.5t-42 170.5l22 161q17 116 94.5 173.5t189.5 57.5q113 0 172.5 -58.5t42.5 -179.5l-13 -92h-400l-9 -63q-10 -75 23 -108.5t108 -33.5q72 0 107.5 20t58.5 65zM197 379l-3 -24h300l2 15q11 81 -21 118
t-107 37t-117.5 -35.5t-53.5 -110.5zM392 693q-97 0 -157 47t-45 163h100q-9 -72 19 -101.5t94 -29.5t103 29.5t48 101.5h100q-17 -116 -91 -163t-171 -47z" />
    <glyph glyph-name="Edotaccent" unicode="&#x116;" 
d="M44 0l112 800h520l-12 -90h-420l-33 -230h370l-12 -90h-370l-42 -300h420l-13 -90h-520zM438 910q-38 0 -60 12t-17 45l1 7q5 34 30 46.5t63 12.5t60 -12.5t17 -46.5l-1 -7q-5 -33 -30.5 -45t-62.5 -12z" />
    <glyph glyph-name="edotaccent" unicode="&#x117;" 
d="M565 132q-38 -75 -97.5 -108.5t-173.5 -33.5q-119 0 -177 57.5t-42 170.5l22 161q17 116 94.5 173.5t189.5 57.5q113 0 172.5 -58.5t42.5 -179.5l-13 -92h-400l-9 -63q-10 -75 23 -108.5t108 -33.5q72 0 107.5 20t58.5 65zM197 379l-3 -24h300l2 15q11 81 -21 118
t-107 37t-117.5 -35.5t-53.5 -110.5zM395 710q-38 0 -60 12t-17 45l1 7q5 34 30 46.5t63 12.5t60 -12.5t17 -46.5l-1 -7q-5 -33 -30.5 -45t-62.5 -12z" />
    <glyph glyph-name="Eogonek" unicode="&#x118;" 
d="M44 0l112 800h520l-12 -90h-420l-33 -230h370l-12 -90h-370l-42 -300h420l-13 -90h-520zM434 -215q-63 0 -102 31.5t-31 87.5q6 49 49.5 87t92.5 56l23 -24q-37 -21 -53 -46t-19 -45q-3 -28 13 -42.5t50 -14.5q18 0 46 3t45 7l-13 -90q-19 -4 -48.5 -7t-52.5 -3z" />
    <glyph glyph-name="eogonek" unicode="&#x119;" 
d="M565 132q-38 -75 -97.5 -108.5t-173.5 -33.5q-119 0 -177 57.5t-42 170.5l22 161q17 116 94.5 173.5t189.5 57.5q113 0 172.5 -58.5t42.5 -179.5l-13 -92h-400l-9 -63q-10 -75 23 -108.5t108 -33.5q72 0 107.5 20t58.5 65zM197 379l-3 -24h300l2 15q11 81 -21 118
t-107 37t-117.5 -35.5t-53.5 -110.5zM405 -215q-63 0 -102 31.5t-31 87.5q6 49 49.5 87t92.5 56l23 -24q-37 -21 -53 -46t-19 -45q-3 -28 13 -42.5t50 -14.5q18 0 46 3t45 7l-13 -90q-19 -4 -48.5 -7t-52.5 -3z" />
    <glyph glyph-name="Ecaron" unicode="&#x11a;" 
d="M44 0l112 800h520l-12 -90h-420l-33 -230h370l-12 -90h-370l-42 -300h420l-13 -90h-520zM412 904l-155 149l47 64l158 -116l188 116l29 -64l-195 -149h-72z" />
    <glyph glyph-name="ecaron" unicode="&#x11b;" 
d="M565 132q-38 -75 -97.5 -108.5t-173.5 -33.5q-119 0 -177 57.5t-42 170.5l22 161q17 116 94.5 173.5t189.5 57.5q113 0 172.5 -58.5t42.5 -179.5l-13 -92h-400l-9 -63q-10 -75 23 -108.5t108 -33.5q72 0 107.5 20t58.5 65zM197 379l-3 -24h300l2 15q11 81 -21 118
t-107 37t-117.5 -35.5t-53.5 -110.5zM359 704l-155 149l47 64l158 -116l188 116l29 -64l-195 -149h-72z" />
    <glyph glyph-name="Gcircumflex" unicode="&#x11c;" 
d="M313 -10q-140 0 -204.5 74.5t-45.5 212.5l34 242q20 140 103.5 215.5t218.5 75.5q123 0 178.5 -62t45.5 -189l-102 -10q5 93 -26.5 132t-109.5 39q-97 0 -145 -46.5t-63 -154.5l-34 -242q-15 -107 22.5 -152t139.5 -45q92 0 138.5 51.5t63.5 173.5h-190l13 90h290
l-16 -108q-20 -143 -100.5 -220t-210.5 -77zM264 904l-29 64l195 149h72l155 -149l-47 -64l-158 116z" />
    <glyph glyph-name="gcircumflex" unicode="&#x11d;" 
d="M587 -48q-11 -81 -76.5 -121.5t-151.5 -40.5h-188q-90 0 -143 36t-43 111q7 48 36.5 76.5t78.5 32.5l3 21q-34 6 -53 29t-13 71q7 43 38.5 77.5t96.5 39.5l3 19q-47 16 -59.5 48.5t-8.5 62.5l4 27q10 69 75 114t172 45h295l-12 -90l-152 23l-3 -18q39 -11 55 -42t12 -62
l-4 -26q-10 -69 -69 -111.5t-178 -42.5h-121q-27 0 -42.5 -13.5t-20.5 -45.5q-4 -31 13 -46.5t56 -15.5h227q84 0 134.5 -37t38.5 -121zM317 307q61 0 96 22t42 69l4 32q7 47 -22 68.5t-90 21.5t-96 -21.5t-42 -68.5l-4 -32q-7 -47 22 -69t90 -22zM181 -130h203
q45 0 75.5 17t35.5 59q6 40 -17 57t-63 17h-318l-10 -68q-6 -41 18.5 -61.5t75.5 -20.5zM210 704l-29 64l195 149h72l155 -149l-47 -64l-158 116z" />
    <glyph glyph-name="Gbreve" unicode="&#x11e;" 
d="M313 -10q-140 0 -204.5 74.5t-45.5 212.5l34 242q20 140 103.5 215.5t218.5 75.5q123 0 178.5 -62t45.5 -189l-102 -10q5 93 -26.5 132t-109.5 39q-97 0 -145 -46.5t-63 -154.5l-34 -242q-15 -107 22.5 -152t139.5 -45q92 0 138.5 51.5t63.5 173.5h-190l13 90h290
l-16 -108q-20 -143 -100.5 -220t-210.5 -77zM435 893q-97 0 -157 47t-45 163h100q-9 -72 19 -101.5t94 -29.5t103 29.5t48 101.5h100q-17 -116 -91 -163t-171 -47z" />
    <glyph glyph-name="gbreve" unicode="&#x11f;" 
d="M587 -48q-11 -81 -76.5 -121.5t-151.5 -40.5h-188q-90 0 -143 36t-43 111q7 48 36.5 76.5t78.5 32.5l3 21q-34 6 -53 29t-13 71q7 43 38.5 77.5t96.5 39.5l3 19q-47 16 -59.5 48.5t-8.5 62.5l4 27q10 69 75 114t172 45h295l-12 -90l-152 23l-3 -18q39 -11 55 -42t12 -62
l-4 -26q-10 -69 -69 -111.5t-178 -42.5h-121q-27 0 -42.5 -13.5t-20.5 -45.5q-4 -31 13 -46.5t56 -15.5h227q84 0 134.5 -37t38.5 -121zM317 307q61 0 96 22t42 69l4 32q7 47 -22 68.5t-90 21.5t-96 -21.5t-42 -68.5l-4 -32q-7 -47 22 -69t90 -22zM181 -130h203
q45 0 75.5 17t35.5 59q6 40 -17 57t-63 17h-318l-10 -68q-6 -41 18.5 -61.5t75.5 -20.5zM391 693q-97 0 -157 47t-45 163h100q-9 -72 19 -101.5t94 -29.5t103 29.5t48 101.5h100q-17 -116 -91 -163t-171 -47z" />
    <glyph glyph-name="Gdotaccent" unicode="&#x120;" 
d="M313 -10q-140 0 -204.5 74.5t-45.5 212.5l34 242q20 140 103.5 215.5t218.5 75.5q123 0 178.5 -62t45.5 -189l-102 -10q5 93 -26.5 132t-109.5 39q-97 0 -145 -46.5t-63 -154.5l-34 -242q-15 -107 22.5 -152t139.5 -45q92 0 138.5 51.5t63.5 173.5h-190l13 90h290
l-16 -108q-20 -143 -100.5 -220t-210.5 -77zM428 910q-38 0 -60 12t-17 45l1 7q5 34 30 46.5t63 12.5t60 -12.5t17 -46.5l-1 -7q-5 -33 -30.5 -45t-62.5 -12z" />
    <glyph glyph-name="gdotaccent" unicode="&#x121;" 
d="M587 -48q-11 -81 -76.5 -121.5t-151.5 -40.5h-188q-90 0 -143 36t-43 111q7 48 36.5 76.5t78.5 32.5l3 21q-34 6 -53 29t-13 71q7 43 38.5 77.5t96.5 39.5l3 19q-47 16 -59.5 48.5t-8.5 62.5l4 27q10 69 75 114t172 45h295l-12 -90l-152 23l-3 -18q39 -11 55 -42t12 -62
l-4 -26q-10 -69 -69 -111.5t-178 -42.5h-121q-27 0 -42.5 -13.5t-20.5 -45.5q-4 -31 13 -46.5t56 -15.5h227q84 0 134.5 -37t38.5 -121zM317 307q61 0 96 22t42 69l4 32q7 47 -22 68.5t-90 21.5t-96 -21.5t-42 -68.5l-4 -32q-7 -47 22 -69t90 -22zM181 -130h203
q45 0 75.5 17t35.5 59q6 40 -17 57t-63 17h-318l-10 -68q-6 -41 18.5 -61.5t75.5 -20.5zM394 710q-38 0 -60 12t-17 45l1 7q5 34 30 46.5t63 12.5t60 -12.5t17 -46.5l-1 -7q-5 -33 -30.5 -45t-62.5 -12z" />
    <glyph glyph-name="Gcommaaccent" unicode="&#x122;" 
d="M313 -10q-140 0 -204.5 74.5t-45.5 212.5l34 242q20 140 103.5 215.5t218.5 75.5q123 0 178.5 -62t45.5 -189l-102 -10q5 93 -26.5 132t-109.5 39q-97 0 -145 -46.5t-63 -154.5l-34 -242q-15 -107 22.5 -152t139.5 -45q92 0 138.5 51.5t63.5 173.5h-190l13 90h290
l-16 -108q-20 -143 -100.5 -220t-210.5 -77zM128 -300l124 200h150l-183 -200h-91z" />
    <glyph glyph-name="gcommaaccent" unicode="&#x123;" 
d="M587 -48q-11 -81 -76.5 -121.5t-151.5 -40.5h-188q-90 0 -143 36t-43 111q7 48 36.5 76.5t78.5 32.5l3 21q-34 6 -53 29t-13 71q7 43 38.5 77.5t96.5 39.5l3 19q-47 16 -59.5 48.5t-8.5 62.5l4 27q10 69 75 114t172 45h295l-12 -90l-152 23l-3 -18q39 -11 55 -42t12 -62
l-4 -26q-10 -69 -69 -111.5t-178 -42.5h-121q-27 0 -42.5 -13.5t-20.5 -45.5q-4 -31 13 -46.5t56 -15.5h227q84 0 134.5 -37t38.5 -121zM317 307q61 0 96 22t42 69l4 32q7 47 -22 68.5t-90 21.5t-96 -21.5t-42 -68.5l-4 -32q-7 -47 22 -69t90 -22zM181 -130h203
q45 0 75.5 17t35.5 59q6 40 -17 57t-63 17h-318l-10 -68q-6 -41 18.5 -61.5t75.5 -20.5zM298 700l183 200h91l-124 -200h-150z" />
    <glyph glyph-name="Hcircumflex" unicode="&#x124;" 
d="M44 0l112 800h100l-45 -320h300l45 320h100l-112 -800h-100l55 390h-300l-55 -390h-100zM244 904l-29 64l195 149h72l155 -149l-47 -64l-158 116z" />
    <glyph glyph-name="hcircumflex" unicode="&#x125;" 
d="M44 0l112 800h100l-42 -300h30q29 51 80.5 80.5t111.5 29.5q90 0 134 -55t31 -149l-57 -406h-100l54 385q9 63 -17 96.5t-83 33.5q-45 0 -95 -27t-101 -78l-58 -410h-100zM60 904l-29 64l195 149h72l155 -149l-47 -64l-158 116z" />
    <glyph glyph-name="Hbar" unicode="&#x126;" 
d="M204 430h300l19 130h-300zM192 340l-48 -340h-100l79 560h-100l12 90h100l21 150h100l-21 -150h300l21 150h100l-21 -150h100l-12 -90h-100l-79 -560h-100l48 340h-300z" />
    <glyph glyph-name="hbar" unicode="&#x127;" 
d="M195 360l-51 -360h-100l89 630h-100l11 80h100l12 90h100l-12 -90h200l-11 -80h-200l-26 -180h30q29 51 83 80.5t117 29.5q86 0 129 -49t31 -133l-53 -378h-100l50 354q8 56 -17.5 83.5t-85.5 27.5q-46 0 -94.5 -26t-101.5 -79z" />
    <glyph glyph-name="Itilde" unicode="&#x128;" 
d="M44 0l13 90h200l87 620h-200l12 90h500l-12 -90h-200l-87 -620h200l-13 -90h-500zM497 910q-34 0 -55 18t-36 40q-15 21 -28 39t-31 18q-19 0 -35.5 -18.5t-23.5 -75.5l-2 -11h-77l2 15q11 75 52 125t104 50q38 0 60 -18t36 -39q14 -22 25.5 -40t28.5 -18q19 0 35 18.5
t24 75.5l1 11h77l-2 -15q-10 -76 -51 -125.5t-104 -49.5z" />
    <glyph glyph-name="itilde" unicode="&#x129;" 
d="M44 0l13 90h200l59 420h-200l12 90h300l-71 -510h200l-13 -90h-500zM473 710q-34 0 -55 18t-36 40q-15 21 -28 39t-31 18q-19 0 -35.5 -18.5t-23.5 -75.5l-2 -11h-77l2 15q11 75 52 125t104 50q38 0 60 -18t36 -39q14 -22 25.5 -40t28.5 -18q19 0 35 18.5t24 75.5l1 11
h77l-2 -15q-10 -76 -51 -125.5t-104 -49.5z" />
    <glyph glyph-name="Imacron" unicode="&#x12a;" 
d="M44 0l13 90h200l87 620h-200l12 90h500l-12 -90h-200l-87 -620h200l-13 -90h-500zM224 955l13 90h400l-13 -90h-400z" />
    <glyph glyph-name="imacron" unicode="&#x12b;" 
d="M44 0l13 90h200l59 420h-200l12 90h300l-71 -510h200l-13 -90h-500zM200 755l13 90h400l-13 -90h-400z" />
    <glyph glyph-name="Ibreve" unicode="&#x12c;" 
d="M44 0l13 90h200l87 620h-200l12 90h500l-12 -90h-200l-87 -620h200l-13 -90h-500zM415 893q-97 0 -157 47t-45 163h100q-9 -72 19 -101.5t94 -29.5t103 29.5t48 101.5h100q-17 -116 -91 -163t-171 -47z" />
    <glyph glyph-name="ibreve" unicode="&#x12d;" 
d="M44 0l13 90h200l59 420h-200l12 90h300l-71 -510h200l-13 -90h-500zM391 693q-97 0 -157 47t-45 163h100q-9 -72 19 -101.5t94 -29.5t103 29.5t48 101.5h100q-17 -116 -91 -163t-171 -47z" />
    <glyph glyph-name="Iogonek" unicode="&#x12e;" 
d="M44 0l13 90h200l87 620h-200l12 90h500l-12 -90h-200l-87 -620h200l-13 -90h-500zM339 -215q-63 0 -102 31.5t-31 87.5q6 49 49.5 87t92.5 56l23 -24q-37 -21 -53 -46t-19 -45q-3 -28 13 -42.5t50 -14.5q18 0 46 3t45 7l-13 -90q-19 -4 -48.5 -7t-52.5 -3z" />
    <glyph glyph-name="iogonek" unicode="&#x12f;" 
d="M44 0l13 90h200l59 420h-200l12 90h300l-71 -510h200l-13 -90h-500zM394 710q-38 0 -60 12t-17 45l1 7q5 34 30 46.5t63 12.5t60 -12.5t17 -46.5l-1 -7q-5 -33 -30.5 -45t-62.5 -12zM359 -215q-63 0 -102 31.5t-31 87.5q6 49 49.5 87t92.5 56l23 -24q-37 -21 -53 -46
t-19 -45q-3 -28 13 -42.5t50 -14.5q18 0 46 3t45 7l-13 -90q-19 -4 -48.5 -7t-52.5 -3z" />
    <glyph glyph-name="Idotaccent" unicode="&#x130;" 
d="M44 0l13 90h200l87 620h-200l12 90h500l-12 -90h-200l-87 -620h200l-13 -90h-500zM418 910q-38 0 -60 12t-17 45l1 7q5 34 30 46.5t63 12.5t60 -12.5t17 -46.5l-1 -7q-5 -33 -30.5 -45t-62.5 -12z" />
    <glyph glyph-name="dotlessi" unicode="&#x131;" 
d="M44 0l13 90h200l59 420h-200l12 90h300l-71 -510h200l-13 -90h-500z" />
    <glyph glyph-name="IJ" unicode="&#x132;" 
d="M104 0h-100l112 800h100zM383 -10q-87 0 -131.5 57t-30.5 210l102 11q-9 -112 4.5 -150t68.5 -38q59 0 86 46.5t37 112.5l66 471h-190l12 90h290l-78 -560q-17 -116 -74.5 -183t-161.5 -67z" />
    <glyph glyph-name="ij" unicode="&#x133;" 
d="M214 710q-38 0 -60 12t-17 45l1 7q5 34 30 46.5t63 12.5t60 -12.5t17 -46.5l-1 -7q-5 -33 -30.5 -45t-62.5 -12zM591 710q-38 0 -60 12t-17 45l1 7q5 34 30 46.5t63 12.5t60 -12.5t17 -46.5l-1 -7q-5 -33 -30.5 -45t-62.5 -12zM164 0h-100l84 600h100zM293 -208
q-34 0 -66 5t-68 17l33 96q31 -12 57 -17t54 -5q56 0 94.5 27.5t47.5 91.5l71 503h-130l12 90h230l-85 -606q-14 -103 -84.5 -152.5t-165.5 -49.5z" />
    <glyph glyph-name="Jcircumflex" unicode="&#x134;" 
d="M272 -10q-131 0 -187.5 65t-44.5 202l102 11q-9 -112 20.5 -150t122.5 -38q86 0 134.5 44.5t60.5 134.5l64 451h-200l12 90h300l-75 -540q-19 -131 -98 -200.5t-211 -69.5zM334 904l-29 64l195 149h72l155 -149l-47 -64l-158 116z" />
    <glyph glyph-name="jcircumflex" unicode="&#x135;" 
d="M173 -208q-38 0 -75.5 4.5t-78.5 17.5l33 96q36 -13 67.5 -17.5t63.5 -4.5q65 0 109 27.5t53 91.5l71 503h-280l12 90h380l-85 -606q-14 -103 -90.5 -152.5t-179.5 -49.5zM286 704l-29 64l195 149h72l155 -149l-47 -64l-158 116z" />
    <glyph glyph-name="Kcommaaccent" unicode="&#x136;" 
d="M197 380l-53 -380h-100l112 800h100l-46 -330h34l355 330h116l-394 -368l279 -432h-120l-246 380h-37zM118 -300l124 200h150l-183 -200h-91z" />
    <glyph glyph-name="kcommaaccent" unicode="&#x137;" 
d="M232 273l-38 -273h-100l112 800h100l-62 -443h51l226 243h122l-274 -279l187 -321h-114l-159 273h-51zM111 -300l124 200h150l-183 -200h-91z" />
    <glyph glyph-name="kgreenlandic" unicode="&#x138;" 
d="M232 273l-38 -273h-100l84 600h100l-34 -243h51l226 243h122l-274 -279l187 -321h-114l-159 273h-51z" />
    <glyph glyph-name="Lacute" unicode="&#x139;" 
d="M94 0l112 800h100l-99 -710h350l-13 -90h-450zM252 900l164 200h150l-223 -200h-91z" />
    <glyph glyph-name="lacute" unicode="&#x13a;" 
d="M44 0l13 90h200l87 620h-200l12 90h300l-99 -710h200l-13 -90h-500zM293 900l164 200h150l-223 -200h-91z" />
    <glyph glyph-name="Lcommaaccent" unicode="&#x13b;" 
d="M94 0l112 800h100l-99 -710h350l-13 -90h-450zM133 -300l124 200h150l-183 -200h-91z" />
    <glyph glyph-name="lcommaaccent" unicode="&#x13c;" 
d="M44 0l13 90h200l87 620h-200l12 90h300l-99 -710h200l-13 -90h-500zM93 -300l124 200h150l-183 -200h-91z" />
    <glyph glyph-name="Lcaron" unicode="&#x13d;" 
d="M94 0l112 800h100l-99 -710h350l-13 -90h-450zM425 505l122 295h147l-197 -295h-72z" />
    <glyph glyph-name="lcaron" unicode="&#x13e;" 
d="M44 0l13 90h200l87 620h-200l12 90h300l-99 -710h200l-13 -90h-500zM511 705l122 295h147l-197 -295h-72z" />
    <glyph glyph-name="Ldot" unicode="&#x13f;" 
d="M94 0l112 800h100l-99 -710h350l-13 -90h-450zM634 410q-38 0 -60 12t-17 45l1 7q5 34 30 46.5t63 12.5t60 -12.5t17 -46.5l-1 -7q-5 -33 -30.5 -45t-62.5 -12z" />
    <glyph glyph-name="ldot" unicode="&#x140;" 
d="M44 0l13 90h200l87 620h-200l12 90h300l-99 -710h200l-13 -90h-500zM714 310q-38 0 -60 12t-17 45l1 7q5 34 30 46.5t63 12.5t60 -12.5t17 -46.5l-1 -7q-5 -33 -30.5 -45t-62.5 -12z" />
    <glyph glyph-name="Lslash" unicode="&#x141;" 
d="M94 0l51 361l-105 -31l12 80l104 31l50 359h100l-46 -328l261 78l-11 -80l-261 -78l-42 -302h350l-13 -90h-450z" />
    <glyph glyph-name="lslash" unicode="&#x142;" 
d="M44 0l13 90h200l36 261l-155 -41l11 80l156 41l39 279h-200l12 90h300l-48 -342l156 42l-11 -80l-156 -42l-40 -288h200l-13 -90h-500z" />
    <glyph glyph-name="Nacute" unicode="&#x143;" 
d="M401 0l-172 674l-95 -674h-90l112 800h137l177 -689l96 689h90l-112 -800h-143zM322 900l164 200h150l-223 -200h-91z" />
    <glyph glyph-name="nacute" unicode="&#x144;" 
d="M44 0l84 600h100l-14 -100h30q29 51 80.5 80.5t111.5 29.5q90 0 134 -55t31 -150l-57 -405h-100l54 385q9 63 -17 96.5t-83 33.5q-45 0 -95 -27t-101 -78l-58 -410h-100zM298 700l164 200h150l-223 -200h-91z" />
    <glyph glyph-name="Ncommaaccent" unicode="&#x145;" 
d="M401 0l-172 674l-95 -674h-90l112 800h137l177 -689l96 689h90l-112 -800h-143zM98 -300l124 200h150l-183 -200h-91z" />
    <glyph glyph-name="ncommaaccent" unicode="&#x146;" 
d="M44 0l84 600h100l-14 -100h30q29 51 80.5 80.5t111.5 29.5q90 0 134 -55t31 -150l-57 -405h-100l54 385q9 63 -17 96.5t-83 33.5q-45 0 -95 -27t-101 -78l-58 -410h-100zM118 -300l124 200h150l-183 -200h-91z" />
    <glyph glyph-name="Ncaron" unicode="&#x147;" 
d="M401 0l-172 674l-95 -674h-90l112 800h137l177 -689l96 689h90l-112 -800h-143zM402 904l-155 149l47 64l158 -116l188 116l29 -64l-195 -149h-72z" />
    <glyph glyph-name="ncaron" unicode="&#x148;" 
d="M44 0l84 600h100l-14 -100h30q29 51 80.5 80.5t111.5 29.5q90 0 134 -55t31 -150l-57 -405h-100l54 385q9 63 -17 96.5t-83 33.5q-45 0 -95 -27t-101 -78l-58 -410h-100zM378 704l-155 149l47 64l158 -116l188 116l29 -64l-195 -149h-72z" />
    <glyph glyph-name="napostrophe" unicode="&#x149;" 
d="M44 0l84 600h100l-14 -100h30q29 51 80.5 80.5t111.5 29.5q90 0 134 -55t31 -150l-57 -405h-100l54 385q9 63 -17 96.5t-83 33.5q-45 0 -95 -27t-101 -78l-58 -410h-100zM28 700l164 200h150l-223 -200h-91z" />
    <glyph glyph-name="Eng" unicode="&#x14a;" 
d="M283 -208q-36 0 -73.5 9.5t-79.5 22.5l34 96q38 -15 68.5 -23.5t60.5 -8.5q60 0 103 39t56 130l73 517q10 76 -20 108.5t-79 32.5q-58 0 -100 -34t-99 -91l-83 -590h-100l112 800h100l-16 -120h30q34 60 88 95t114 35q87 0 128.5 -56.5t27.5 -155.5l-78 -554
q-18 -128 -93 -190t-174 -62z" />
    <glyph glyph-name="eng" unicode="&#x14b;" 
d="M313 -208q-29 0 -60.5 6t-63.5 16l33 96q27 -10 52.5 -16t48.5 -6q47 0 80 27.5t42 91.5l56 397q8 56 -17.5 83.5t-85.5 27.5q-46 0 -94.5 -26t-101.5 -79l-58 -410h-100l84 600h100l-14 -100h30q29 51 83 80.5t117 29.5q86 0 129 -49t31 -133l-61 -434
q-14 -103 -78.5 -152.5t-151.5 -49.5z" />
    <glyph glyph-name="Omacron" unicode="&#x14c;" 
d="M293 -10q-132 0 -191 73.5t-39 213.5l34 242q20 142 100 216.5t212 74.5q131 0 189.5 -74.5t38.5 -216.5l-34 -242q-20 -140 -99 -213.5t-211 -73.5zM305 80q92 0 137.5 45t60.5 152l34 242q15 109 -17.5 155t-124.5 46t-137.5 -46t-60.5 -155l-34 -242
q-15 -107 17.5 -152t124.5 -45zM224 955l13 90h400l-13 -90h-400z" />
    <glyph glyph-name="omacron" unicode="&#x14d;" 
d="M293 -10q-121 0 -177.5 58.5t-41.5 168.5l23 162q16 111 89.5 171t194.5 60q120 0 176 -60t40 -171l-23 -162q-15 -110 -87.5 -168.5t-193.5 -58.5zM305 80q76 0 118 34t51 103l23 162q10 72 -22 106.5t-108 34.5t-118 -34.5t-52 -106.5l-23 -162q-9 -69 23 -103t108 -34
zM200 755l13 90h400l-13 -90h-400z" />
    <glyph glyph-name="Obreve" unicode="&#x14e;" 
d="M293 -10q-132 0 -191 73.5t-39 213.5l34 242q20 142 100 216.5t212 74.5q131 0 189.5 -74.5t38.5 -216.5l-34 -242q-20 -140 -99 -213.5t-211 -73.5zM305 80q92 0 137.5 45t60.5 152l34 242q15 109 -17.5 155t-124.5 46t-137.5 -46t-60.5 -155l-34 -242
q-15 -107 17.5 -152t124.5 -45zM415 893q-97 0 -157 47t-45 163h100q-9 -72 19 -101.5t94 -29.5t103 29.5t48 101.5h100q-17 -116 -91 -163t-171 -47z" />
    <glyph glyph-name="obreve" unicode="&#x14f;" 
d="M293 -10q-121 0 -177.5 58.5t-41.5 168.5l23 162q16 111 89.5 171t194.5 60q120 0 176 -60t40 -171l-23 -162q-15 -110 -87.5 -168.5t-193.5 -58.5zM305 80q76 0 118 34t51 103l23 162q10 72 -22 106.5t-108 34.5t-118 -34.5t-52 -106.5l-23 -162q-9 -69 23 -103t108 -34
zM391 693q-97 0 -157 47t-45 163h100q-9 -72 19 -101.5t94 -29.5t103 29.5t48 101.5h100q-17 -116 -91 -163t-171 -47z" />
    <glyph glyph-name="Ohungarumlaut" unicode="&#x150;" 
d="M293 -10q-132 0 -191 73.5t-39 213.5l34 242q20 142 100 216.5t212 74.5q131 0 189.5 -74.5t38.5 -216.5l-34 -242q-20 -140 -99 -213.5t-211 -73.5zM305 80q92 0 137.5 45t60.5 152l34 242q15 109 -17.5 155t-124.5 46t-137.5 -46t-60.5 -155l-34 -242
q-15 -107 17.5 -152t124.5 -45zM472 900l84 200h140l-153 -200h-71zM242 900l84 200h140l-153 -200h-71z" />
    <glyph glyph-name="ohungarumlaut" unicode="&#x151;" 
d="M293 -10q-121 0 -177.5 58.5t-41.5 168.5l23 162q16 111 89.5 171t194.5 60q120 0 176 -60t40 -171l-23 -162q-15 -110 -87.5 -168.5t-193.5 -58.5zM305 80q76 0 118 34t51 103l23 162q10 72 -22 106.5t-108 34.5t-118 -34.5t-52 -106.5l-23 -162q-9 -69 23 -103t108 -34
zM448 700l84 200h140l-153 -200h-71zM218 700l84 200h140l-153 -200h-71z" />
    <glyph glyph-name="OE" unicode="&#x152;" 
d="M214 0q-122 0 -180 78t-40 209l32 222q18 132 97.5 211.5t201.5 79.5h431l-11 -80h-250l-34 -240h250l-11 -80h-250l-45 -320h250l-11 -80h-430zM225 80h90l90 640h-90q-87 0 -137 -59.5t-62 -151.5l-32 -222q-13 -93 20.5 -150t120.5 -57z" />
    <glyph glyph-name="oe" unicode="&#x153;" 
d="M634 134q-21 -74 -66 -109t-129 -35q-52 0 -87.5 19t-51.5 58q-28 -39 -67 -58t-85 -19q-78 0 -119 55.5t-25 171.5l23 162q17 117 74 174t135 57q46 0 79 -19t50 -58q27 39 66 58t85 19q84 0 127 -49.5t28 -153.5l-18 -127h-280l-13 -98q-9 -62 10 -89.5t68 -27.5
t71.5 15.5t36.5 61.5zM392 414l-10 -69h190l9 60q9 68 -10 99t-67 31q-47 0 -75 -29.5t-37 -91.5zM169 70q48 0 76.5 34.5t38.5 112.5l23 162q11 78 -7.5 114.5t-66.5 36.5q-47 0 -76 -36.5t-40 -114.5l-23 -162q-10 -78 9 -112.5t66 -34.5z" />
    <glyph glyph-name="Racute" unicode="&#x154;" 
d="M200 398h200q81 0 119.5 29.5t48.5 99.5l9 62q9 66 -21.5 93.5t-111.5 27.5h-200zM144 0h-100l112 800h301q125 0 180 -52.5t40 -158.5l-9 -62q-13 -96 -69.5 -150t-156.5 -64l161 -313h-114l-159 310h-142zM377 900l164 200h150l-223 -200h-91z" />
    <glyph glyph-name="racute" unicode="&#x155;" 
d="M94 0l84 600h100l-14 -100h30q29 57 76 83.5t108 26.5q67 0 105.5 -44.5t27.5 -125.5l-13 -90h-95l8 54q8 57 -14 84t-74 27q-47 0 -88.5 -23t-81.5 -72l-59 -420h-100zM318 700l164 200h150l-223 -200h-91z" />
    <glyph glyph-name="Rcommaaccent" unicode="&#x156;" 
d="M200 398h200q81 0 119.5 29.5t48.5 99.5l9 62q9 66 -21.5 93.5t-111.5 27.5h-200zM144 0h-100l112 800h301q125 0 180 -52.5t40 -158.5l-9 -62q-13 -96 -69.5 -150t-156.5 -64l161 -313h-114l-159 310h-142zM103 -300l124 200h150l-183 -200h-91z" />
    <glyph glyph-name="rcommaaccent" unicode="&#x157;" 
d="M94 0l84 600h100l-14 -100h30q29 57 76 83.5t108 26.5q67 0 105.5 -44.5t27.5 -125.5l-13 -90h-95l8 54q8 57 -14 84t-74 27q-47 0 -88.5 -23t-81.5 -72l-59 -420h-100zM-22 -300l124 200h150l-183 -200h-91z" />
    <glyph glyph-name="Rcaron" unicode="&#x158;" 
d="M200 398h200q81 0 119.5 29.5t48.5 99.5l9 62q9 66 -21.5 93.5t-111.5 27.5h-200zM144 0h-100l112 800h301q125 0 180 -52.5t40 -158.5l-9 -62q-13 -96 -69.5 -150t-156.5 -64l161 -313h-114l-159 310h-142zM387 904l-155 149l47 64l158 -116l188 116l29 -64l-195 -149
h-72z" />
    <glyph glyph-name="rcaron" unicode="&#x159;" 
d="M94 0l84 600h100l-14 -100h30q29 57 76 83.5t108 26.5q67 0 105.5 -44.5t27.5 -125.5l-13 -90h-95l8 54q8 57 -14 84t-74 27q-47 0 -88.5 -23t-81.5 -72l-59 -420h-100zM398 704l-155 149l47 64l158 -116l188 116l29 -64l-195 -149h-72z" />
    <glyph glyph-name="Sacute" unicode="&#x15a;" 
d="M306 -6q-90 0 -164 29t-125 106l82 68q34 -57 88.5 -85t134.5 -28q74 0 124.5 34.5t58.5 93.5q8 57 -27 87.5t-145 64.5q-140 42 -186 91t-34 139q15 104 92 157t176 53q84 0 155.5 -29.5t118.5 -104.5l-79 -69q-32 57 -88 85t-118 28q-63 0 -104.5 -25.5t-49.5 -85.5
q-8 -53 29.5 -83.5t154.5 -65.5q132 -40 176 -87.5t31 -137.5q-16 -115 -106.5 -175t-194.5 -60zM303 900l164 200h150l-223 -200h-91z" />
    <glyph glyph-name="sacute" unicode="&#x15b;" 
d="M301 -10q-76 0 -144 22.5t-121 69.5l56 79q43 -40 100.5 -60.5t120.5 -20.5q52 0 102 16t57 68q6 43 -30.5 61t-138.5 31q-108 13 -159 51.5t-40 121.5q13 90 87.5 135.5t164.5 45.5q71 0 133 -24t112 -68l-56 -79q-41 37 -92 59t-110 22q-48 0 -90 -18t-49 -66
q-5 -41 28.5 -59.5t135.5 -31.5q113 -13 164 -55.5t40 -118.5q-13 -94 -95 -137.5t-176 -43.5zM276 700l164 200h150l-223 -200h-91z" />
    <glyph glyph-name="Scircumflex" unicode="&#x15c;" 
d="M306 -6q-90 0 -164 29t-125 106l82 68q34 -57 88.5 -85t134.5 -28q74 0 124.5 34.5t58.5 93.5q8 57 -27 87.5t-145 64.5q-140 42 -186 91t-34 139q15 104 92 157t176 53q84 0 155.5 -29.5t118.5 -104.5l-79 -69q-32 57 -88 85t-118 28q-63 0 -104.5 -25.5t-49.5 -85.5
q-8 -53 29.5 -83.5t154.5 -65.5q132 -40 176 -87.5t31 -137.5q-16 -115 -106.5 -175t-194.5 -60zM245 904l-29 64l195 149h72l155 -149l-47 -64l-158 116z" />
    <glyph glyph-name="scircumflex" unicode="&#x15d;" 
d="M301 -10q-76 0 -144 22.5t-121 69.5l56 79q43 -40 100.5 -60.5t120.5 -20.5q52 0 102 16t57 68q6 43 -30.5 61t-138.5 31q-108 13 -159 51.5t-40 121.5q13 90 87.5 135.5t164.5 45.5q71 0 133 -24t112 -68l-56 -79q-41 37 -92 59t-110 22q-48 0 -90 -18t-49 -66
q-5 -41 28.5 -59.5t135.5 -31.5q113 -13 164 -55.5t40 -118.5q-13 -94 -95 -137.5t-176 -43.5zM218 704l-29 64l195 149h72l155 -149l-47 -64l-158 116z" />
    <glyph glyph-name="Scedilla" unicode="&#x15e;" 
d="M306 -6q-90 0 -164 29t-125 106l82 68q34 -57 88.5 -85t134.5 -28q74 0 124.5 34.5t58.5 93.5q8 57 -27 87.5t-145 64.5q-140 42 -186 91t-34 139q15 104 92 157t176 53q84 0 155.5 -29.5t118.5 -104.5l-79 -69q-32 57 -88 85t-118 28q-63 0 -104.5 -25.5t-49.5 -85.5
q-8 -53 29.5 -83.5t154.5 -65.5q132 -40 176 -87.5t31 -137.5q-16 -115 -106.5 -175t-194.5 -60zM265 0l26 42q43 -8 78.5 -37.5t26.5 -95.5q-9 -65 -58 -95t-105 -30q-66 0 -104 24.5t-34 81.5l89 10q-1 -19 11.5 -26.5t43.5 -7.5q30 0 47.5 12.5t21.5 46.5q5 34 -5 50.5
t-38 24.5z" />
    <glyph glyph-name="scedilla" unicode="&#x15f;" 
d="M301 -10q-76 0 -144 22.5t-121 69.5l56 79q43 -40 100.5 -60.5t120.5 -20.5q52 0 102 16t57 68q6 43 -30.5 61t-138.5 31q-108 13 -159 51.5t-40 121.5q13 90 87.5 135.5t164.5 45.5q71 0 133 -24t112 -68l-56 -79q-41 37 -92 59t-110 22q-48 0 -90 -18t-49 -66
q-5 -41 28.5 -59.5t135.5 -31.5q113 -13 164 -55.5t40 -118.5q-13 -94 -95 -137.5t-176 -43.5zM262 0l26 42q43 -8 78.5 -37.5t26.5 -95.5q-9 -65 -58 -95t-105 -30q-66 0 -104 24.5t-34 81.5l89 10q-1 -19 11.5 -26.5t43.5 -7.5q30 0 47.5 12.5t21.5 46.5q5 34 -5 50.5
t-38 24.5z" />
    <glyph glyph-name="Scaron" unicode="&#x160;" 
d="M306 -6q-90 0 -164 29t-125 106l82 68q34 -57 88.5 -85t134.5 -28q74 0 124.5 34.5t58.5 93.5q8 57 -27 87.5t-145 64.5q-140 42 -186 91t-34 139q15 104 92 157t176 53q84 0 155.5 -29.5t118.5 -104.5l-79 -69q-32 57 -88 85t-118 28q-63 0 -104.5 -25.5t-49.5 -85.5
q-8 -53 29.5 -83.5t154.5 -65.5q132 -40 176 -87.5t31 -137.5q-16 -115 -106.5 -175t-194.5 -60zM383 904l-155 149l47 64l158 -116l188 116l29 -64l-195 -149h-72z" />
    <glyph glyph-name="scaron" unicode="&#x161;" 
d="M301 -10q-76 0 -144 22.5t-121 69.5l56 79q43 -40 100.5 -60.5t120.5 -20.5q52 0 102 16t57 68q6 43 -30.5 61t-138.5 31q-108 13 -159 51.5t-40 121.5q13 90 87.5 135.5t164.5 45.5q71 0 133 -24t112 -68l-56 -79q-41 37 -92 59t-110 22q-48 0 -90 -18t-49 -66
q-5 -41 28.5 -59.5t135.5 -31.5q113 -13 164 -55.5t40 -118.5q-13 -94 -95 -137.5t-176 -43.5zM356 704l-155 149l47 64l158 -116l188 116l29 -64l-195 -149h-72z" />
    <glyph glyph-name="Tcedilla" unicode="&#x162;" 
d="M244 0l100 710h-250l12 90h600l-12 -90h-250l-100 -710h-100zM251 0l26 42q43 -8 78.5 -37.5t26.5 -95.5q-9 -65 -58 -95t-105 -30q-66 0 -104 24.5t-34 81.5l89 10q-1 -19 11.5 -26.5t43.5 -7.5q30 0 47.5 12.5t21.5 46.5q5 34 -5 50.5t-38 24.5z" />
    <glyph glyph-name="tcedilla" unicode="&#x163;" 
d="M392 -9q-99 0 -147 49t-34 150l45 320h-170l12 90h170l28 200h100l-28 -200h260l-12 -90h-260l-44 -311q-8 -58 17 -86t82 -28q38 0 71.5 5.5t65.5 14.5l7 -91q-35 -10 -74.5 -16.5t-88.5 -6.5zM329 0l26 42q43 -8 78.5 -37.5t26.5 -95.5q-9 -65 -58 -95t-105 -30
q-66 0 -104 24.5t-34 81.5l89 10q-1 -19 11.5 -26.5t43.5 -7.5q30 0 47.5 12.5t21.5 46.5q5 34 -5 50.5t-38 24.5z" />
    <glyph glyph-name="Tcaron" unicode="&#x164;" 
d="M244 0l100 710h-250l12 90h600l-12 -90h-250l-100 -710h-100zM382 904l-155 149l47 64l158 -116l188 116l29 -64l-195 -149h-72z" />
    <glyph glyph-name="tcaron" unicode="&#x165;" 
d="M392 -9q-99 0 -147 49t-34 150l45 320h-170l12 90h170l28 200h100l-28 -200h260l-12 -90h-260l-44 -311q-8 -58 17 -86t82 -28q38 0 71.5 5.5t65.5 14.5l7 -91q-35 -10 -74.5 -16.5t-88.5 -6.5zM451 705l122 295h147l-197 -295h-72z" />
    <glyph glyph-name="Tbar" unicode="&#x166;" 
d="M244 0l44 310h-200l12 90h200l44 310h-250l12 90h600l-12 -90h-250l-44 -310h200l-12 -90h-200l-44 -310h-100z" />
    <glyph glyph-name="tbar" unicode="&#x167;" 
d="M392 -9q-99 0 -147 49t-34 150l12 90h-130l13 90h130l20 140h-170l12 90h170l28 200h100l-28 -200h260l-12 -90h-260l-20 -140h230l-13 -90h-230l-11 -81q-8 -58 17 -86t82 -28q38 0 71.5 5.5t65.5 14.5l7 -91q-35 -10 -74.5 -16.5t-88.5 -6.5z" />
    <glyph glyph-name="Utilde" unicode="&#x168;" 
d="M293 -10q-125 0 -177.5 71.5t-32.5 215.5l73 523h100l-73 -523q-15 -107 13 -152t109 -45t122 45t56 152l73 523h100l-73 -523q-20 -144 -92.5 -215.5t-197.5 -71.5zM497 910q-34 0 -55 18t-36 40q-15 21 -28 39t-31 18q-19 0 -35.5 -18.5t-23.5 -75.5l-2 -11h-77l2 15
q11 75 52 125t104 50q38 0 60 -18t36 -39q14 -22 25.5 -40t28.5 -18q19 0 35 18.5t24 75.5l1 11h77l-2 -15q-10 -76 -51 -125.5t-104 -49.5z" />
    <glyph glyph-name="utilde" unicode="&#x169;" 
d="M237 -10q-87 0 -133 56.5t-33 148.5l57 405h100l-54 -385q-9 -66 15.5 -98t84.5 -32q47 0 95 25.5t102 79.5l57 410h100l-84 -600h-100l14 100h-30q-28 -49 -80.5 -79.5t-110.5 -30.5zM473 710q-34 0 -55 18t-36 40q-15 21 -28 39t-31 18q-19 0 -35.5 -18.5t-23.5 -75.5
l-2 -11h-77l2 15q11 75 52 125t104 50q38 0 60 -18t36 -39q14 -22 25.5 -40t28.5 -18q19 0 35 18.5t24 75.5l1 11h77l-2 -15q-10 -76 -51 -125.5t-104 -49.5z" />
    <glyph glyph-name="Umacron" unicode="&#x16a;" 
d="M293 -10q-125 0 -177.5 71.5t-32.5 215.5l73 523h100l-73 -523q-15 -107 13 -152t109 -45t122 45t56 152l73 523h100l-73 -523q-20 -144 -92.5 -215.5t-197.5 -71.5zM224 955l13 90h400l-13 -90h-400z" />
    <glyph glyph-name="umacron" unicode="&#x16b;" 
d="M237 -10q-87 0 -133 56.5t-33 148.5l57 405h100l-54 -385q-9 -66 15.5 -98t84.5 -32q47 0 95 25.5t102 79.5l57 410h100l-84 -600h-100l14 100h-30q-28 -49 -80.5 -79.5t-110.5 -30.5zM200 755l13 90h400l-13 -90h-400z" />
    <glyph glyph-name="Ubreve" unicode="&#x16c;" 
d="M293 -10q-125 0 -177.5 71.5t-32.5 215.5l73 523h100l-73 -523q-15 -107 13 -152t109 -45t122 45t56 152l73 523h100l-73 -523q-20 -144 -92.5 -215.5t-197.5 -71.5zM415 893q-97 0 -157 47t-45 163h100q-9 -72 19 -101.5t94 -29.5t103 29.5t48 101.5h100
q-17 -116 -91 -163t-171 -47z" />
    <glyph glyph-name="ubreve" unicode="&#x16d;" 
d="M237 -10q-87 0 -133 56.5t-33 148.5l57 405h100l-54 -385q-9 -66 15.5 -98t84.5 -32q47 0 95 25.5t102 79.5l57 410h100l-84 -600h-100l14 100h-30q-28 -49 -80.5 -79.5t-110.5 -30.5zM391 693q-97 0 -157 47t-45 163h100q-9 -72 19 -101.5t94 -29.5t103 29.5t48 101.5
h100q-17 -116 -91 -163t-171 -47z" />
    <glyph glyph-name="Uring" unicode="&#x16e;" 
d="M293 -10q-125 0 -177.5 71.5t-32.5 215.5l73 523h100l-73 -523q-15 -107 13 -152t109 -45t122 45t56 152l73 523h100l-73 -523q-20 -144 -92.5 -215.5t-197.5 -71.5zM414 885q-72 0 -111 35.5t-28 109.5l4 32q11 75 60 111.5t121 36.5t111 -36.5t28 -111.5l-4 -32
q-11 -74 -60 -109.5t-121 -35.5zM424 956q40 0 63.5 17t29.5 57l4 32q6 40 -12.5 58.5t-58.5 18.5q-41 0 -64 -18.5t-29 -58.5l-4 -32q-6 -40 12 -57t59 -17z" />
    <glyph glyph-name="uring" unicode="&#x16f;" 
d="M237 -10q-87 0 -133 56.5t-33 148.5l57 405h100l-54 -385q-9 -66 15.5 -98t84.5 -32q47 0 95 25.5t102 79.5l57 410h100l-84 -600h-100l14 100h-30q-28 -49 -80.5 -79.5t-110.5 -30.5zM390 685q-72 0 -111 35.5t-28 109.5l4 32q11 75 60 111.5t121 36.5t111 -36.5
t28 -111.5l-4 -32q-11 -74 -60 -109.5t-121 -35.5zM400 756q40 0 63.5 17t29.5 57l4 32q6 40 -12.5 58.5t-58.5 18.5q-41 0 -64 -18.5t-29 -58.5l-4 -32q-6 -40 12 -57t59 -17z" />
    <glyph glyph-name="Uhungarumlaut" unicode="&#x170;" 
d="M293 -10q-125 0 -177.5 71.5t-32.5 215.5l73 523h100l-73 -523q-15 -107 13 -152t109 -45t122 45t56 152l73 523h100l-73 -523q-20 -144 -92.5 -215.5t-197.5 -71.5zM482 900l84 200h140l-153 -200h-71zM252 900l84 200h140l-153 -200h-71z" />
    <glyph glyph-name="uhungarumlaut" unicode="&#x171;" 
d="M237 -10q-87 0 -133 56.5t-33 148.5l57 405h100l-54 -385q-9 -66 15.5 -98t84.5 -32q47 0 95 25.5t102 79.5l57 410h100l-84 -600h-100l14 100h-30q-28 -49 -80.5 -79.5t-110.5 -30.5zM468 700l84 200h140l-153 -200h-71zM238 700l84 200h140l-153 -200h-71z" />
    <glyph glyph-name="Uogonek" unicode="&#x172;" 
d="M293 -10q-125 0 -177.5 71.5t-32.5 215.5l73 523h100l-73 -523q-15 -107 13 -152t109 -45t122 45t56 152l73 523h100l-73 -523q-20 -144 -92.5 -215.5t-197.5 -71.5zM329 -215q-63 0 -102 31.5t-31 87.5q6 49 49.5 87t92.5 56l23 -24q-37 -21 -53 -46t-19 -45
q-3 -28 13 -42.5t50 -14.5q18 0 46 3t45 7l-13 -90q-19 -4 -48.5 -7t-52.5 -3z" />
    <glyph glyph-name="uogonek" unicode="&#x173;" 
d="M237 -10q-87 0 -133 56.5t-33 148.5l57 405h100l-54 -385q-9 -66 15.5 -98t84.5 -32q47 0 95 25.5t102 79.5l57 410h100l-84 -600h-100l14 100h-30q-28 -49 -80.5 -79.5t-110.5 -30.5zM499 -215q-63 0 -102 31.5t-31 87.5q6 49 49.5 87t92.5 56l23 -24q-37 -21 -53 -46
t-19 -45q-3 -28 13 -42.5t50 -14.5q18 0 46 3t45 7l-13 -90q-19 -4 -48.5 -7t-52.5 -3z" />
    <glyph glyph-name="Wcircumflex" unicode="&#x174;" 
d="M412 0l-51 477l-185 -477h-100l4 800h99l-19 -653l168 453h105l42 -453l163 653h94l-220 -800h-100zM244 904l-29 64l195 149h72l155 -149l-47 -64l-158 116z" />
    <glyph glyph-name="wcircumflex" unicode="&#x175;" 
d="M382 0l-33 391l-139 -391h-114l-29 600h96l2 -527l138 427h118l28 -411l144 511h96l-197 -600h-110zM220 704l-29 64l195 149h72l155 -149l-47 -64l-158 116z" />
    <glyph glyph-name="Ycircumflex" unicode="&#x176;" 
d="M344 0h-100l42 300l-216 500h112l173 -410l276 410h110l-355 -500zM244 904l-29 64l195 149h72l155 -149l-47 -64l-158 116z" />
    <glyph glyph-name="ycircumflex" unicode="&#x177;" 
d="M87 -206q-24 0 -46.5 3t-45.5 8l29 89q25 -6 47 -9t41 -3q46 0 85.5 26t66.5 83l4 9h-37l-129 600h109l97 -516l240 516h105l-307 -620q-47 -97 -112 -141.5t-147 -44.5zM220 704l-29 64l195 149h72l155 -149l-47 -64l-158 116z" />
    <glyph glyph-name="Ydieresis" unicode="&#x178;" 
d="M344 0h-100l42 300l-216 500h112l173 -410l276 410h110l-355 -500zM303 910q-29 0 -45.5 12t-11.5 45l1 7q5 34 24.5 46.5t48.5 12.5t45.5 -12.5t11.5 -46.5l-1 -7q-5 -33 -25 -45t-48 -12zM533 910q-29 0 -45.5 12t-11.5 45l1 7q5 34 24.5 46.5t48.5 12.5t45.5 -12.5
t11.5 -46.5l-1 -7q-5 -33 -25 -45t-48 -12z" />
    <glyph glyph-name="Zacute" unicode="&#x179;" 
d="M564 0h-540l13 90l507 620h-420l12 90h540l-12 -90l-508 -620h421zM332 900l164 200h150l-223 -200h-91z" />
    <glyph glyph-name="zacute" unicode="&#x17a;" 
d="M524 0h-460l13 90l396 420h-337l12 90h460l-12 -90l-396 -420h337zM278 700l164 200h150l-223 -200h-91z" />
    <glyph glyph-name="Zdotaccent" unicode="&#x17b;" 
d="M564 0h-540l13 90l507 620h-420l12 90h540l-12 -90l-508 -620h421zM418 910q-38 0 -60 12t-17 45l1 7q5 34 30 46.5t63 12.5t60 -12.5t17 -46.5l-1 -7q-5 -33 -30.5 -45t-62.5 -12z" />
    <glyph glyph-name="zdotaccent" unicode="&#x17c;" 
d="M524 0h-460l13 90l396 420h-337l12 90h460l-12 -90l-396 -420h337zM394 710q-38 0 -60 12t-17 45l1 7q5 34 30 46.5t63 12.5t60 -12.5t17 -46.5l-1 -7q-5 -33 -30.5 -45t-62.5 -12z" />
    <glyph glyph-name="Zcaron" unicode="&#x17d;" 
d="M564 0h-540l13 90l507 620h-420l12 90h540l-12 -90l-508 -620h421zM382 904l-155 149l47 64l158 -116l188 116l29 -64l-195 -149h-72z" />
    <glyph glyph-name="zcaron" unicode="&#x17e;" 
d="M524 0h-460l13 90l396 420h-337l12 90h460l-12 -90l-396 -420h337zM358 704l-155 149l47 64l158 -116l188 116l29 -64l-195 -149h-72z" />
    <glyph glyph-name="longs" unicode="&#x17f;" 
d="M216 -200l100 710h-120l12 90h120l6 40q11 81 71.5 125.5t133.5 44.5q29 0 65 -8t59 -18l-32 -84q-19 8 -44 14t-51 6q-42 0 -69 -18.5t-33 -60.5l-118 -841h-100z" />
    <glyph glyph-name="florin" unicode="&#x192;" 
d="M162 -6q-16 0 -35.5 1.5t-40.5 4.5q-20 3 -38 7.5t-30 10.5l32 86q13 -5 27.5 -9t27.5 -7q13 -2 26 -3t24 -1q29 0 48.5 5.5t33.5 17.5t21.5 32t12.5 51l31 220h-210l12 90h210l20 140q5 38 22.5 69.5t44.5 53.5q27 23 62.5 35t75.5 12q16 0 35.5 -1.5t40.5 -4.5
q20 -3 38 -7.5t30 -10.5l-32 -86q-13 5 -27.5 9t-27.5 7q-13 2 -26 3t-24 1q-29 0 -48.5 -5.5t-33.5 -17.5q-13 -13 -21 -33t-13 -50l-16 -114h220l-12 -90h-220l-35 -246q-5 -39 -22 -70.5t-44 -53.5t-62.5 -34t-76.5 -12z" />
    <glyph glyph-name="Aringacute" unicode="&#x1fa;" 
d="M448 320l-58 367l-163 -367h221zM499 0l-37 230h-275l-101 -230h-102l370 800h105l146 -800h-106zM415 885q-72 0 -111 35.5t-28 109.5l4 32q11 75 60 111.5t121 36.5t111 -36.5t28 -111.5l-4 -32q-11 -74 -60 -109.5t-121 -35.5zM425 956q40 0 63.5 17t29.5 57l4 32
q6 40 -12.5 58.5t-58.5 18.5q-41 0 -64 -18.5t-29 -58.5l-4 -32q-6 -40 12 -57t59 -17zM362 1200l164 200h150l-223 -200h-91z" />
    <glyph glyph-name="aringacute" unicode="&#x1fb;" 
d="M233 76q52 0 98.5 18.5t84.5 64.5l14 96h-180q-43 0 -74.5 -19.5t-38.5 -68.5q-6 -43 15.5 -67t80.5 -24zM208 -10q-76 0 -130 40.5t-41 130.5q11 79 68.5 124t126.5 45h208l12 86q7 48 -21 76t-93 28q-66 0 -101 -19.5t-64 -86.5l-84 24q29 85 94.5 128.5t165.5 43.5
q99 0 158.5 -44.5t46.5 -137.5l-38 -268q-7 -54 21 -67.5t90 -3.5l-13 -92q-64 -9 -116 8.5t-46 94.5h-20q-34 -46 -94.5 -78t-129.5 -32zM370 685q-72 0 -111 35.5t-28 109.5l4 32q11 75 60 111.5t121 36.5t111 -36.5t28 -111.5l-4 -32q-11 -74 -60 -109.5t-121 -35.5z
M380 756q40 0 63.5 17t29.5 57l4 32q6 40 -12.5 58.5t-58.5 18.5q-41 0 -64 -18.5t-29 -58.5l-4 -32q-6 -40 12 -57t59 -17zM318 1000l164 200h150l-223 -200h-91z" />
    <glyph glyph-name="AEacute" unicode="&#x1fc;" 
d="M341 720l-177 -410h184l57 410h-64zM336 230h-207l-99 -230h-86l355 800h447l-11 -80h-240l-35 -250h230l-11 -80h-230l-44 -310h240l-11 -80h-330zM432 900l164 200h150l-223 -200h-91z" />
    <glyph glyph-name="aeacute" unicode="&#x1fd;" 
d="M635 144q-21 -79 -66.5 -116.5t-129.5 -37.5q-56 0 -93 22t-51 68h-16q-28 -39 -65.5 -64.5t-92.5 -25.5q-52 0 -94.5 40.5t-29.5 130.5q11 80 64 124.5t116 44.5h123l12 86q8 52 -12 83t-66 31q-42 0 -62.5 -18t-45.5 -78l-75 24q24 72 72 112t131 40q41 0 72 -16.5
t47 -50.5q27 34 63.5 50.5t79.5 16.5q84 0 127 -49.5t28 -153.5l-18 -127h-280l-13 -98q-9 -62 10 -89.5t68 -27.5t71.5 18t37.5 69zM392 414l-10 -69h190l9 60q9 68 -10 99t-67 31q-46 0 -74.5 -29.5t-37.5 -91.5zM274 139l17 126h-95q-41 0 -71 -21.5t-38 -76.5
q-6 -48 7.5 -74.5t56.5 -26.5q34 0 63.5 19.5t59.5 53.5zM329 700l164 200h150l-223 -200h-91z" />
    <glyph glyph-name="Oslashacute" unicode="&#x1fe;" 
d="M166 152l302 559q-16 4 -33.5 6.5t-39.5 2.5q-93 0 -138 -45.5t-60 -155.5l-34 -242q-6 -40 -5 -71t8 -54zM305 80q93 0 138 45t60 152l34 242q7 51 4.5 88t-16.5 61l-309 -573q17 -7 39 -11t50 -4zM293 -10q-33 0 -61.5 4.5t-52.5 14.5l-59 -109h-100l85 159
q-31 36 -41.5 91t-0.5 127l34 242q20 142 100 216.5t212 74.5q27 0 51 -3t45 -10l55 103h100l-79 -146q39 -36 53 -95t3 -140l-34 -242q-20 -140 -99.5 -213.5t-210.5 -73.5zM342 900l164 200h150l-223 -200h-91z" />
    <glyph glyph-name="oslashacute" unicode="&#x1ff;" 
d="M174 217q-4 -29 -1 -52t13 -39l246 386q-13 4 -29.5 6t-35.5 2q-78 0 -118.5 -34t-51.5 -107zM305 80q78 0 119 33t50 104l23 162q4 30 1.5 53.5t-12.5 39.5l-247 -384q14 -4 30.5 -6t35.5 -2zM293 -10q-27 0 -52 3t-46 10l-65 -103h-100l92 143q-30 28 -43 71.5
t-5 102.5l23 162q17 117 94.5 174t189.5 57q27 0 51 -3t45 -10l65 103h100l-92 -143q30 -28 43 -73t4 -105l-23 -162q-16 -116 -92.5 -171.5t-188.5 -55.5zM278 700l164 200h150l-223 -200h-91z" />
    <glyph glyph-name="Scommaaccent" unicode="&#x218;" 
d="M306 -6q-90 0 -164 29t-125 106l82 68q34 -57 88.5 -85t134.5 -28q74 0 124.5 34.5t58.5 93.5q8 57 -27 87.5t-145 64.5q-140 42 -186 91t-34 139q15 104 92 157t176 53q84 0 155.5 -29.5t118.5 -104.5l-79 -69q-32 57 -88 85t-118 28q-63 0 -104.5 -25.5t-49.5 -85.5
q-8 -53 29.5 -83.5t154.5 -65.5q132 -40 176 -87.5t31 -137.5q-16 -115 -106.5 -175t-194.5 -60zM98 -300l124 200h150l-183 -200h-91z" />
    <glyph glyph-name="scommaaccent" unicode="&#x219;" 
d="M301 -10q-76 0 -144 22.5t-121 69.5l56 79q43 -40 100.5 -60.5t120.5 -20.5q52 0 102 16t57 68q6 43 -30.5 61t-138.5 31q-108 13 -159 51.5t-40 121.5q13 90 87.5 135.5t164.5 45.5q71 0 133 -24t112 -68l-56 -79q-41 37 -92 59t-110 22q-48 0 -90 -18t-49 -66
q-5 -41 28.5 -59.5t135.5 -31.5q113 -13 164 -55.5t40 -118.5q-13 -94 -95 -137.5t-176 -43.5zM98 -300l124 200h150l-183 -200h-91z" />
    <glyph glyph-name="Tcommaaccent" unicode="&#x21a;" 
d="M244 0l100 710h-250l12 90h600l-12 -90h-250l-100 -710h-100zM97 -300l124 200h150l-183 -200h-91z" />
    <glyph glyph-name="tcommaaccent" unicode="&#x21b;" 
d="M392 -9q-99 0 -147 49t-34 150l45 320h-170l12 90h170l28 200h100l-28 -200h260l-12 -90h-260l-44 -311q-8 -58 17 -86t82 -28q38 0 71.5 5.5t65.5 14.5l7 -91q-35 -10 -74.5 -16.5t-88.5 -6.5zM118 -300l124 200h150l-183 -200h-91z" />
    <glyph glyph-name="dotlessj" unicode="&#xf6be;" 
d="M173 -208q-38 0 -75.5 4.5t-78.5 17.5l33 96q36 -13 67.5 -17.5t63.5 -4.5q65 0 109 27.5t53 91.5l71 503h-280l12 90h380l-85 -606q-14 -103 -90.5 -152.5t-179.5 -49.5z" />
    <glyph glyph-name="dotlessj" unicode="&#x237;" 
d="M173 -208q-38 0 -75.5 4.5t-78.5 17.5l33 96q36 -13 67.5 -17.5t63.5 -4.5q65 0 109 27.5t53 91.5l71 503h-280l12 90h380l-85 -606q-14 -103 -90.5 -152.5t-179.5 -49.5z" />
    <glyph glyph-name="quoteleft" unicode="&#x2018;" 
d="M201 400l281 400h84l-166 -400h-199z" />
    <glyph glyph-name="quoteleft" unicode="&#x2bb;" 
d="M201 400l281 400h84l-166 -400h-199z" />
    <glyph glyph-name="circumflex" unicode="&#x2c6;" 
d="M220 704l-29 64l195 149h72l155 -149l-47 -64l-158 116z" />
    <glyph glyph-name="caron" unicode="&#x2c7;" 
d="M358 704l-155 149l47 64l158 -116l188 116l29 -64l-195 -149h-72z" />
    <glyph glyph-name="breve" unicode="&#x2d8;" 
d="M391 693q-97 0 -157 47t-45 163h100q-9 -72 19 -101.5t94 -29.5t103 29.5t48 101.5h100q-17 -116 -91 -163t-171 -47z" />
    <glyph glyph-name="dotaccent" unicode="&#x2d9;" 
d="M394 710q-38 0 -60 12t-17 45l1 7q5 34 30 46.5t63 12.5t60 -12.5t17 -46.5l-1 -7q-5 -33 -30.5 -45t-62.5 -12z" />
    <glyph glyph-name="ring" unicode="&#x2da;" 
d="M390 685q-72 0 -111 35.5t-28 109.5l4 32q11 75 60 111.5t121 36.5t111 -36.5t28 -111.5l-4 -32q-11 -74 -60 -109.5t-121 -35.5zM400 756q40 0 63.5 17t29.5 57l4 32q6 40 -12.5 58.5t-58.5 18.5q-41 0 -64 -18.5t-29 -58.5l-4 -32q-6 -40 12 -57t59 -17z" />
    <glyph glyph-name="ogonek" unicode="&#x2db;" 
d="M319 -215q-63 0 -102 31.5t-31 87.5q6 49 49.5 87t92.5 56l23 -24q-37 -21 -53 -46t-19 -45q-3 -28 13 -42.5t50 -14.5q18 0 46 3t45 7l-13 -90q-19 -4 -48.5 -7t-52.5 -3z" />
    <glyph glyph-name="tilde" unicode="&#x2dc;" 
d="M473 710q-34 0 -55 18t-36 40q-15 21 -28 39t-31 18q-19 0 -35.5 -18.5t-23.5 -75.5l-2 -11h-77l2 15q11 75 52 125t104 50q38 0 60 -18t36 -39q14 -22 25.5 -40t28.5 -18q19 0 35 18.5t24 75.5l1 11h77l-2 -15q-10 -76 -51 -125.5t-104 -49.5z" />
    <glyph glyph-name="hungarumlaut" unicode="&#x2dd;" 
d="M468 700l84 200h140l-153 -200h-71zM238 700l84 200h140l-153 -200h-71z" />
    <glyph glyph-name="gravecmb" unicode="&#x300;" horiz-adv-x="0" 
d="M43 700l-167 200h150l108 -200h-91z" />
    <glyph glyph-name="acutecmb" unicode="&#x301;" horiz-adv-x="0" 
d="M-72 700l164 200h150l-223 -200h-91z" />
    <glyph glyph-name="circumflexcmb" unicode="&#x302;" horiz-adv-x="0" 
d="M-130 704l-29 64l195 149h72l155 -149l-47 -64l-158 116z" />
    <glyph glyph-name="tildecmb" unicode="&#x303;" horiz-adv-x="0" 
d="M123 710q-34 0 -55 18t-36 40q-15 21 -28 39t-31 18q-19 0 -35.5 -18.5t-23.5 -75.5l-2 -11h-77l2 15q11 75 52 125t104 50q38 0 60 -18t36 -39q14 -22 25.5 -40t28.5 -18q19 0 35 18.5t24 75.5l1 11h77l-2 -15q-10 -76 -51 -125.5t-104 -49.5z" />
    <glyph glyph-name="macroncmb" unicode="&#x304;" horiz-adv-x="0" 
d="M-150 755l13 90h400l-13 -90h-400z" />
    <glyph glyph-name="brevecmb" unicode="&#x306;" horiz-adv-x="0" 
d="M41 693q-97 0 -157 47t-45 163h100q-9 -72 19 -101.5t94 -29.5t103 29.5t48 101.5h100q-17 -116 -91 -163t-171 -47z" />
    <glyph glyph-name="dotaccentcmb" unicode="&#x307;" horiz-adv-x="0" 
d="M44 710q-38 0 -60 12t-17 45l1 7q5 34 30 46.5t63 12.5t60 -12.5t17 -46.5l-1 -7q-5 -33 -30.5 -45t-62.5 -12z" />
    <glyph glyph-name="dieresiscmb" unicode="&#x308;" horiz-adv-x="0" 
d="M-71 710q-29 0 -45.5 12t-11.5 45l1 7q5 34 24.5 46.5t48.5 12.5t45.5 -12.5t11.5 -46.5l-1 -7q-5 -33 -25 -45t-48 -12zM159 710q-29 0 -45.5 12t-11.5 45l1 7q5 34 24.5 46.5t48.5 12.5t45.5 -12.5t11.5 -46.5l-1 -7q-5 -33 -25 -45t-48 -12z" />
    <glyph glyph-name="ringcmb" unicode="&#x30a;" horiz-adv-x="0" 
d="M40 685q-72 0 -111 35.5t-28 109.5l4 32q11 75 60 111.5t121 36.5t111 -36.5t28 -111.5l-4 -32q-11 -74 -60 -109.5t-121 -35.5zM50 756q40 0 63.5 17t29.5 57l4 32q6 40 -12.5 58.5t-58.5 18.5q-41 0 -64 -18.5t-29 -58.5l-4 -32q-6 -40 12 -57t59 -17z" />
    <glyph glyph-name="hungarumlautcmb" unicode="&#x30b;" horiz-adv-x="0" 
d="M118 700l84 200h140l-153 -200h-71zM-112 700l84 200h140l-153 -200h-71z" />
    <glyph glyph-name="caroncmb" unicode="&#x30c;" horiz-adv-x="0" 
d="M8 704l-155 149l47 64l158 -116l188 116l29 -64l-195 -149h-72z" />
    <glyph glyph-name="commaturnedabovecmb" unicode="&#x312;" horiz-adv-x="0" 
d="M-92 700l183 200h91l-124 -200h-150z" />
    <glyph glyph-name="commaaccentcmb" unicode="&#x326;" horiz-adv-x="0" 
d="M-232 -300l124 200h150l-183 -200h-91z" />
    <glyph glyph-name="cedillacmb" unicode="&#x327;" horiz-adv-x="0" 
d="M-86 0l26 42q43 -8 78.5 -37.5t26.5 -95.5q-9 -65 -58 -95t-105 -30q-66 0 -104 24.5t-34 81.5l89 10q-1 -19 11.5 -26.5t43.5 -7.5q30 0 47.5 12.5t21.5 46.5q5 34 -5 50.5t-38 24.5z" />
    <glyph glyph-name="ogonekcmb" unicode="&#x328;" horiz-adv-x="0" 
d="M-31 -215q-63 0 -102 31.5t-31 87.5q6 49 49.5 87t92.5 56l23 -24q-37 -21 -53 -46t-19 -45q-3 -28 13 -42.5t50 -14.5q18 0 46 3t45 7l-13 -90q-19 -4 -48.5 -7t-52.5 -3z" />
    <glyph glyph-name="tonos" unicode="&#x384;" 
d="M318 700l104 200h140l-163 -200h-81z" />
    <glyph glyph-name="dieresistonos" unicode="&#x385;" 
d="M328 700l74 200h120l-133 -200h-61zM217 700q-25 0 -38 12t-9 45l1 7q5 34 22 46.5t42 12.5t38 -12.5t8 -46.5l-1 -7q-4 -33 -21.5 -45t-41.5 -12zM567 700q-25 0 -38 12t-9 45l1 7q5 34 22 46.5t42 12.5t38 -12.5t8 -46.5l-1 -7q-4 -33 -21.5 -45t-41.5 -12z" />
    <glyph glyph-name="Alphatonos" unicode="&#x386;" 
d="M448 320l-58 367l-163 -367h221zM499 0l-37 230h-275l-101 -230h-102l370 800h105l146 -800h-106zM69 700l104 200h140l-163 -200h-81z" />
    <glyph glyph-name="anoteleia" unicode="&#x387;" 
d="M336 290q-50 0 -78 22.5t-21 71.5l4 28q7 49 41 72.5t84 23.5t77.5 -23.5t20.5 -72.5l-4 -28q-7 -49 -41 -71.5t-83 -22.5z" />
    <glyph glyph-name="Epsilontonos" unicode="&#x388;" 
d="M44 0l112 800h520l-12 -90h-420l-33 -230h370l-12 -90h-370l-42 -300h420l-13 -90h-520zM-71 700l104 200h140l-163 -200h-81z" />
    <glyph glyph-name="Etatonos" unicode="&#x389;" 
d="M44 0l112 800h100l-45 -320h300l45 320h100l-112 -800h-100l55 390h-300l-55 -390h-100zM-81 700l104 200h140l-163 -200h-81z" />
    <glyph glyph-name="Iotatonos" unicode="&#x38a;" 
d="M44 0l13 90h200l87 620h-200l12 90h500l-12 -90h-200l-87 -620h200l-13 -90h-500zM-81 700l104 200h140l-163 -200h-81z" />
    <glyph glyph-name="Omicrontonos" unicode="&#x38c;" 
d="M298 -10q-132 0 -191 73.5t-39 213.5l34 242q20 142 100 216.5t212 74.5q131 0 189.5 -74.5t38.5 -216.5l-34 -242q-20 -140 -99 -213.5t-211 -73.5zM310 80q92 0 137.5 45t60.5 152l34 242q15 109 -17.5 155t-124.5 46t-137.5 -46t-60.5 -155l-34 -242
q-15 -107 17.5 -152t124.5 -45zM4 700l104 200h140l-163 -200h-81z" />
    <glyph glyph-name="Upsilontonos" unicode="&#x38e;" 
d="M344 0h-100l42 300l-216 500h112l173 -410l276 410h110l-355 -500zM-111 700l104 200h140l-163 -200h-81z" />
    <glyph glyph-name="Omegatonos" unicode="&#x38f;" 
d="M244 0h-230l13 90h130l12 90q-67 21 -88 84t-9 147l15 108q20 144 101 217.5t220 73.5t199 -73.5t40 -217.5l-15 -108q-12 -84 -51 -147t-112 -84l-12 -90h130l-13 -90h-230l32 230q79 13 112.5 60.5t43.5 120.5l15 108q15 109 -19.5 155t-132.5 46t-145.5 -46
t-62.5 -155l-15 -108q-10 -73 9.5 -120.5t94.5 -60.5zM-21 700l104 200h140l-163 -200h-81z" />
    <glyph glyph-name="iotadieresistonos" unicode="&#x390;" 
d="M439 -5q-92 0 -136.5 53t-31.5 146l45 316h-220l12 90h320l-57 -407q-7 -53 13.5 -80t70.5 -27q22 0 52.5 5.5t50.5 13.5l8 -87q-26 -10 -59 -16.5t-68 -6.5zM318 700l74 200h120l-133 -200h-61zM207 700q-25 0 -38 12t-9 45l1 7q5 34 22 46.5t42 12.5t38 -12.5t8 -46.5
l-1 -7q-4 -33 -21.5 -45t-41.5 -12zM557 700q-25 0 -38 12t-9 45l1 7q5 34 22 46.5t42 12.5t38 -12.5t8 -46.5l-1 -7q-4 -33 -21.5 -45t-41.5 -12z" />
    <glyph glyph-name="Alpha" unicode="&#x391;" 
d="M448 320l-58 367l-163 -367h221zM499 0l-37 230h-275l-101 -230h-102l370 800h105l146 -800h-106z" />
    <glyph glyph-name="Beta" unicode="&#x392;" 
d="M44 0l112 800h248q125 0 178.5 -46t39.5 -142l-6 -45q-7 -51 -41 -85.5t-86 -43.5l-5 -29q65 -6 97 -49t22 -111l-6 -45q-15 -104 -88 -154t-210 -50h-255zM209 460h158q71 0 107 26.5t44 84.5l4 28q8 58 -20.5 84.5t-99.5 26.5h-158zM157 90h178q76 0 115 29.5t48 95.5
l5 32q9 66 -22 95.5t-107 29.5h-178z" />
    <glyph glyph-name="Gamma" unicode="&#x393;" 
d="M44 0l112 800h520l-12 -90h-420l-100 -710h-100z" />
    <glyph glyph-name="Delta" unicode="&#x394;" 
d="M-16 0l13 90l352 710h105l163 -710l-13 -90h-620zM515 90l-125 606l-294 -606h419z" />
    <glyph glyph-name="Epsilon" unicode="&#x395;" 
d="M44 0l112 800h520l-12 -90h-420l-33 -230h370l-12 -90h-370l-42 -300h420l-13 -90h-520z" />
    <glyph glyph-name="Zeta" unicode="&#x396;" 
d="M564 0h-540l13 90l507 620h-420l12 90h540l-12 -90l-508 -620h421z" />
    <glyph glyph-name="Eta" unicode="&#x397;" 
d="M44 0l112 800h100l-45 -320h300l45 320h100l-112 -800h-100l55 390h-300l-55 -390h-100z" />
    <glyph glyph-name="Theta" unicode="&#x398;" 
d="M293 -10q-148 0 -214 73t-46 214l34 242q20 143 107 217t235 74q147 0 212.5 -74t45.5 -217l-34 -242q-20 -141 -106 -214t-234 -73zM305 80q109 0 161 45t67 152l34 242q15 110 -24 155.5t-148 45.5t-161 -45.5t-67 -155.5l-34 -242q-15 -107 24 -152t148 -45zM245 360
l12 90h200l-12 -90h-200z" />
    <glyph glyph-name="Iota" unicode="&#x399;" 
d="M44 0l13 90h200l87 620h-200l12 90h500l-12 -90h-200l-87 -620h200l-13 -90h-500z" />
    <glyph glyph-name="Kappa" unicode="&#x39a;" 
d="M197 380l-53 -380h-100l112 800h100l-46 -330h34l355 330h116l-394 -368l279 -432h-120l-246 380h-37z" />
    <glyph glyph-name="Lambda" unicode="&#x39b;" 
d="M499 0l-109 687l-304 -687h-102l370 800h105l146 -800h-106z" />
    <glyph glyph-name="Mu" unicode="&#x39c;" 
d="M274 200l-80 439l-90 -639h-90l112 800h135l81 -481l214 481h130l-112 -800h-90l90 640l-204 -440h-96z" />
    <glyph glyph-name="Nu" unicode="&#x39d;" 
d="M401 0l-172 674l-95 -674h-90l112 800h137l177 -689l96 689h90l-112 -800h-143z" />
    <glyph glyph-name="Xi" unicode="&#x39e;" 
d="M124 710l12 90h540l-12 -90h-540zM104 390l12 90h490l-12 -90h-490zM24 0l13 90h540l-13 -90h-540z" />
    <glyph glyph-name="Omicron" unicode="&#x39f;" 
d="M293 -10q-132 0 -191 73.5t-39 213.5l34 242q20 142 100 216.5t212 74.5q131 0 189.5 -74.5t38.5 -216.5l-34 -242q-20 -140 -99 -213.5t-211 -73.5zM305 80q92 0 137.5 45t60.5 152l34 242q15 109 -17.5 155t-124.5 46t-137.5 -46t-60.5 -155l-34 -242
q-15 -107 17.5 -152t124.5 -45z" />
    <glyph glyph-name="Pi" unicode="&#x3a0;" 
d="M44 0l112 800h500l-112 -800h-100l100 710h-300l-100 -710h-100z" />
    <glyph glyph-name="Rho" unicode="&#x3a1;" 
d="M44 0l112 800h281q125 0 180 -52.5t40 -158.5l-14 -98q-15 -106 -85 -158.5t-195 -52.5h-180l-39 -280h-100zM196 368h180q81 0 119.5 28.5t47.5 96.5l13 92q10 68 -20.5 96.5t-111.5 28.5h-180z" />
    <glyph glyph-name="Sigma" unicode="&#x3a3;" 
d="M564 0h-550l13 90l400 322l-313 298l12 90h550l-12 -90h-418l262 -255l-11 -78l-350 -287h430z" />
    <glyph glyph-name="Tau" unicode="&#x3a4;" 
d="M244 0l100 710h-250l12 90h600l-12 -90h-250l-100 -710h-100z" />
    <glyph glyph-name="Upsilon" unicode="&#x3a5;" 
d="M344 0h-100l42 300l-216 500h112l173 -410l276 410h110l-355 -500z" />
    <glyph glyph-name="Phi" unicode="&#x3a6;" 
d="M390 90h-33l-14 -100h-100l14 100h-32q-113 0 -155.5 74t-25.5 193l12 82q17 121 80 196t176 75h32l14 100h100l-14 -100h33q113 0 154.5 -75t24.5 -196l-12 -82q-17 -119 -79 -193t-175 -74zM464 620h-38l-62 -440h38q63 0 96 40.5t46 136.5l12 82q14 99 -7.5 140
t-84.5 41zM237 180h37l62 440h-37q-64 0 -96.5 -41t-46.5 -140l-12 -82q-13 -96 8 -136.5t85 -40.5z" />
    <glyph glyph-name="Chi" unicode="&#x3a7;" 
d="M508 0l-167 328l-260 -328h-117l336 408l-199 392h115l159 -312l247 312h116l-323 -391l208 -409h-115z" />
    <glyph glyph-name="Psi" unicode="&#x3a8;" 
d="M344 0h-100l27 193q-112 13 -155 83.5t-28 180.5l48 343h95l-48 -343q-11 -80 12.5 -120t88.5 -49l72 512h100l-72 -512q69 9 103.5 49t45.5 120l48 343h95l-48 -343q-15 -110 -78 -180.5t-179 -83.5z" />
    <glyph glyph-name="Omega" unicode="&#x3a9;" 
d="M244 0h-230l13 90h130l12 90q-67 21 -88 84t-9 147l15 108q20 144 101 217.5t220 73.5t199 -73.5t40 -217.5l-15 -108q-12 -84 -51 -147t-112 -84l-12 -90h130l-13 -90h-230l32 230q79 13 112.5 60.5t43.5 120.5l15 108q15 109 -19.5 155t-132.5 46t-145.5 -46
t-62.5 -155l-15 -108q-10 -73 9.5 -120.5t94.5 -60.5z" />
    <glyph glyph-name="Iotadieresis" unicode="&#x3aa;" 
d="M44 0l13 90h200l87 620h-200l12 90h500l-12 -90h-200l-87 -620h200l-13 -90h-500zM303 910q-29 0 -45.5 12t-11.5 45l1 7q5 34 24.5 46.5t48.5 12.5t45.5 -12.5t11.5 -46.5l-1 -7q-5 -33 -25 -45t-48 -12zM533 910q-29 0 -45.5 12t-11.5 45l1 7q5 34 24.5 46.5t48.5 12.5
t45.5 -12.5t11.5 -46.5l-1 -7q-5 -33 -25 -45t-48 -12z" />
    <glyph glyph-name="Upsilondieresis" unicode="&#x3ab;" 
d="M344 0h-100l42 300l-216 500h112l173 -410l276 410h110l-355 -500zM303 910q-29 0 -45.5 12t-11.5 45l1 7q5 34 24.5 46.5t48.5 12.5t45.5 -12.5t11.5 -46.5l-1 -7q-5 -33 -25 -45t-48 -12zM533 910q-29 0 -45.5 12t-11.5 45l1 7q5 34 24.5 46.5t48.5 12.5t45.5 -12.5
t11.5 -46.5l-1 -7q-5 -33 -25 -45t-48 -12z" />
    <glyph glyph-name="alphatonos" unicode="&#x3ac;" 
d="M256 85q49 0 92 26.5t93 78.5l31 220q-35 52 -71 78.5t-85 26.5q-54 0 -86 -35.5t-42 -107.5l-20 -144q-10 -71 12 -107t76 -36zM449 110h-30q-36 -57 -87.5 -88.5t-113.5 -31.5q-84 0 -126.5 59.5t-26.5 168.5l23 164q15 108 74 168t143 60q55 0 93 -29.5t56 -80.5h30
l14 100h100l-62 -440q-7 -54 16 -67t75 -4l-13 -92q-82 -10 -125.5 14.5t-39.5 98.5zM368 700l104 200h140l-163 -200h-81z" />
    <glyph glyph-name="epsilontonos" unicode="&#x3ad;" 
d="M297 -10q-140 0 -200.5 43.5t-48.5 133.5l2 10q7 51 51.5 89t122.5 43l4 22q-64 4 -97 31.5t-26 75.5l2 14q11 81 78.5 119.5t198.5 38.5q119 0 173 -44t48 -136l-100 -8q1 54 -30 77.5t-103 23.5q-84 0 -122.5 -18t-43.5 -59l-2 -14q-5 -37 26.5 -52.5t110.5 -15.5h56
l-11 -80h-56q-89 0 -130 -22.5t-49 -74.5l-1 -10q-8 -54 29 -77t130 -23q81 0 123.5 26t58.5 86l98 -7q-21 -99 -92.5 -145.5t-199.5 -46.5zM318 700l104 200h140l-163 -200h-81z" />
    <glyph glyph-name="etatonos" unicode="&#x3ae;" 
d="M416 -200l85 604q8 56 -17.5 83.5t-85.5 27.5q-47 0 -95 -26t-101 -79l-58 -410h-100l84 600h100l-14 -100h30q29 50 83 80t117 30q85 0 128.5 -49.5t31.5 -132.5l-88 -628h-100zM318 700l104 200h140l-163 -200h-81z" />
    <glyph glyph-name="iotatonos" unicode="&#x3af;" 
d="M439 -5q-92 0 -136.5 53t-31.5 146l45 316h-220l12 90h320l-57 -407q-7 -53 13.5 -80t70.5 -27q22 0 52.5 5.5t50.5 13.5l8 -87q-26 -10 -59 -16.5t-68 -6.5zM313 700l104 200h140l-163 -200h-81z" />
    <glyph glyph-name="upsilondieresistonos" unicode="&#x3b0;" 
d="M293 -10q-122 0 -178 58.5t-41 168.5l54 383h100l-54 -383q-10 -73 20.5 -105t110.5 -32t119.5 32t49.5 105l54 383h100l-54 -383q-15 -110 -87 -168.5t-194 -58.5zM328 700l74 200h120l-133 -200h-61zM217 700q-25 0 -38 12t-9 45l1 7q5 34 22 46.5t42 12.5t38 -12.5
t8 -46.5l-1 -7q-4 -33 -21.5 -45t-41.5 -12zM567 700q-25 0 -38 12t-9 45l1 7q5 34 22 46.5t42 12.5t38 -12.5t8 -46.5l-1 -7q-4 -33 -21.5 -45t-41.5 -12z" />
    <glyph glyph-name="alpha" unicode="&#x3b1;" 
d="M256 85q49 0 92 26.5t93 78.5l31 220q-35 52 -71 78.5t-85 26.5q-54 0 -86 -35.5t-42 -107.5l-20 -144q-10 -71 12 -107t76 -36zM449 110h-30q-36 -57 -87.5 -88.5t-113.5 -31.5q-84 0 -126.5 59.5t-26.5 168.5l23 164q15 108 74 168t143 60q55 0 93 -29.5t56 -80.5h30
l14 100h100l-62 -440q-7 -54 16 -67t75 -4l-13 -92q-82 -10 -125.5 14.5t-39.5 98.5z" />
    <glyph glyph-name="beta" unicode="&#x3b2;" 
d="M296 78q79 0 123 35.5t54 107.5l6 42q8 60 -24 89.5t-107 29.5h-51l12 88h45q63 0 98.5 26.5t42.5 80.5l3 18q8 63 -21 94t-98 31q-68 0 -106 -36t-48 -108l-65 -460q29 -19 62.5 -28.5t73.5 -9.5zM285 -10q-40 0 -75 7.5t-63 20.5l-31 -218h-100l109 773
q17 124 92.5 180.5t174.5 56.5t159 -51.5t47 -145.5l-4 -26q-7 -54 -38.5 -91.5t-89.5 -47.5l-4 -29q65 -7 95.5 -49.5t24.5 -99.5l-7 -51q-18 -123 -107.5 -176t-182.5 -53z" />
    <glyph glyph-name="gamma" unicode="&#x3b3;" 
d="M326 -200h-120l41 220l-145 580h110l106 -457l230 457h105l-306 -580z" />
    <glyph glyph-name="delta" unicode="&#x3b4;" 
d="M293 -10q-112 0 -173.5 55.5t-45.5 171.5l13 92q9 58 51 104.5t112 75.5q-54 26 -74 60.5t-13 85.5q12 85 72.5 125t167.5 40h185l-12 -90h-185q-63 0 -95.5 -14.5t-39.5 -60.5q-5 -34 23 -52.5t151 -58.5q98 -32 134 -78.5t25 -126.5l-15 -102q-16 -116 -92.5 -171.5
t-188.5 -55.5zM305 80q75 0 117 32t52 105l15 102q7 54 -28.5 83.5t-146.5 60.5q-54 -24 -86.5 -63.5t-40.5 -90.5l-13 -92q-10 -73 23 -105t108 -32z" />
    <glyph glyph-name="epsilon" unicode="&#x3b5;" 
d="M297 -10q-140 0 -200.5 43.5t-48.5 133.5l2 10q7 51 51.5 89t122.5 43l4 22q-64 4 -97 31.5t-26 75.5l2 14q11 81 78.5 119.5t198.5 38.5q119 0 173 -44t48 -136l-100 -8q1 54 -30 77.5t-103 23.5q-84 0 -122.5 -18t-43.5 -59l-2 -14q-5 -37 26.5 -52.5t110.5 -15.5h56
l-11 -80h-56q-89 0 -130 -22.5t-49 -74.5l-1 -10q-8 -54 29 -77t130 -23q81 0 123.5 26t58.5 86l98 -7q-21 -99 -92.5 -145.5t-199.5 -46.5z" />
    <glyph glyph-name="zeta" unicode="&#x3b6;" 
d="M326 -200h-110l13 90h125q37 0 60 12.5t29 52.5q5 39 -14.5 52t-56.5 13h-85q-127 0 -176 71.5t-36 161.5q8 58 40 114.5t79 100.5l167 155l-5 16q-105 -10 -156.5 42t-59.5 127l91 19q4 -64 61 -91.5t146 -2.5l215 89l26 -112l-167 -47l-239 -231q-39 -37 -64.5 -79.5
t-33.5 -94.5q-9 -67 20 -107.5t104 -40.5h84q81 0 123.5 -37t31.5 -118q-11 -75 -68 -115t-144 -40z" />
    <glyph glyph-name="eta" unicode="&#x3b7;" 
d="M416 -200l85 604q8 56 -17.5 83.5t-85.5 27.5q-47 0 -95 -26t-101 -79l-58 -410h-100l84 600h100l-14 -100h30q29 50 83 80t117 30q85 0 128.5 -49.5t31.5 -132.5l-88 -628h-100z" />
    <glyph glyph-name="theta" unicode="&#x3b8;" 
d="M293 -10q-112 0 -173.5 55.5t-45.5 171.5l51 362q17 117 94.5 174t189.5 57t172.5 -57t43.5 -174l-51 -362q-16 -116 -92.5 -171.5t-188.5 -55.5zM225 579l-18 -129h300l18 129q10 72 -22 106.5t-108 34.5t-118 -34.5t-52 -106.5zM305 80q76 0 118 34t51 103l21 143h-300
l-21 -143q-9 -69 23 -103t108 -34z" />
    <glyph glyph-name="iota" unicode="&#x3b9;" 
d="M439 -5q-92 0 -136.5 53t-31.5 146l45 316h-220l12 90h320l-57 -407q-7 -53 13.5 -80t70.5 -27q22 0 52.5 5.5t50.5 13.5l8 -87q-26 -10 -59 -16.5t-68 -6.5z" />
    <glyph glyph-name="kappa" unicode="&#x3ba;" 
d="M232 273l-38 -273h-100l84 600h100l-34 -243h51l226 243h122l-274 -279l187 -321h-114l-159 273h-51z" />
    <glyph glyph-name="lambda" unicode="&#x3bb;" 
d="M460 0l-96 513l-240 -513h-106l297 600h32l-4 22q-7 44 -32 69.5t-80 25.5q-19 0 -42 -3t-51 -9l-4 90q25 5 50 7.5t48 2.5q72 0 125 -32.5t70 -110.5l142 -662h-109z" />
    <glyph glyph-name="mu" unicode="&#x3bc;" 
d="M147 20l-21 -220h-120l41 220l81 580h100l-56 -404q-9 -60 22 -85.5t80 -25.5q45 0 81.5 20t70.5 55l62 440h100l-62 -440q-7 -54 16 -67t75 -4l-13 -92q-75 -11 -111 15t-31 88h-20q-31 -43 -79 -76.5t-114 -33.5q-31 0 -57 12t-43 37z" />
    <glyph glyph-name="nu" unicode="&#x3bd;" 
d="M346 0h-105l-139 600h105l109 -527q91 131 151 266.5t88 260.5h98q-42 -169 -124.5 -320t-182.5 -280z" />
    <glyph glyph-name="xi" unicode="&#x3be;" 
d="M558 -45q-11 -75 -68 -115t-144 -40h-110l13 90h125q37 0 60 12.5t29 52.5q5 39 -14.5 52t-56.5 13h-105q-110 0 -168 50.5t-46 136.5l4 27q8 61 59 107.5t141 53.5l3 23q-57 0 -83 30t-19 76q5 37 28.5 66.5t68.5 45.5l4 23q-90 4 -136 43.5t-53 105.5l91 19
q6 -49 72.5 -73t155.5 -11l214 79l26 -112l-223 -53l-60 -31q-43 -22 -63.5 -46.5t-24.5 -53.5q-6 -42 14 -59t54 -17h191l-12 -90h-189q-75 0 -113 -32.5t-44 -78.5l-4 -27q-7 -50 22 -81t102 -31h104q81 0 123.5 -37t31.5 -118z" />
    <glyph glyph-name="omicron" unicode="&#x3bf;" 
d="M293 -10q-121 0 -177.5 58.5t-41.5 168.5l23 162q16 111 89.5 171t194.5 60q120 0 176 -60t40 -171l-23 -162q-15 -110 -87.5 -168.5t-193.5 -58.5zM305 80q76 0 118 34t51 103l23 162q10 72 -22 106.5t-108 34.5t-118 -34.5t-52 -106.5l-23 -162q-9 -69 23 -103t108 -34
z" />
    <glyph glyph-name="pi" unicode="&#x3c0;" 
d="M658 600l-12 -90h-120l-50 -350q-7 -51 15.5 -65.5t95.5 -5.5l-13 -92q-113 -10 -163 20t-40 103l55 390h-170l-72 -510h-100l72 510h-100l12 90h590z" />
    <glyph glyph-name="rho" unicode="&#x3c1;" 
d="M336 85q60 0 95 35.5t45 107.5l21 151q10 71 -22.5 106t-107.5 35t-117.5 -35t-52.5 -106l-26 -189q35 -53 76 -79t89 -26zM16 -200l81 579q17 117 94.5 174t189.5 57t172.5 -57t43.5 -174l-22 -161q-16 -109 -77.5 -168.5t-149.5 -59.5q-59 0 -100 29t-60 81h-30
l-42 -300h-100z" />
    <glyph glyph-name="sigma1" unicode="&#x3c2;" 
d="M220 -200l13 90h125q37 0 60 12.5t29 52.5q5 39 -14.5 52t-56.5 13h-85q-131 0 -179 60.5t-32 176.5l17 120q16 113 84 173t202 60q118 0 167 -53t40 -163l-93 -6q5 69 -25.5 100.5t-102.5 31.5q-80 0 -120.5 -32.5t-50.5 -104.5l-19 -136q-10 -72 19.5 -104.5
t104.5 -32.5h85q81 0 123 -37t31 -118q-11 -75 -68 -115t-144 -40h-110z" />
    <glyph glyph-name="sigma" unicode="&#x3c3;" 
d="M285 80q65 0 102 32t47 105l19 132q12 83 -15 122t-92 39t-102.5 -34.5t-47.5 -106.5l-22 -152q-10 -73 18 -105t93 -32zM273 -10q-103 0 -159 55.5t-40 171.5l22 152q16 112 88 171.5t175 59.5h369l-14 -100l-212 17q32 -25 45.5 -67.5t5.5 -100.5l-19 -132
q-16 -116 -87 -171.5t-174 -55.5z" />
    <glyph glyph-name="tau" unicode="&#x3c4;" 
d="M464 -3q-119 -11 -166.5 17.5t-36.5 105.5l55 390h-200l12 90h510l-12 -90h-210l-50 -350q-6 -49 17 -64t94 -7z" />
    <glyph glyph-name="upsilon" unicode="&#x3c5;" 
d="M293 -10q-122 0 -178 58.5t-41 168.5l54 383h100l-54 -383q-10 -73 20.5 -105t110.5 -32t119.5 32t49.5 105l54 383h100l-54 -383q-15 -110 -87 -168.5t-194 -58.5z" />
    <glyph glyph-name="phi" unicode="&#x3c6;" 
d="M312 -200h-92l27 192q-109 11 -166.5 78.5t-40.5 186.5l13 92q12 82 41 149.5t69 118.5l82 -32q-33 -44 -61.5 -104t-38.5 -132l-13 -92q-11 -81 21 -127.5t105 -56.5l74 527h96q108 0 164.5 -69t36.5 -212l-9 -62q-17 -119 -93.5 -186.5t-187.5 -78.5zM413 520l-63 -447
q77 10 122 56.5t56 127.5l9 62q14 104 -17.5 152.5t-106.5 48.5z" />
    <glyph glyph-name="chi" unicode="&#x3c7;" 
d="M407 -200l-107 312l-201 -312h-97l269 396l-140 404h99l110 -316l205 316h97l-273 -400l139 -400h-101z" />
    <glyph glyph-name="psi" unicode="&#x3c8;" 
d="M312 -200h-92l27 192q-126 10 -175 75.5t-35 169.5l51 363h92l-51 -363q-10 -72 21.5 -110t109.5 -45l72 518h92l-72 -518q80 7 121.5 45t51.5 110l51 363h92l-51 -363q-14 -104 -82 -169.5t-196 -75.5z" />
    <glyph glyph-name="omega" unicode="&#x3c9;" 
d="M153 -10q-67 0 -100 60.5t-17 176.5l14 102q13 89 42.5 169t60.5 119l82 -32q-21 -33 -51.5 -105t-41.5 -151l-14 -102q-10 -73 3.5 -110t53.5 -37q37 0 59.5 27t31.5 90l37 263h92l-37 -263q-9 -63 5.5 -90t51.5 -27q39 0 64 37t35 110l14 102q11 79 1.5 151t-22.5 105
l92 32q19 -39 26.5 -119t-5.5 -169l-14 -102q-16 -116 -66 -176.5t-117 -60.5q-45 0 -77.5 29.5t-38.5 98.5h-12q-26 -69 -66.5 -98.5t-85.5 -29.5z" />
    <glyph glyph-name="iotadieresis" unicode="&#x3ca;" 
d="M439 -5q-92 0 -136.5 53t-31.5 146l45 316h-220l12 90h320l-57 -407q-7 -53 13.5 -80t70.5 -27q22 0 52.5 5.5t50.5 13.5l8 -87q-26 -10 -59 -16.5t-68 -6.5zM274 710q-29 0 -45.5 12t-11.5 45l1 7q5 34 24.5 46.5t48.5 12.5t45.5 -12.5t11.5 -46.5l-1 -7q-5 -33 -25 -45
t-48 -12zM504 710q-29 0 -45.5 12t-11.5 45l1 7q5 34 24.5 46.5t48.5 12.5t45.5 -12.5t11.5 -46.5l-1 -7q-5 -33 -25 -45t-48 -12z" />
    <glyph glyph-name="upsilondieresis" unicode="&#x3cb;" 
d="M293 -10q-122 0 -178 58.5t-41 168.5l54 383h100l-54 -383q-10 -73 20.5 -105t110.5 -32t119.5 32t49.5 105l54 383h100l-54 -383q-15 -110 -87 -168.5t-194 -58.5zM279 710q-29 0 -45.5 12t-11.5 45l1 7q5 34 24.5 46.5t48.5 12.5t45.5 -12.5t11.5 -46.5l-1 -7
q-5 -33 -25 -45t-48 -12zM509 710q-29 0 -45.5 12t-11.5 45l1 7q5 34 24.5 46.5t48.5 12.5t45.5 -12.5t11.5 -46.5l-1 -7q-5 -33 -25 -45t-48 -12z" />
    <glyph glyph-name="omicrontonos" unicode="&#x3cc;" 
d="M293 -10q-121 0 -177.5 58.5t-41.5 168.5l23 162q16 111 89.5 171t194.5 60q120 0 176 -60t40 -171l-23 -162q-15 -110 -87.5 -168.5t-193.5 -58.5zM305 80q76 0 118 34t51 103l23 162q10 72 -22 106.5t-108 34.5t-118 -34.5t-52 -106.5l-23 -162q-9 -69 23 -103t108 -34
zM318 700l104 200h140l-163 -200h-81z" />
    <glyph glyph-name="upsilontonos" unicode="&#x3cd;" 
d="M293 -10q-122 0 -178 58.5t-41 168.5l54 383h100l-54 -383q-10 -73 20.5 -105t110.5 -32t119.5 32t49.5 105l54 383h100l-54 -383q-15 -110 -87 -168.5t-194 -58.5zM318 700l104 200h140l-163 -200h-81z" />
    <glyph glyph-name="omegatonos" unicode="&#x3ce;" 
d="M153 -10q-67 0 -100 60.5t-17 176.5l14 102q13 89 42.5 169t60.5 119l82 -32q-21 -33 -51.5 -105t-41.5 -151l-14 -102q-10 -73 3.5 -110t53.5 -37q37 0 59.5 27t31.5 90l37 263h92l-37 -263q-9 -63 5.5 -90t51.5 -27q39 0 64 37t35 110l14 102q11 79 1.5 151t-22.5 105
l92 32q19 -39 26.5 -119t-5.5 -169l-14 -102q-16 -116 -66 -176.5t-117 -60.5q-45 0 -77.5 29.5t-38.5 98.5h-12q-26 -69 -66.5 -98.5t-85.5 -29.5zM328 700l104 200h140l-163 -200h-81z" />
    <glyph glyph-name="IEgravecyrillic" unicode="&#x400;" 
d="M44 0l112 800h520l-12 -90h-420l-33 -230h370l-12 -90h-370l-42 -300h420l-13 -90h-520zM447 900l-167 200h150l108 -200h-91z" />
    <glyph glyph-name="Iocyrillic" unicode="&#x401;" 
d="M44 0l112 800h520l-12 -90h-420l-33 -230h370l-12 -90h-370l-42 -300h420l-13 -90h-520zM333 910q-29 0 -45.5 12t-11.5 45l1 7q5 34 24.5 46.5t48.5 12.5t45.5 -12.5t11.5 -46.5l-1 -7q-5 -33 -25 -45t-48 -12zM563 910q-29 0 -45.5 12t-11.5 45l1 7q5 34 24.5 46.5
t48.5 12.5t45.5 -12.5t11.5 -46.5l-1 -7q-5 -33 -25 -45t-48 -12z" />
    <glyph glyph-name="Djecyrillic" unicode="&#x402;" 
d="M124 0l100 710h-150l12 90h500l-12 -90h-250l-27 -190h130q117 0 166 -52t34 -159l-13 -98q-15 -107 -79 -159t-181 -52l12 88q60 0 99 27t49 98l13 94q10 71 -21 98t-91 27h-130l-61 -432h-100z" />
    <glyph glyph-name="Gjecyrillic" unicode="&#x403;" 
d="M44 0l112 800h520l-12 -90h-420l-100 -710h-100zM347 900l164 200h150l-223 -200h-91z" />
    <glyph glyph-name="Ecyrillic" unicode="&#x404;" 
d="M620 257q-25 -132 -105.5 -199.5t-211.5 -67.5q-139 0 -199.5 72t-40.5 215l34 242q20 144 101 217.5t221 73.5q131 0 192 -68.5t49 -202.5l-102 -10q6 104 -29 147.5t-124 43.5q-98 0 -145.5 -45.5t-62.5 -155.5l-6 -39h227l-12 -90h-227l-16 -113q-15 -107 19.5 -152
t132.5 -45q90 0 137 43t70 144z" />
    <glyph glyph-name="Dzecyrillic" unicode="&#x405;" 
d="M306 -6q-90 0 -164 29t-125 106l82 68q34 -57 88.5 -85t134.5 -28q74 0 124.5 34.5t58.5 93.5q8 57 -27 87.5t-145 64.5q-140 42 -186 91t-34 139q15 104 92 157t176 53q84 0 155.5 -29.5t118.5 -104.5l-79 -69q-32 57 -88 85t-118 28q-63 0 -104.5 -25.5t-49.5 -85.5
q-8 -53 29.5 -83.5t154.5 -65.5q132 -40 176 -87.5t31 -137.5q-16 -115 -106.5 -175t-194.5 -60z" />
    <glyph glyph-name="Icyrillic" unicode="&#x406;" 
d="M44 0l13 90h200l87 620h-200l12 90h500l-12 -90h-200l-87 -620h200l-13 -90h-500z" />
    <glyph glyph-name="Yicyrillic" unicode="&#x407;" 
d="M44 0l13 90h200l87 620h-200l12 90h500l-12 -90h-200l-87 -620h200l-13 -90h-500zM303 910q-29 0 -45.5 12t-11.5 45l1 7q5 34 24.5 46.5t48.5 12.5t45.5 -12.5t11.5 -46.5l-1 -7q-5 -33 -25 -45t-48 -12zM533 910q-29 0 -45.5 12t-11.5 45l1 7q5 34 24.5 46.5t48.5 12.5
t45.5 -12.5t11.5 -46.5l-1 -7q-5 -33 -25 -45t-48 -12z" />
    <glyph glyph-name="Jecyrillic" unicode="&#x408;" 
d="M272 -10q-131 0 -187.5 65t-44.5 202l102 11q-9 -112 20.5 -150t122.5 -38q86 0 134.5 44.5t60.5 134.5l64 451h-200l12 90h300l-75 -540q-19 -131 -98 -200.5t-211 -69.5z" />
    <glyph glyph-name="Ljecyrillic" unicode="&#x409;" 
d="M142 164q-14 -91 -57.5 -130.5t-96.5 -39.5q-16 -1 -31.5 2t-30.5 8l32 91q9 -3 17.5 -5.5t17.5 -2.5q19 -1 35 15.5t24 69.5l100 628h300l-39 -280h44q99 0 142 -53.5t28 -157.5l-13 -98q-15 -104 -72.5 -157.5t-156.5 -53.5h-137l100 710h-119zM353 90h44q49 0 82 27
t43 98l13 92q10 71 -15.5 98t-74.5 27h-44z" />
    <glyph glyph-name="Njecyrillic" unicode="&#x40a;" 
d="M353 90h54q45 0 75 27t40 98l13 92q10 71 -12.5 98t-67.5 27h-54zM151 390l-55 -390h-92l112 800h92l-45 -320h152l45 320h92l-39 -280h54q94 0 134.5 -53.5t25.5 -157.5l-13 -98q-15 -104 -70 -157.5t-149 -53.5h-147l55 390h-152z" />
    <glyph glyph-name="Tshecyrillic" unicode="&#x40b;" 
d="M214 0h-100l100 710h-150l12 90h500l-12 -90h-250l-31 -220h140q114 0 164.5 -53.5t35.5 -157.5l-39 -279h-100l39 277q9 68 -16.5 96.5t-96.5 28.5h-140z" />
    <glyph glyph-name="Kjecyrillic" unicode="&#x40c;" 
d="M197 380l-53 -380h-100l112 800h100l-46 -330h34l355 330h116l-394 -368l279 -432h-120l-246 380h-37zM370 900l164 200h150l-223 -200h-91z" />
    <glyph glyph-name="Igravecyrillic" unicode="&#x40d;" 
d="M454 0l95 674l-362 -674h-143l112 800h90l-96 -689l369 689h137l-112 -800h-90zM407 900l-167 200h150l108 -200h-91z" />
    <glyph glyph-name="Ushortcyrillic" unicode="&#x40e;" 
d="M138 -1q-20 0 -41.5 3t-43.5 7l30 90q22 -5 41 -7.5t35 -2.5q48 0 76.5 24.5t56.5 75.5l5 11h-38l-159 600h100l134 -532l281 532h96l-349 -645q-49 -89 -105 -122.5t-119 -33.5zM415 893q-88 0 -143 45t-40 155l101 10q-9 -71 10.5 -101t82.5 -30t91.5 30t39.5 101
l99 -10q-17 -110 -85 -155t-156 -45z" />
    <glyph glyph-name="Dzhecyrillic" unicode="&#x40f;" 
d="M223 -150l21 150h-200l112 800h100l-99 -710h300l99 710h100l-112 -800h-200l-21 -150h-100z" />
    <glyph glyph-name="Acyrillic" unicode="&#x410;" 
d="M448 320l-58 367l-163 -367h221zM499 0l-37 230h-275l-101 -230h-102l370 800h105l146 -800h-106z" />
    <glyph glyph-name="Becyrillic" unicode="&#x411;" 
d="M44 0l112 800h475l-12 -90h-375l-35 -250h184q110 0 162.5 -51t39.5 -146l-7 -52q-15 -101 -82 -156t-177 -55h-285zM157 90h164q81 0 119.5 28.5t47.5 97.5l5 32q9 67 -21.5 95.5t-111.5 28.5h-164z" />
    <glyph glyph-name="Vecyrillic" unicode="&#x412;" 
d="M44 0l112 800h248q125 0 178.5 -46t39.5 -142l-6 -45q-7 -51 -41 -85.5t-86 -43.5l-5 -29q65 -6 97 -49t22 -111l-6 -45q-15 -104 -88 -154t-210 -50h-255zM209 460h158q71 0 107 26.5t44 84.5l4 28q8 58 -20.5 84.5t-99.5 26.5h-158zM157 90h178q76 0 115 29.5t48 95.5
l5 32q9 66 -22 95.5t-107 29.5h-178z" />
    <glyph glyph-name="Gecyrillic" unicode="&#x413;" 
d="M44 0l112 800h520l-12 -90h-420l-100 -710h-100z" />
    <glyph glyph-name="Decyrillic" unicode="&#x414;" 
d="M143 115l-3 -25h297l87 620h-241l-60 -407q-11 -68 -26 -112.5t-54 -75.5zM54 0l-21 -150h-100l34 240h63q36 25 60 77.5t37 141.5l72 491h437l-99 -710h100l-34 -240h-100l21 150h-470z" />
    <glyph glyph-name="Iecyrillic" unicode="&#x415;" 
d="M44 0l112 800h520l-12 -90h-420l-33 -230h370l-12 -90h-370l-42 -300h420l-13 -90h-520z" />
    <glyph glyph-name="Zhecyrillic" unicode="&#x416;" 
d="M262 385l-214 -385h-100l248 432l-134 368h95l116 -335h42l47 335h90l-47 -335h42l209 335h95l-236 -368l126 -432h-100l-105 385h-42l-54 -385h-90l54 385h-42z" />
    <glyph glyph-name="Zecyrillic" unicode="&#x417;" 
d="M283 -10q-133 0 -190.5 54.5t-48.5 172.5l102 10q-3 -81 31 -115t118 -34q98 0 143.5 32t55.5 107l4 27q11 74 -23.5 105t-127.5 31h-100l13 90h100q81 0 119 24.5t46 81.5l4 32q9 62 -24 88t-120 26q-74 0 -112.5 -30.5t-55.5 -103.5l-99 10q23 110 90.5 161t189.5 51
q121 0 184 -47t47 -155l-4 -32q-8 -60 -54.5 -95t-121.5 -40l-4 -29q88 -7 125 -55t28 -113l-4 -27q-15 -108 -85.5 -167.5t-225.5 -59.5z" />
    <glyph glyph-name="Iicyrillic" unicode="&#x418;" 
d="M454 0l95 674l-362 -674h-143l112 800h90l-96 -689l369 689h137l-112 -800h-90z" />
    <glyph glyph-name="Iishortcyrillic" unicode="&#x419;" 
d="M454 0l95 674l-362 -674h-143l112 800h90l-96 -689l369 689h137l-112 -800h-90zM425 893q-88 0 -143 45t-40 155l101 10q-9 -71 10.5 -101t82.5 -30t91.5 30t39.5 101l99 -10q-17 -110 -85 -155t-156 -45z" />
    <glyph glyph-name="Kacyrillic" unicode="&#x41a;" 
d="M197 380l-53 -380h-100l112 800h100l-46 -330h34l355 330h116l-394 -368l279 -432h-120l-246 380h-37z" />
    <glyph glyph-name="Elcyrillic" unicode="&#x41b;" 
d="M444 0l100 710h-241l-70 -475q-19 -128 -74.5 -186.5t-136.5 -58.5q-23 0 -43.5 3.5t-37.5 8.5l30 88q15 -5 28 -7.5t26 -2.5q46 0 73.5 40.5t40.5 127.5l80 552h437l-112 -800h-100z" />
    <glyph glyph-name="Emcyrillic" unicode="&#x41c;" 
d="M274 200l-80 439l-90 -639h-90l112 800h135l81 -481l214 481h130l-112 -800h-90l90 640l-204 -440h-96z" />
    <glyph glyph-name="Encyrillic" unicode="&#x41d;" 
d="M44 0l112 800h100l-45 -320h300l45 320h100l-112 -800h-100l55 390h-300l-55 -390h-100z" />
    <glyph glyph-name="Ocyrillic" unicode="&#x41e;" 
d="M293 -10q-132 0 -191 73.5t-39 213.5l34 242q20 142 100 216.5t212 74.5q131 0 189.5 -74.5t38.5 -216.5l-34 -242q-20 -140 -99 -213.5t-211 -73.5zM305 80q92 0 137.5 45t60.5 152l34 242q15 109 -17.5 155t-124.5 46t-137.5 -46t-60.5 -155l-34 -242
q-15 -107 17.5 -152t124.5 -45z" />
    <glyph glyph-name="Pecyrillic" unicode="&#x41f;" 
d="M44 0l112 800h500l-112 -800h-100l100 710h-300l-100 -710h-100z" />
    <glyph glyph-name="Ercyrillic" unicode="&#x420;" 
d="M44 0l112 800h281q125 0 180 -52.5t40 -158.5l-14 -98q-15 -106 -85 -158.5t-195 -52.5h-180l-39 -280h-100zM196 368h180q81 0 119.5 28.5t47.5 96.5l13 92q10 68 -20.5 96.5t-111.5 28.5h-180z" />
    <glyph glyph-name="Escyrillic" unicode="&#x421;" 
d="M303 -10q-140 0 -200 71.5t-40 215.5l34 242q20 146 100.5 218.5t221.5 72.5q138 0 195.5 -64.5t45.5 -206.5l-102 -10q6 108 -27 149.5t-126 41.5q-99 0 -146 -45.5t-62 -155.5l-34 -242q-15 -108 19 -152.5t133 -44.5q93 0 137.5 40.5t69.5 146.5l98 -10
q-28 -140 -103 -203.5t-214 -63.5z" />
    <glyph glyph-name="Tecyrillic" unicode="&#x422;" 
d="M244 0l100 710h-250l12 90h600l-12 -90h-250l-100 -710h-100z" />
    <glyph glyph-name="Ucyrillic" unicode="&#x423;" 
d="M138 -1q-20 0 -41.5 3t-43.5 7l30 90q22 -5 41 -7.5t35 -2.5q48 0 76.5 24.5t56.5 75.5l5 11h-38l-159 600h100l134 -532l281 532h96l-349 -645q-49 -89 -105 -122.5t-119 -33.5z" />
    <glyph glyph-name="Efcyrillic" unicode="&#x424;" 
d="M390 90h-33l-14 -100h-100l14 100h-32q-113 0 -155.5 74t-25.5 193l12 82q17 121 80 196t176 75h32l14 100h100l-14 -100h33q113 0 154.5 -75t24.5 -196l-12 -82q-17 -119 -79 -193t-175 -74zM464 620h-38l-62 -440h38q63 0 96 40.5t46 136.5l12 82q14 99 -7.5 140
t-84.5 41zM237 180h37l62 440h-37q-64 0 -96.5 -41t-46.5 -140l-12 -82q-13 -96 8 -136.5t85 -40.5z" />
    <glyph glyph-name="Khacyrillic" unicode="&#x425;" 
d="M508 0l-167 328l-260 -328h-117l336 408l-199 392h115l159 -312l247 312h116l-323 -391l208 -409h-115z" />
    <glyph glyph-name="Tsecyrillic" unicode="&#x426;" 
d="M473 -150l21 150h-450l112 800h100l-99 -710h250l99 710h100l-99 -710h100l-34 -240h-100z" />
    <glyph glyph-name="Checyrillic" unicode="&#x427;" 
d="M656 800l-112 -800h-100l39 280h-150q-136 0 -186 48t-34 163l43 309h100l-43 -307q-9 -68 21.5 -96.5t111.5 -28.5h150l60 432h100z" />
    <glyph glyph-name="Shacyrillic" unicode="&#x428;" 
d="M4 0l112 800h92l-100 -714h152l100 714h92l-100 -714h152l100 714h92l-112 -800h-580z" />
    <glyph glyph-name="Shchacyrillic" unicode="&#x429;" 
d="M608 -150h-97l21 150h-528l112 800h92l-100 -714h152l100 714h92l-100 -714h152l100 714h92l-100 -714h45z" />
    <glyph glyph-name="Hardsigncyrillic" unicode="&#x42a;" 
d="M365 0h-221l100 710h-190l12 90h290l-39 -280h120q119 0 167.5 -50.5t32.5 -160.5l-13 -98q-16 -110 -78 -160.5t-181 -50.5zM257 90h120q71 0 104.5 28.5t42.5 96.5l13 92q10 68 -15.5 96.5t-96.5 28.5h-120z" />
    <glyph glyph-name="Yericyrillic" unicode="&#x42b;" 
d="M24 0l112 800h92l-39 -280h58q103 0 144.5 -51t25.5 -160l-13 -98q-16 -109 -71.5 -160t-157.5 -51h-151zM472 0l112 800h92l-112 -800h-92zM128 86h58q49 0 82.5 28t43.5 101l13 92q10 73 -15.5 101t-74.5 28h-58z" />
    <glyph glyph-name="Softsigncyrillic" unicode="&#x42c;" 
d="M44 0l112 800h100l-39 -280h180q129 0 182.5 -51t37.5 -160l-13 -98q-16 -109 -83.5 -160t-195.5 -51h-281zM157 90h180q68 0 112.5 27t54.5 98l13 92q10 71 -26.5 98t-105.5 27h-180z" />
    <glyph glyph-name="Ereversedcyrillic" unicode="&#x42d;" 
d="M303 -10q-129 0 -191.5 65t-51.5 202l102 10q-6 -101 29 -144t124 -43q98 0 145.5 45t62.5 152l16 113h-267l12 90h267l6 39q15 110 -19.5 155.5t-132.5 45.5q-89 0 -136 -43.5t-71 -147.5l-98 10q27 140 108 205.5t209 65.5q145 0 203 -70.5t37 -220.5l-34 -242
q-21 -148 -98.5 -217.5t-221.5 -69.5z" />
    <glyph glyph-name="IUcyrillic" unicode="&#x42e;" 
d="M388 -10q-101 0 -138.5 70.5t-20.5 186.5l20 147h-98l-55 -394h-92l112 800h92l-45 -324h98l10 73q17 119 74.5 190t158.5 71t137.5 -71t19.5 -190l-42 -302q-17 -116 -73 -186.5t-158 -70.5zM400 76q56 0 85 39t42 132l42 302q14 95 -4 134.5t-74 39.5t-85 -39.5
t-43 -134.5l-42 -302q-13 -93 5 -132t74 -39z" />
    <glyph glyph-name="IAcyrillic" unicode="&#x42f;" 
d="M300 398h200l44 312h-200q-81 0 -119.5 -27.5t-47.5 -93.5l-9 -62q-10 -70 20.5 -99.5t111.5 -29.5zM488 310h-145l-238 -310h-120l248 313q-99 10 -139 62.5t-26 151.5l9 62q15 109 82.5 160t195.5 51h301l-112 -800h-100z" />
    <glyph glyph-name="acyrillic" unicode="&#x430;" 
d="M233 76q52 0 98.5 18.5t84.5 64.5l14 96h-180q-43 0 -74.5 -19.5t-38.5 -68.5q-6 -43 15.5 -67t80.5 -24zM208 -10q-76 0 -130 40.5t-41 130.5q11 79 68.5 124t126.5 45h208l12 86q7 48 -21 76t-93 28q-66 0 -101 -19.5t-64 -86.5l-84 24q29 85 94.5 128.5t165.5 43.5
q99 0 158.5 -44.5t46.5 -137.5l-38 -268q-7 -54 21 -67.5t90 -3.5l-13 -92q-64 -9 -116 8.5t-46 94.5h-20q-34 -46 -94.5 -78t-129.5 -32z" />
    <glyph glyph-name="becyrillic" unicode="&#x431;" 
d="M293 -10q-112 0 -173.5 56.5t-43.5 179.5l41 291q17 123 95 182.5t184 77.5l218 37l3 -86l-218 -37q-86 -14 -134 -56.5t-61 -135.5l-5 -33h23q21 30 66 52t118 22q106 0 152 -56t33 -152l-16 -112q-16 -116 -93 -173t-189 -57zM304 80q81 0 120 34.5t49 103.5l14 103
q9 64 -20.5 96t-110.5 32t-119.5 -32t-47.5 -96l-14 -103q-10 -69 19 -103.5t110 -34.5z" />
    <glyph glyph-name="vecyrillic" unicode="&#x432;" 
d="M44 0l84 600h246q129 0 187 -37.5t47 -115.5l-2 -14q-7 -48 -48 -75.5t-105 -31.5l-3 -22q77 -5 111 -41t27 -86l-2 -10q-11 -84 -84.5 -125.5t-211.5 -41.5h-246zM194 354h154q84 0 117.5 14.5t38.5 54.5l2 14q6 43 -24.5 59.5t-119.5 16.5h-146zM156 87h146
q99 0 139 19.5t47 70.5l1 10q7 50 -25 68.5t-127 18.5h-154z" />
    <glyph glyph-name="gecyrillic" unicode="&#x433;" 
d="M94 0l84 600h460l-12 -90h-360l-72 -510h-100z" />
    <glyph glyph-name="decyrillic" unicode="&#x434;" 
d="M186 115l-3 -25h234l59 420h-191l-39 -257q-8 -44 -21.5 -78t-38.5 -60zM84 0l-21 -150h-100l34 240h73q31 21 50.5 61t29.5 108l51 341h387l-71 -510h100l-34 -240h-100l21 150h-420z" />
    <glyph glyph-name="iecyrillic" unicode="&#x435;" 
d="M565 132q-38 -75 -97.5 -108.5t-173.5 -33.5q-119 0 -177 57.5t-42 170.5l22 161q17 116 94.5 173.5t189.5 57.5q113 0 172.5 -58.5t42.5 -179.5l-13 -92h-400l-9 -63q-10 -75 23 -108.5t108 -33.5q72 0 107.5 20t58.5 65zM197 379l-3 -24h300l2 15q11 81 -21 118
t-107 37t-117.5 -35.5t-53.5 -110.5z" />
    <glyph glyph-name="zhecyrillic" unicode="&#x436;" 
d="M258 285l-184 -285h-102l220 330l-139 270h102l114 -235h31l33 235h90l-33 -235h31l180 235h102l-214 -269l127 -331h-102l-104 285h-31l-40 -285h-90l40 285h-31z" />
    <glyph glyph-name="zecyrillic" unicode="&#x437;" 
d="M289 -10q-134 0 -189.5 44.5t-48.5 147.5l100 7q-2 -66 32.5 -89t117.5 -23q96 0 137 20t50 80l1 10q8 57 -26 77t-125 20h-56l11 80h56q80 0 115.5 14t41.5 54l2 14q6 46 -26.5 61.5t-117.5 15.5q-73 0 -110 -20.5t-53 -80.5l-98 8q21 97 84.5 138.5t188.5 41.5
q118 0 181 -36.5t52 -121.5l-2 -14q-7 -48 -48 -75.5t-105 -31.5l-4 -22q78 -5 111.5 -43t26.5 -89l-2 -10q-11 -84 -78.5 -130.5t-218.5 -46.5z" />
    <glyph glyph-name="iicyrillic" unicode="&#x438;" 
d="M449 0l68 482l-340 -482h-133l84 600h95l-69 -490l347 490h127l-84 -600h-95z" />
    <glyph glyph-name="iishortcyrillic" unicode="&#x439;" 
d="M449 0l68 482l-340 -482h-133l84 600h95l-69 -490l347 490h127l-84 -600h-95zM391 693q-88 0 -143 45t-40 155l101 10q-9 -71 10.5 -101t82.5 -30t91.5 30t39.5 101l99 -10q-17 -110 -85 -155t-156 -45z" />
    <glyph glyph-name="kacyrillic" unicode="&#x43a;" 
d="M232 273l-38 -273h-100l84 600h100l-34 -243h51l226 243h122l-274 -279l187 -321h-114l-159 273h-51z" />
    <glyph glyph-name="elcyrillic" unicode="&#x43b;" 
d="M444 0l72 510h-221l-42 -275q-19 -128 -74.5 -186.5t-136.5 -58.5q-20 0 -38 4t-33 8l30 88q17 -6 26.5 -8t17.5 -2q50 0 75 36.5t39 131.5l52 352h417l-84 -600h-100z" />
    <glyph glyph-name="emcyrillic" unicode="&#x43c;" 
d="M262 150l-67 354l-71 -504h-90l84 600h155l58 -356l157 356h150l-84 -600h-90l68 501l-164 -351h-106z" />
    <glyph glyph-name="encyrillic" unicode="&#x43d;" 
d="M44 0l84 600h100l-29 -210h300l29 210h100l-84 -600h-100l42 300h-300l-42 -300h-100z" />
    <glyph glyph-name="ocyrillic" unicode="&#x43e;" 
d="M293 -10q-121 0 -177.5 58.5t-41.5 168.5l23 162q16 111 89.5 171t194.5 60q120 0 176 -60t40 -171l-23 -162q-15 -110 -87.5 -168.5t-193.5 -58.5zM305 80q76 0 118 34t51 103l23 162q10 72 -22 106.5t-108 34.5t-118 -34.5t-52 -106.5l-23 -162q-9 -69 23 -103t108 -34
z" />
    <glyph glyph-name="pecyrillic" unicode="&#x43f;" 
d="M44 0l84 600h500l-84 -600h-100l72 510h-300l-72 -510h-100z" />
    <glyph glyph-name="ercyrillic" unicode="&#x440;" 
d="M296 78q84 0 126.5 34t52.5 109l23 162q10 69 -14.5 100.5t-87.5 31.5q-50 0 -96.5 -25t-97.5 -80l-42 -294q29 -19 61 -28.5t75 -9.5zM285 -10q-34 0 -70.5 7.5t-67.5 20.5l-31 -218h-100l112 800h100l-14 -100h30q32 51 84 80.5t107 29.5q90 0 133.5 -61.5t29.5 -166.5
l-23 -163q-15 -106 -93 -167.5t-197 -61.5z" />
    <glyph glyph-name="escyrillic" unicode="&#x441;" 
d="M307 -10q-131 0 -189.5 57.5t-43.5 169.5l23 162q16 114 91 172.5t205 58.5q116 0 171 -52.5t48 -153.5l-99 -6q5 62 -28 92t-106 30q-82 0 -127 -34.5t-55 -106.5l-23 -162q-9 -69 26.5 -103t118.5 -34q72 0 112.5 25.5t51.5 76.5l97 -6q-20 -92 -88.5 -139t-184.5 -47z
" />
    <glyph glyph-name="tecyrillic" unicode="&#x442;" 
d="M244 0l72 510h-230l12 90h560l-12 -90h-230l-72 -510h-100z" />
    <glyph glyph-name="ucyrillic" unicode="&#x443;" 
d="M87 -206q-24 0 -46.5 3t-45.5 8l29 89q25 -6 47 -9t41 -3q46 0 85.5 26t66.5 83l4 9h-37l-129 600h109l97 -516l240 516h105l-307 -620q-47 -97 -112 -141.5t-147 -44.5z" />
    <glyph glyph-name="efcyrillic" unicode="&#x444;" 
d="M372 0h-32l-28 -200h-92l28 200h-32q-99 0 -146.5 63.5t-31.5 175.5l17 122q15 112 80.5 175.5t164.5 63.5h32l28 200h92l-28 -200h32q99 0 146.5 -63.5t32.5 -175.5l-17 -122q-16 -112 -81.5 -175.5t-164.5 -63.5zM239 85h26l60 430h-26q-65 0 -103.5 -40t-49.5 -118
l-16 -116q-11 -78 16.5 -117t92.5 -39zM433 515h-26l-60 -430h26q65 0 103.5 39t49.5 117l16 116q11 78 -16.5 118t-92.5 40z" />
    <glyph glyph-name="khacyrillic" unicode="&#x445;" 
d="M443 0l-123 229l-180 -229h-111l252 301l-161 299h112l118 -220l182 220h111l-253 -294l165 -306h-112z" />
    <glyph glyph-name="tsecyrillic" unicode="&#x446;" 
d="M478 -150l21 150h-455l84 600h100l-71 -510h250l71 510h100l-71 -510h100l-34 -240h-95z" />
    <glyph glyph-name="checyrillic" unicode="&#x447;" 
d="M578 600l-84 -600h-100l30 211q-27 -10 -60.5 -15.5t-72.5 -5.5q-122 0 -173.5 54.5t-35.5 166.5l26 189h100l-26 -187q-11 -77 23 -105.5t99 -29.5q41 -1 76.5 8t56.5 21l41 293h100z" />
    <glyph glyph-name="shacyrillic" unicode="&#x448;" 
d="M4 0l84 600h92l-72 -518h152l72 518h92l-72 -518h152l72 518h92l-84 -600h-580z" />
    <glyph glyph-name="shchacyrillic" unicode="&#x449;" 
d="M618 -150h-92l21 150h-543l84 600h92l-72 -518h152l72 518h92l-72 -518h152l72 518h92l-71 -510h55z" />
    <glyph glyph-name="hardsigncyrillic" unicode="&#x44a;" 
d="M365 0h-271l72 510h-150l12 90h250l-28 -200h170q99 0 148 -47t37 -130l-6 -42q-12 -85 -74 -133t-160 -48zM207 90h150q68 0 102 21.5t40 69.5l6 42q7 47 -21 68t-96 21h-150z" />
    <glyph glyph-name="yericyrillic" unicode="&#x44b;" 
d="M24 0l84 600h92l-28 -200h88q84 0 125.5 -47t29.5 -130l-6 -42q-12 -85 -66 -133t-138 -48h-181zM472 0l84 600h92l-84 -600h-92zM128 86h68q57 0 85.5 22.5t35.5 72.5l6 42q7 49 -15.5 71t-79.5 22h-68z" />
    <glyph glyph-name="softsigncyrillic" unicode="&#x44c;" 
d="M44 0l84 600h100l-28 -200h220q99 0 148 -47t37 -130l-6 -42q-12 -85 -74 -133t-160 -48h-321zM157 90h200q68 0 102 21.5t40 69.5l6 42q7 47 -21 68t-96 21h-200z" />
    <glyph glyph-name="ereversedcyrillic" unicode="&#x44d;" 
d="M279 -10q-116 0 -171.5 47t-49.5 139l99 6q-5 -51 28.5 -76.5t105.5 -25.5q83 0 128.5 34t54.5 103l8 53h-227l11 80h227l4 29q10 72 -25 106.5t-117 34.5q-73 0 -114 -30t-54 -92l-97 6q21 101 91 153.5t186 52.5q130 0 188 -58.5t42 -172.5l-23 -162
q-15 -112 -89.5 -169.5t-205.5 -57.5z" />
    <glyph glyph-name="iucyrillic" unicode="&#x44e;" 
d="M388 -10q-101 0 -140.5 56t-25.5 151l13 93h-90l-41 -290h-100l84 600h100l-31 -220h90l3 19q14 96 69.5 153.5t156.5 57.5q102 0 140 -57.5t24 -153.5l-28 -202q-14 -95 -68 -151t-156 -56zM400 80q56 0 84.5 27.5t37.5 89.5l28 202q9 64 -11.5 92.5t-76.5 28.5
t-84.5 -28.5t-37.5 -92.5l-28 -202q-9 -62 11.5 -89.5t76.5 -27.5z" />
    <glyph glyph-name="iacyrillic" unicode="&#x44f;" 
d="M286 298h200l30 212h-200q-53 0 -79.5 -21t-33.5 -70l-3 -22q-8 -52 12.5 -75.5t73.5 -23.5zM474 210h-97l-219 -210h-123l219 211q-87 4 -127 51t-28 131l3 22q13 89 71 137t154 48h301l-84 -600h-100z" />
    <glyph glyph-name="iegravecyrillic" unicode="&#x450;" 
d="M565 132q-38 -75 -97.5 -108.5t-173.5 -33.5q-119 0 -177 57.5t-42 170.5l22 161q17 116 94.5 173.5t189.5 57.5q113 0 172.5 -58.5t42.5 -179.5l-13 -92h-400l-9 -63q-10 -75 23 -108.5t108 -33.5q72 0 107.5 20t58.5 65zM197 379l-3 -24h300l2 15q11 81 -21 118
t-107 37t-117.5 -35.5t-53.5 -110.5zM394 700l-167 200h150l108 -200h-91z" />
    <glyph glyph-name="iocyrillic" unicode="&#x451;" 
d="M565 132q-38 -75 -97.5 -108.5t-173.5 -33.5q-119 0 -177 57.5t-42 170.5l22 161q17 116 94.5 173.5t189.5 57.5q113 0 172.5 -58.5t42.5 -179.5l-13 -92h-400l-9 -63q-10 -75 23 -108.5t108 -33.5q72 0 107.5 20t58.5 65zM197 379l-3 -24h300l2 15q11 81 -21 118
t-107 37t-117.5 -35.5t-53.5 -110.5zM280 710q-29 0 -45.5 12t-11.5 45l1 7q5 34 24.5 46.5t48.5 12.5t45.5 -12.5t11.5 -46.5l-1 -7q-5 -33 -25 -45t-48 -12zM510 710q-29 0 -45.5 12t-11.5 45l1 7q5 34 24.5 46.5t48.5 12.5t45.5 -12.5t11.5 -46.5l-1 -7q-5 -33 -25 -45
t-48 -12z" />
    <glyph glyph-name="djecyrillic" unicode="&#x452;" 
d="M313 -208q-29 0 -60.5 6t-63.5 16l33 96q27 -10 52.5 -16t48.5 -6q47 0 80 27.5t42 91.5l49 347q7 54 -19.5 82.5t-83.5 28.5q-45 0 -95.5 -27t-100.5 -78l-51 -360h-100l89 630h-100l11 80h100l12 90h100l-12 -90h200l-11 -80h-200l-26 -180h30q29 51 83 80.5t117 29.5
q86 0 129 -49t31 -133l-54 -384q-14 -103 -78.5 -152.5t-151.5 -49.5z" />
    <glyph glyph-name="gjecyrillic" unicode="&#x453;" 
d="M94 0l84 600h460l-12 -90h-360l-72 -510h-100zM353 700l164 200h150l-223 -200h-91z" />
    <glyph glyph-name="ecyrillic" unicode="&#x454;" 
d="M580 176q-20 -92 -88.5 -139t-184.5 -47q-131 0 -189.5 57.5t-43.5 169.5l23 162q16 114 91 172.5t205 58.5q116 0 171 -52.5t48 -153.5l-99 -6q5 62 -28 92t-106 30q-82 0 -127 -34.5t-55 -106.5l-4 -29h227l-11 -80h-227l-8 -53q-9 -69 26.5 -103t118.5 -34
q72 0 112.5 25.5t51.5 76.5z" />
    <glyph glyph-name="dzecyrillic" unicode="&#x455;" 
d="M301 -10q-76 0 -144 22.5t-121 69.5l56 79q43 -40 100.5 -60.5t120.5 -20.5q52 0 102 16t57 68q6 43 -30.5 61t-138.5 31q-108 13 -159 51.5t-40 121.5q13 90 87.5 135.5t164.5 45.5q71 0 133 -24t112 -68l-56 -79q-41 37 -92 59t-110 22q-48 0 -90 -18t-49 -66
q-5 -41 28.5 -59.5t135.5 -31.5q113 -13 164 -55.5t40 -118.5q-13 -94 -95 -137.5t-176 -43.5z" />
    <glyph glyph-name="icyrillic" unicode="&#x456;" 
d="M44 0l13 90h200l59 420h-200l12 90h300l-71 -510h200l-13 -90h-500zM394 710q-38 0 -60 12t-17 45l1 7q5 34 30 46.5t63 12.5t60 -12.5t17 -46.5l-1 -7q-5 -33 -30.5 -45t-62.5 -12z" />
    <glyph glyph-name="yicyrillic" unicode="&#x457;" 
d="M44 0l13 90h200l59 420h-200l12 90h300l-71 -510h200l-13 -90h-500zM279 710q-29 0 -45.5 12t-11.5 45l1 7q5 34 24.5 46.5t48.5 12.5t45.5 -12.5t11.5 -46.5l-1 -7q-5 -33 -25 -45t-48 -12zM509 710q-29 0 -45.5 12t-11.5 45l1 7q5 34 24.5 46.5t48.5 12.5t45.5 -12.5
t11.5 -46.5l-1 -7q-5 -33 -25 -45t-48 -12z" />
    <glyph glyph-name="jecyrillic" unicode="&#x458;" 
d="M173 -208q-38 0 -75.5 4.5t-78.5 17.5l33 96q36 -13 67.5 -17.5t63.5 -4.5q65 0 109 27.5t53 91.5l71 503h-280l12 90h380l-85 -606q-14 -103 -90.5 -152.5t-179.5 -49.5zM491 710q-38 0 -60 12t-17 45l1 7q5 34 30 46.5t63 12.5t60 -12.5t17 -46.5l-1 -7
q-5 -33 -30.5 -45t-62.5 -12z" />
    <glyph glyph-name="ljecyrillic" unicode="&#x459;" 
d="M228 510l-62 -366q-13 -79 -58.5 -115.5t-102.5 -36.5q-17 0 -34.5 3t-34.5 9l33 96q11 -4 23.5 -7t22.5 -3q21 0 38 14t23 53l74 443h284l-28 -200h84q74 0 110.5 -46.5t25.5 -125.5l-9 -62q-10 -77 -59.5 -121.5t-122.5 -44.5h-177l72 510h-102zM362 86h64
q45 1 69.5 23t31.5 68l7 50q6 45 -12.5 67t-63.5 22h-64z" />
    <glyph glyph-name="njecyrillic" unicode="&#x45a;" 
d="M352 86h64q45 0 69.5 20t29.5 60l9 62q6 45 -12.5 66.5t-63.5 21.5h-64zM139 304l-43 -304h-92l84 600h92l-29 -210h152l29 210h92l-28 -200h84q74 0 110.5 -46.5t25.5 -125.5l-9 -62q-10 -77 -59.5 -121.5t-122.5 -44.5h-177l43 304h-152z" />
    <glyph glyph-name="tshecyrillic" unicode="&#x45b;" 
d="M195 360l-51 -360h-100l89 630h-100l11 80h100l12 90h100l-12 -90h200l-11 -80h-200l-26 -180h30q29 51 83 80.5t117 29.5q86 0 129 -49t31 -133l-53 -378h-100l50 354q8 56 -17.5 83.5t-85.5 27.5q-46 0 -94.5 -26t-101.5 -79z" />
    <glyph glyph-name="kjecyrillic" unicode="&#x45c;" 
d="M232 273l-38 -273h-100l84 600h100l-34 -243h51l226 243h122l-274 -279l187 -321h-114l-159 273h-51zM341 700l164 200h150l-223 -200h-91z" />
    <glyph glyph-name="igravecyrillic" unicode="&#x45d;" 
d="M449 0l68 482l-340 -482h-133l84 600h95l-69 -490l347 490h127l-84 -600h-95zM393 700l-167 200h150l108 -200h-91z" />
    <glyph glyph-name="ushortcyrillic" unicode="&#x45e;" 
d="M87 -206q-24 0 -46.5 3t-45.5 8l29 89q25 -6 47 -9t41 -3q46 0 85.5 26t66.5 83l4 9h-37l-129 600h109l97 -516l240 516h105l-307 -620q-47 -97 -112 -141.5t-147 -44.5zM391 693q-88 0 -143 45t-40 155l101 10q-9 -71 10.5 -101t82.5 -30t91.5 30t39.5 101l99 -10
q-17 -110 -85 -155t-156 -45z" />
    <glyph glyph-name="dzhecyrillic" unicode="&#x45f;" 
d="M225 -150l21 150h-202l84 600h100l-71 -510h300l71 510h100l-84 -600h-202l-21 -150h-96z" />
    <glyph glyph-name="Gheupturncyrillic" unicode="&#x490;" 
d="M44 0l112 800h420l22 150h100l-34 -240h-420l-100 -710h-100z" />
    <glyph glyph-name="gheupturncyrillic" unicode="&#x491;" 
d="M94 0l84 600h365l21 150h95l-33 -240h-360l-72 -510h-100z" />
    <glyph glyph-name="Wgrave" unicode="&#x1e80;" 
d="M412 0l-51 477l-185 -477h-100l4 800h99l-19 -653l168 453h105l42 -453l163 653h94l-220 -800h-100zM427 900l-167 200h150l108 -200h-91z" />
    <glyph glyph-name="wgrave" unicode="&#x1e81;" 
d="M382 0l-33 391l-139 -391h-114l-29 600h96l2 -527l138 427h118l28 -411l144 511h96l-197 -600h-110zM393 700l-167 200h150l108 -200h-91z" />
    <glyph glyph-name="Wacute" unicode="&#x1e82;" 
d="M412 0l-51 477l-185 -477h-100l4 800h99l-19 -653l168 453h105l42 -453l163 653h94l-220 -800h-100zM312 900l164 200h150l-223 -200h-91z" />
    <glyph glyph-name="wacute" unicode="&#x1e83;" 
d="M382 0l-33 391l-139 -391h-114l-29 600h96l2 -527l138 427h118l28 -411l144 511h96l-197 -600h-110zM278 700l164 200h150l-223 -200h-91z" />
    <glyph glyph-name="Wdieresis" unicode="&#x1e84;" 
d="M412 0l-51 477l-185 -477h-100l4 800h99l-19 -653l168 453h105l42 -453l163 653h94l-220 -800h-100zM303 910q-29 0 -45.5 12t-11.5 45l1 7q5 34 24.5 46.5t48.5 12.5t45.5 -12.5t11.5 -46.5l-1 -7q-5 -33 -25 -45t-48 -12zM533 910q-29 0 -45.5 12t-11.5 45l1 7
q5 34 24.5 46.5t48.5 12.5t45.5 -12.5t11.5 -46.5l-1 -7q-5 -33 -25 -45t-48 -12z" />
    <glyph glyph-name="wdieresis" unicode="&#x1e85;" 
d="M382 0l-33 391l-139 -391h-114l-29 600h96l2 -527l138 427h118l28 -411l144 511h96l-197 -600h-110zM279 710q-29 0 -45.5 12t-11.5 45l1 7q5 34 24.5 46.5t48.5 12.5t45.5 -12.5t11.5 -46.5l-1 -7q-5 -33 -25 -45t-48 -12zM509 710q-29 0 -45.5 12t-11.5 45l1 7
q5 34 24.5 46.5t48.5 12.5t45.5 -12.5t11.5 -46.5l-1 -7q-5 -33 -25 -45t-48 -12z" />
    <glyph glyph-name="Ygrave" unicode="&#x1ef2;" 
d="M344 0h-100l42 300l-216 500h112l173 -410l276 410h110l-355 -500zM417 900l-167 200h150l108 -200h-91z" />
    <glyph glyph-name="ygrave" unicode="&#x1ef3;" 
d="M87 -206q-24 0 -46.5 3t-45.5 8l29 89q25 -6 47 -9t41 -3q46 0 85.5 26t66.5 83l4 9h-37l-129 600h109l97 -516l240 516h105l-307 -620q-47 -97 -112 -141.5t-147 -44.5zM393 700l-167 200h150l108 -200h-91z" />
    <glyph glyph-name="uni2000" unicode="&#x2000;" 
 />
    <glyph glyph-name="uni2001" unicode="&#x2001;" 
 />
    <glyph glyph-name="uni2002" unicode="&#x2002;" 
 />
    <glyph glyph-name="uni2003" unicode="&#x2003;" 
 />
    <glyph glyph-name="uni2004" unicode="&#x2004;" 
 />
    <glyph glyph-name="uni2005" unicode="&#x2005;" 
 />
    <glyph glyph-name="uni2007" unicode="&#x2007;" 
 />
    <glyph glyph-name="uni2009" unicode="&#x2009;" 
 />
    <glyph glyph-name="uni200A" unicode="&#x200a;" 
 />
    <glyph glyph-name="uni200B" unicode="&#x200b;" horiz-adv-x="0" 
 />
    <glyph glyph-name="endash" unicode="&#x2013;" 
d="M86 300l14 100h500l-14 -100h-500z" />
    <glyph glyph-name="emdash" unicode="&#x2014;" 
d="M-14 300l14 100h700l-14 -100h-700z" />
    <glyph glyph-name="horizontalbar" unicode="&#x2015;" 
d="M-14 300l14 100h700l-14 -100h-700z" />
    <glyph glyph-name="underscoredbl" unicode="&#x2017;" 
d="M-14 0l14 100h560l-14 -100h-560zM-14 -200l14 100h560l-14 -100h-560z" />
    <glyph glyph-name="quoteright" unicode="&#x2019;" 
d="M190 400l166 400h199l-281 -400h-84z" />
    <glyph glyph-name="quotesinglbase" unicode="&#x201a;" 
d="M116 -200l146 400h199l-261 -400h-84z" />
    <glyph glyph-name="quotereversed" unicode="&#x201b;" 
d="M395 400l-169 400h199l54 -400h-84z" />
    <glyph glyph-name="quotedblleft" unicode="&#x201c;" 
d="M351 400l281 400h74l-166 -400h-189zM51 400l281 400h74l-166 -400h-189z" />
    <glyph glyph-name="quotedblright" unicode="&#x201d;" 
d="M350 400l166 400h189l-281 -400h-74zM50 400l166 400h189l-281 -400h-74z" />
    <glyph glyph-name="quotedblbase" unicode="&#x201e;" 
d="M250 -200l166 400h189l-281 -400h-74zM-50 -200l166 400h189l-281 -400h-74z" />
    <glyph glyph-name="dagger" unicode="&#x2020;" 
d="M216 -200l100 710h-100l-70 -210h-80l72 300h187l21 200h120l-35 -200h187l-12 -300h-80l-10 210h-100l-100 -710h-100z" />
    <glyph glyph-name="daggerdbl" unicode="&#x2021;" 
d="M206 -200l35 200h-187l2 230h80l21 -140h100l59 420h-100l-60 -140h-80l62 230h187l21 200h120l-35 -200h187l-2 -230h-80l-20 140h-100l-59 -420h100l59 140h80l-62 -230h-187l-21 -200h-120z" />
    <glyph glyph-name="bullet" unicode="&#x2022;" 
d="M328 236q-75 0 -117 30.5t-33 95.5l10 72q9 66 60 97.5t126 31.5t116.5 -31.5t32.5 -97.5l-10 -72q-9 -65 -60.5 -95.5t-124.5 -30.5z" />
    <glyph glyph-name="ellipsis" unicode="&#x2026;" 
d="M532 -9q-31 0 -48.5 20.5t-10.5 63.5l6 48q6 44 29 65t54 21q32 0 48.5 -21t10.5 -65l-6 -48q-7 -43 -29.5 -63.5t-53.5 -20.5zM293 -9q-31 0 -48.5 20.5t-10.5 63.5l6 48q6 44 29 65t54 21q32 0 48.5 -21t10.5 -65l-6 -48q-7 -43 -29.5 -63.5t-53.5 -20.5zM55 -9
q-32 0 -49.5 20.5t-10.5 63.5l6 48q6 44 29 65t55 21q31 0 47.5 -21t10.5 -65l-6 -48q-7 -43 -29 -63.5t-53 -20.5z" />
    <glyph glyph-name="perthousand" unicode="&#x2030;" 
d="M182 448q-60 0 -92.5 35.5t-22.5 109.5l12 80q10 75 52.5 111t102.5 36t92 -36t22 -111l-12 -80q-10 -74 -52 -109.5t-102 -35.5zM157 591q-5 -33 5 -47.5t31 -14.5t34.5 14.5t18.5 47.5l12 84q5 33 -4.5 48.5t-30.5 15.5t-35 -15.5t-19 -48.5zM664 639l-636 -529l-45 58
l634 529zM517 -22q-28 0 -48 12t-29 36q-18 -24 -41 -36t-50 -12q-47 0 -71 35.5t-14 109.5l12 80q10 75 44.5 111t80.5 36q28 0 48 -12t29 -37q17 25 40.5 37t50.5 12q47 0 70.5 -36t13.5 -111l-12 -80q-10 -74 -44 -109.5t-80 -35.5zM343 111q-5 -33 2.5 -47.5t23.5 -14.5
t27 14.5t16 47.5l14 104q5 33 -2 48.5t-23 15.5t-27.5 -15.5t-16.5 -48.5zM491 111q-5 -33 2.5 -47.5t23.5 -14.5t27 14.5t16 47.5l14 104q5 33 -2 48.5t-23 15.5t-27.5 -15.5t-16.5 -48.5z" />
    <glyph glyph-name="minute" unicode="&#x2032;" 
d="M190 400l166 400h199l-281 -400h-84z" />
    <glyph glyph-name="second" unicode="&#x2033;" 
d="M250 400l166 400h189l-281 -400h-74zM-50 400l166 400h189l-281 -400h-74z" />
    <glyph glyph-name="guilsinglleft" unicode="&#x2039;" 
d="M458 100l-272 200l14 100l328 200l-13 -95l-254 -155l210 -155z" />
    <glyph glyph-name="guilsinglright" unicode="&#x203a;" 
d="M158 100l13 95l255 155l-211 155l13 95l272 -200l-14 -100z" />
    <glyph glyph-name="exclamdbl" unicode="&#x203c;" 
d="M436 300l40 500h140l-100 -500h-80zM156 300l40 500h140l-100 -500h-80zM434 -10q-25 0 -43 5t-29 15q-9 11 -13 26.5t-1 37.5l4 28q3 22 11.5 38.5t20.5 26.5q14 11 33 16t44 5t42.5 -5t27.5 -16q11 -10 14 -26.5t0 -38.5l-4 -28q-3 -22 -11 -37.5t-22 -26.5
q-12 -10 -30.5 -15t-43.5 -5zM154 -10q-25 0 -43 5t-29 15q-9 11 -13 26.5t-1 37.5l4 28q3 22 11.5 38.5t20.5 26.5q14 11 33 16t44 5t42.5 -5t27.5 -16q11 -10 14 -26.5t0 -38.5l-4 -28q-3 -22 -11 -37.5t-22 -26.5q-12 -10 -30.5 -15t-43.5 -5z" />
    <glyph glyph-name="overline" unicode="&#x203e;" 
d="M-14 900l14 100h560l-14 -100h-560z" />
    <glyph glyph-name="fraction" unicode="&#x2215;" 
d="M44 0l512 800h100l-512 -800h-100z" />
    <glyph glyph-name="fraction" unicode="&#x2044;" 
d="M44 0l512 800h100l-512 -800h-100z" />
    <glyph glyph-name="zero.sups" unicode="&#x2070;" 
d="M336 298q-103 0 -145 58t-28 157l11 75q14 101 72.5 159.5t161.5 58.5t145 -58.5t28 -159.5l-11 -75q-14 -99 -72 -157t-162 -58zM346 368q62 0 92 34.5t42 119.5l8 57q13 87 -8 122t-83 35t-92 -35t-43 -122l-8 -57q-12 -85 9 -119.5t83 -34.5z" />
    <glyph glyph-name="four.sups" unicode="&#x2074;" 
d="M237 500h175l32 228zM586 430h-93l-17 -126h-91l17 126h-254l10 70l268 300h119l-42 -300h93z" />
    <glyph glyph-name="five.sups" unicode="&#x2075;" 
d="M336 298q-108 0 -150.5 32t-34.5 120l91 6q-3 -55 18 -71.5t86 -16.5q60 0 87.5 17.5t33.5 60.5l3 25q6 41 -15.5 58t-79.5 17h-192l35 254h367l-9 -70h-276l-16 -109h122q84 0 125.5 -33.5t31.5 -103.5l-7 -49q-8 -60 -63.5 -98.5t-156.5 -38.5z" />
    <glyph glyph-name="six.sups" unicode="&#x2076;" 
d="M336 299q-105 0 -145.5 48t-29.5 129l21 150q12 83 65.5 132t161.5 49q96 0 134 -31t42 -91l-98 -15q-2 39 -21 53t-72 14q-66 0 -90 -30.5t-31 -80.5l-8 -56h6q22 21 55 33t79 12q96 0 130.5 -40.5t25.5 -107.5l-2 -13q-9 -66 -63 -110.5t-160 -44.5zM346 369
q63 0 89.5 24t31.5 61l1 8q5 39 -15.5 63.5t-81.5 24.5t-88.5 -24.5t-32.5 -63.5l-1 -8q-6 -39 13.5 -62t83.5 -23z" />
    <glyph glyph-name="seven.sups" unicode="&#x2077;" 
d="M261 304q55 154 104.5 232t140.5 188h-310l10 76h401l-10 -76q-90 -119 -144.5 -203.5t-94.5 -216.5h-97z" />
    <glyph glyph-name="eight.sups" unicode="&#x2078;" 
d="M336 298q-114 0 -152 36.5t-29 100.5l2 14q7 46 37.5 74.5t77.5 32.5l3 18q-37 4 -59 27.5t-17 62.5l3 20q9 64 62 93t143 29t135 -28t36 -94l-3 -20q-5 -39 -34 -62.5t-66 -27.5l-3 -18q48 -4 70 -33.5t16 -73.5l-2 -14q-9 -66 -57 -101.5t-163 -35.5zM378 599
q51 0 76.5 13.5t30.5 47.5l2 15q5 34 -17 47t-73 13q-50 0 -75 -13t-30 -47l-2 -15q-5 -34 16.5 -47.5t71.5 -13.5zM346 369q72 0 94 20.5t26 54.5l2 9q5 35 -11.5 55.5t-88.5 20.5t-93 -20.5t-26 -55.5l-2 -9q-4 -34 11.5 -54.5t87.5 -20.5z" />
    <glyph glyph-name="nine.sups" unicode="&#x2079;" 
d="M373 555q61 0 88.5 24.5t32.5 63.5l1 8q6 39 -14 62t-83 23t-89 -24t-32 -61l-1 -8q-5 -39 15.5 -63.5t81.5 -24.5zM335 298q-96 0 -134 31t-42 91l98 15q3 -39 22 -53t72 -14q66 0 89.5 30.5t30.5 80.5l8 56h-7q-21 -21 -54 -33t-79 -12q-96 0 -130.5 40.5t-24.5 107.5
l1 13q10 66 63.5 110.5t158.5 44.5t146.5 -48t29.5 -129l-21 -150q-11 -83 -65 -132t-162 -49z" />
    <glyph glyph-name="nsuperior" unicode="&#x207f;" 
d="M137 303l70 499h83l-12 -83h25q15 25 33.5 43t37.5 29q20 10 39.5 14.5t38.5 4.5q33 0 60 -11.5t45 -33.5t25.5 -53.5t1.5 -71.5l-47 -337h-83l45 320q3 27 -1 47.5t-14 33.5q-10 14 -26 20.5t-37 6.5t-41 -6.5t-39 -17.5q-17 -12 -35 -27t-38 -36l-48 -341h-83z" />
    <glyph glyph-name="zero.sinf" unicode="&#x2080;" 
d="M336 -6q-103 0 -145 58t-28 157l11 75q14 101 72.5 159.5t161.5 58.5t145 -58.5t28 -159.5l-11 -75q-14 -99 -72 -157t-162 -58zM346 64q62 0 92 34.5t42 119.5l8 57q13 87 -8 122t-83 35t-92 -35t-43 -122l-8 -57q-12 -85 9 -119.5t83 -34.5z" />
    <glyph glyph-name="one.sinf" unicode="&#x2081;" 
d="M187 0l10 73h136l45 318h-15q-18 -40 -57 -64t-84 -25l5 75q47 2 96.5 30.5t70.5 88.5h89l-59 -423h124l-10 -73h-351z" />
    <glyph glyph-name="two.sinf" unicode="&#x2082;" 
d="M137 0l14 104q8 54 40.5 93.5t97.5 52.5l125 25q36 7 53.5 22.5t21.5 46.5l3 19q4 32 -14.5 50.5t-80.5 18.5t-83 -20.5t-32 -71.5l-91 7q15 77 62.5 116t153.5 39t145 -36.5t30 -99.5l-5 -34q-8 -57 -43.5 -86.5t-87.5 -39.5l-126 -25q-32 -6 -52 -21t-26 -55l-4 -32
h310l-10 -73h-401z" />
    <glyph glyph-name="three.sinf" unicode="&#x2083;" 
d="M334 -6q-110 0 -150 36.5t-34 108.5l91 6q-1 -44 16.5 -62t86.5 -18q68 0 92.5 19t29.5 53l2 16q5 37 -14.5 54.5t-85.5 17.5h-82l10 72h82q54 0 78 11t28 43l3 20q5 34 -21.5 47t-74.5 13q-49 0 -73 -16t-33 -53l-91 6q16 72 65 103t142 31q84 0 135.5 -26t41.5 -99
l-3 -16q-5 -40 -34 -62.5t-72 -26.5l-3 -18q47 -4 73 -32.5t20 -72.5l-2 -14q-11 -73 -65 -107t-158 -34z" />
    <glyph glyph-name="four.sinf" unicode="&#x2084;" 
d="M237 196h175l32 228zM586 126h-93l-17 -126h-91l17 126h-254l10 70l268 300h119l-42 -300h93z" />
    <glyph glyph-name="five.sinf" unicode="&#x2085;" 
d="M336 -6q-108 0 -150.5 32t-34.5 120l91 6q-3 -55 18 -71.5t86 -16.5q60 0 87.5 17.5t33.5 60.5l3 25q6 41 -15.5 58t-79.5 17h-192l35 254h367l-9 -70h-276l-16 -109h122q84 0 125.5 -33.5t31.5 -103.5l-7 -49q-8 -60 -63.5 -98.5t-156.5 -38.5z" />
    <glyph glyph-name="six.sinf" unicode="&#x2086;" 
d="M336 -5q-105 0 -145.5 48t-29.5 129l21 150q12 83 65.5 132t161.5 49q96 0 134 -31t42 -91l-98 -15q-2 39 -21 53t-72 14q-66 0 -90 -30.5t-31 -80.5l-8 -56h6q22 21 55 33t79 12q96 0 130.5 -40.5t25.5 -107.5l-2 -13q-9 -66 -63 -110.5t-160 -44.5zM346 65
q63 0 89.5 24t31.5 61l1 8q5 39 -15.5 63.5t-81.5 24.5t-88.5 -24.5t-32.5 -63.5l-1 -8q-6 -39 13.5 -62t83.5 -23z" />
    <glyph glyph-name="seven.sinf" unicode="&#x2087;" 
d="M261 0q55 154 104.5 232t140.5 188h-310l10 76h401l-10 -76q-90 -119 -144.5 -203.5t-94.5 -216.5h-97z" />
    <glyph glyph-name="eight.sinf" unicode="&#x2088;" 
d="M336 -6q-114 0 -152 36.5t-29 100.5l2 14q7 46 37.5 74.5t77.5 32.5l3 18q-37 4 -59 27.5t-17 62.5l3 20q9 64 62 93t143 29t135 -28t36 -94l-3 -20q-5 -39 -34 -62.5t-66 -27.5l-3 -18q48 -4 70 -33.5t16 -73.5l-2 -14q-9 -66 -57 -101.5t-163 -35.5zM378 295
q51 0 76.5 13.5t30.5 47.5l2 15q5 34 -17 47t-73 13q-50 0 -75 -13t-30 -47l-2 -15q-5 -34 16.5 -47.5t71.5 -13.5zM346 65q72 0 94 20.5t26 54.5l2 9q5 35 -11.5 55.5t-88.5 20.5t-93 -20.5t-26 -55.5l-2 -9q-4 -34 11.5 -54.5t87.5 -20.5z" />
    <glyph glyph-name="nine.sinf" unicode="&#x2089;" 
d="M373 251q61 0 88.5 24.5t32.5 63.5l1 8q6 39 -14 62t-83 23t-89 -24t-32 -61l-1 -8q-5 -39 15.5 -63.5t81.5 -24.5zM335 -6q-96 0 -134 31t-42 91l98 15q3 -39 22 -53t72 -14q66 0 89.5 30.5t30.5 80.5l8 56h-7q-21 -21 -54 -33t-79 -12q-96 0 -130.5 40.5t-24.5 107.5
l1 13q10 66 63.5 110.5t158.5 44.5t146.5 -48t29.5 -129l-21 -150q-11 -83 -65 -132t-162 -49z" />
    <glyph glyph-name="franc" unicode="&#x20a3;" 
d="M371 195h-200l-27 -195h-100l27 195h-100l13 90h100l72 515h520l-12 -90h-420l-30 -210h350l-12 -90h-350l-18 -125h200z" />
    <glyph glyph-name="lira" unicode="&#x20a4;" 
d="M644 217q-10 -56 -31.5 -98.5t-52.5 -70.5q-31 -29 -70.5 -43.5t-86.5 -14.5q-21 0 -42 4.5t-40 11.5q-10 4 -29.5 13t-49.5 23q-21 9 -38 15t-35 8q-16 3 -33.5 -0.5t-34.5 -13.5l-100 -60l-47 74l89 50q20 11 38.5 30t33.5 43q16 23 26.5 49t13.5 50l-160 8l12 80h142
q-2 5 -4 10.5t-4 9.5q-2 5 -5 12t-4 10q-12 26 -15 34t-7 17q-2 4 -3 8.5t-3 8.5h-82l11 80h61q1 4 1 8t1 8q-1 4 -0.5 8t1.5 8q7 48 31 87.5t64 67.5t95 43t123 15q69 0 117.5 -13t79.5 -39q30 -27 42.5 -69t7.5 -100l-102 -10q3 41 -4 67.5t-26 43.5q-18 16 -49 23t-79 7
q-49 0 -84.5 -7.5t-59.5 -22.5q-23 -15 -37 -38.5t-18 -56.5q-1 -4 -1.5 -8t0.5 -7q-1 -4 -1 -7.5t-1 -7.5h278l-11 -80h-249q2 -5 4 -9.5t6 -10.5q3 -7 5 -11.5t4 -9.5q4 -8 7.5 -16.5t7.5 -16.5q3 -8 5.5 -17.5t4.5 -18.5h190l-12 -80h-177q-2 -19 -8.5 -38t-18.5 -39
q-12 -21 -33 -41.5t-52 -39.5l10 -17q17 10 34.5 14.5t34.5 4.5q16 -1 32 -4.5t35 -9.5q11 -4 33 -12.5t35 -13.5q12 -4 27 -7.5t29 -3.5q31 0 53 8.5t35 25.5q15 17 24.5 42t17.5 63z" />
    <glyph glyph-name="peseta" unicode="&#x20a7;" 
d="M104 358h30q10 0 18 4.5t15 13.5q6 10 11 26.5t8 40.5l27 192q4 24 3.5 40.5t-3.5 26.5q-5 9 -11.5 13.5t-16.5 4.5h-30zM645 151q-5 -38 -18.5 -68t-34.5 -51q-19 -20 -46 -31t-59 -11q-8 0 -16 0.5t-15 2.5q-7 1 -14 3.5t-14 5.5q-9 -3 -18 -5t-17 -3q-8 -2 -15.5 -2.5
t-15.5 -0.5q-22 0 -39 8.5t-27 27.5q-11 19 -14 49t3 71l52 373h-60l-11 -79q-6 -41 -17.5 -71t-29.5 -50q-17 -20 -41.5 -30t-54.5 -10h-30l-39 -280h-80l112 800h111q30 0 51.5 -10t33.5 -30t15 -50t-3 -71l-6 -39h60l28 200h80l-28 -200h80l-6 -43q9 13 20.5 23t23.5 17
q13 6 27 9.5t29 3.5t28 -2.5t25 -7.5q13 -5 24.5 -13t24.5 -19l-55 -69q-10 9 -16.5 14.5t-11.5 9.5q-7 3 -13.5 5t-13.5 2q-11 0 -19 -4.5t-14 -13.5t-10.5 -23t-7.5 -33q-3 -21 0.5 -39t11.5 -34t16 -28.5t26 -36.5q13 -19 22.5 -35.5t17.5 -36.5q7 -19 9.5 -43t-1.5 -52z
M498 70q15 0 26 4.5t19 13.5q9 9 14.5 23t7.5 33q3 17 -0.5 34.5t-11.5 35.5q-8 17 -17 33t-23 37q-16 24 -25 38.5t-16 33.5t-10 42t1 51q2 10 3.5 19.5t3.5 18.5q3 9 6 17.5t6 15.5h-65l-54 -384q-2 -16 -2 -28t2 -20t6 -12t10 -4q5 0 10 0.5t10 1.5q6 2 12 3.5t13 4.5
l15 19q12 -10 18 -14.5t12 -8.5t13.5 -6t15.5 -2z" />
    <glyph glyph-name="Euro" unicode="&#x20ac;" 
d="M323 -10q-134 0 -187 73.5t-35 198.5v2h-100l11 80h100l16 110h-100l11 80h100v2q18 125 92 199.5t208 74.5q138 0 187.5 -57t40.5 -164l-102 -10q5 69 -19 105t-121 36q-93 0 -133.5 -50t-52.5 -134v-2h200l-11 -80h-200l-16 -110h200l-11 -80h-200v-2
q-12 -85 14.5 -133.5t119.5 -48.5q97 0 130.5 34.5t48.5 102.5l99 -10q-21 -106 -86.5 -161.5t-203.5 -55.5z" />
    <glyph glyph-name="careof" unicode="&#x2105;" 
d="M285 581l89 -8q-5 -31 -19.5 -55t-36.5 -39q-23 -16 -52 -23.5t-64 -7.5t-62 9.5t-46 28.5q-17 19 -24 48.5t-1 68.5l8 60q6 39 21 69t39 49q23 20 52.5 29.5t64.5 9.5t62.5 -8t45.5 -23q18 -16 25.5 -40t2.5 -56l-91 -8q2 14 -1 24t-10 17q-7 6 -18.5 9.5t-26.5 3.5
t-27.5 -4.5t-23.5 -13.5q-9 -9 -15.5 -23t-9.5 -33l-9 -64q-2 -19 0.5 -32.5t9.5 -22.5t18.5 -13t26.5 -4t27.5 3t21.5 9q9 7 15 16.5t8 23.5zM13 168l634 529l47 -58l-636 -529zM447 -22q-35 0 -62 9.5t-46 28.5q-17 19 -24 48.5t-1 68.5l8 60q6 39 21 69t39 49
q23 20 52.5 29.5t64.5 9.5t62.5 -9.5t44.5 -29.5q17 -19 24 -49t1 -69l-8 -60q-6 -39 -21 -68.5t-38 -48.5t-52.5 -28.5t-64.5 -9.5zM458 59q15 0 27.5 4t22.5 13q9 9 15.5 22.5t8.5 32.5l9 64q3 19 0.5 33t-9.5 23q-6 9 -17.5 13.5t-26.5 4.5t-27.5 -4.5t-23.5 -13.5
q-9 -9 -15.5 -23t-9.5 -33l-9 -64q-2 -19 0.5 -32.5t9.5 -22.5t18.5 -13t26.5 -4z" />
    <glyph glyph-name="lsquare" unicode="&#x2113;" 
d="M327 340q23 0 42.5 3.5t35.5 11.5q15 8 26.5 21t16.5 31l69 222q7 21 7.5 37.5t-6.5 28.5q-8 12 -25.5 18.5t-45.5 6.5q-23 0 -43 -4t-35 -13q-16 -8 -27.5 -21.5t-17.5 -32.5l-72 -229q-6 -18 -5.5 -32.5t9.5 -25.5q8 -11 26 -16.5t45 -5.5zM435 29q-20 -8 -40.5 -14.5
t-42.5 -11.5q-21 -5 -44 -7.5t-46 -2.5q-55 0 -96 14t-64 41q-24 27 -30 65.5t10 86.5l142 449q13 40 36.5 70.5t55.5 50.5q33 20 71 30t80 10q50 0 85 -12.5t54 -36.5q19 -23 21.5 -56.5t-10.5 -75.5l-69 -222q-12 -40 -35 -69.5t-53 -49.5q-30 -19 -66 -28.5t-76 -9.5
q-19 0 -35 3t-29 9q-13 5 -23.5 13.5t-18.5 19.5l-27 -86q-9 -29 -6 -51.5t16 -37.5t35.5 -22.5t53.5 -7.5q16 0 34 2t39 7q19 4 41.5 10.5t46.5 15.5z" />
    <glyph glyph-name="numero" unicode="&#x2116;" 
d="M234 712l-42 -302h-90l54 390h117l251 -299l42 299h90l-54 -390h-123zM382 -14q-71 0 -109 37.5t-28 114.5l8 53q11 78 60 116.5t120 38.5q72 0 109.5 -38.5t26.5 -116.5l-8 -53q-10 -77 -59 -114.5t-120 -37.5zM393 61q37 0 58.5 18t26.5 59l8 53q5 40 -11 60t-53 20
t-59 -20t-27 -60l-8 -53q-5 -41 11.5 -59t53.5 -18z" />
    <glyph glyph-name="uni2117" unicode="&#x2117;" 
d="M350 -110q-172 0 -251 95.5t-79 271.5v222q0 178 79.5 274.5t251.5 96.5t250.5 -96.5t78.5 -274.5v-222q0 -176 -79 -271.5t-251 -95.5zM350 -44q137 0 198.5 71.5t61.5 228.5v223q0 160 -61.5 232.5t-198.5 72.5t-198.5 -73t-61.5 -233v-221q0 -158 61.5 -229.5
t198.5 -71.5zM218 122v504h145q79 0 120 -41.5t41 -121.5v-38q0 -74 -41 -112t-121 -38h-54v-153h-90zM308 354h54q40 0 56 16t16 55v38q0 45 -16 63.5t-56 18.5h-54v-191z" />
    <glyph glyph-name="trademark" unicode="&#x2122;" 
d="M102 351v378h-92v71h252v-71h-81v-378h-79zM380 725l2 -374h-71v449h113l59 -207l66 207h101v-449h-71l2 368l-74 -231h-52z" />
    <glyph glyph-name="Ohm" unicode="&#x2126;" 
d="M244 0h-230l13 90h130l12 90q-67 21 -88 84t-9 147l15 108q20 144 101 217.5t220 73.5t199 -73.5t40 -217.5l-15 -108q-12 -84 -51 -147t-112 -84l-12 -90h130l-13 -90h-230l32 230q79 13 112.5 60.5t43.5 120.5l15 108q15 109 -19.5 155t-132.5 46t-145.5 -46
t-62.5 -155l-15 -108q-10 -73 9.5 -120.5t94.5 -60.5z" />
    <glyph glyph-name="estimated" unicode="&#x212e;" 
d="M345 -12q-138 0 -227.5 117t-89.5 297q0 184 89 298.5t232 114.5q139 0 227.5 -129t92.5 -336h-457v-230q31 -25 62 -38.5t71 -13.5q78 0 133 30.5t90 85.5l48 -60q-43 -65 -109.5 -100.5t-161.5 -35.5zM212 430h269v250q-30 24 -61 39.5t-73 15.5q-39 0 -71.5 -12
t-63.5 -40v-253z" />
    <glyph glyph-name="oneeighth" unicode="&#x215b;" 
d="M182 410l10 73h136l31 218h-15q-9 -20 -23.5 -36t-32.5 -28q-20 -12 -41.5 -18.5t-43.5 -6.5l5 75q25 1 50 8.5t48 22.5q23 14 41 36.5t28 51.5h89l-45 -323h124l-10 -73h-351zM-21 250l14 100l315 -20l-8 -60zM378 270l8 60l307 20l-14 -100zM269 -215q-56 0 -94 8
t-59 23t-28 36.5t-3 49.5l2 14q3 19 11.5 34t23.5 26q14 12 34 18.5t43 8.5l3 18q-19 2 -34 7.5t-26 14.5t-15.5 21t-2.5 27l3 20q3 27 18.5 46t41.5 32q25 12 60.5 18t81.5 6t80 -5.5t57 -17.5q22 -13 31 -32.5t6 -46.5l-3 -20q-2 -15 -10.5 -27t-21.5 -21t-30 -14.5
t-36 -7.5l-3 -18q24 -2 41.5 -9t29.5 -18q11 -12 16 -27t2 -33l-2 -14q-4 -29 -17 -50.5t-38 -36.5t-65 -22.5t-97 -7.5zM305 46q26 0 45 2t32 7q11 5 18.5 13t8.5 19l2 15q2 11 -3 19t-15 12q-12 5 -30 7t-44 2t-44.5 -2t-30.5 -7q-13 -4 -19.5 -12t-8.5 -19l-2 -15
q-1 -11 3 -19t16 -13q11 -5 28.5 -7t43.5 -2zM279 -144q35 0 57.5 3.5t34.5 10.5q13 7 18.5 17t6.5 24l2 9q2 14 -0.5 24t-13.5 17q-10 8 -31.5 11.5t-56.5 3.5t-57.5 -3.5t-34.5 -11.5q-12 -7 -17.5 -16.5t-7.5 -24.5l-2 -9q-1 -14 1.5 -24t12.5 -17t31.5 -10.5t56.5 -3.5z
" />
    <glyph glyph-name="threeeighths" unicode="&#x215c;" 
d="M349 404q-55 0 -92 7.5t-59 23.5q-22 15 -30 38.5t-6 55.5l91 6q0 -18 3.5 -29t14.5 -18t32 -10t56 -3q34 0 55.5 2.5t35.5 8.5q13 5 19 12.5t8 18.5l2 16q1 11 -2.5 18.5t-15.5 13.5q-12 5 -32.5 7.5t-53.5 2.5h-52l10 72h52q28 0 46.5 2t30.5 7q13 5 19 13.5t8 21.5
l3 20q1 8 -5 14t-20 10q-12 3 -31 4.5t-44 1.5t-43 -2.5t-30 -8.5t-19.5 -15t-11.5 -23l-90 6q6 31 21 52.5t40 35.5q25 13 60.5 19.5t82.5 6.5q44 0 78.5 -4.5t58.5 -15.5q25 -11 36.5 -29.5t7.5 -45.5l-2 -16q-3 -17 -11.5 -31t-22.5 -24t-32 -16t-40 -8l-2 -18
q24 -2 42.5 -8t31.5 -16q13 -9 18.5 -22.5t3.5 -28.5l-2 -14q-4 -29 -19 -50t-41 -34q-27 -14 -66.5 -20.5t-91.5 -6.5zM-21 250l14 100l315 -20l-8 -60zM378 270l8 60l307 20l-14 -100zM269 -215q-56 0 -94 8t-59 23t-28 36.5t-3 49.5l2 14q3 19 11.5 34t23.5 26
q14 12 34 18.5t43 8.5l3 18q-19 2 -34 7.5t-26 14.5t-15.5 21t-2.5 27l3 20q3 27 18.5 46t41.5 32q25 12 60.5 18t81.5 6t80 -5.5t57 -17.5q22 -13 31 -32.5t6 -46.5l-3 -20q-2 -15 -10.5 -27t-21.5 -21t-30 -14.5t-36 -7.5l-3 -18q24 -2 41.5 -9t29.5 -18q11 -12 16 -27
t2 -33l-2 -14q-4 -29 -17 -50.5t-38 -36.5t-65 -22.5t-97 -7.5zM305 46q26 0 45 2t32 7q11 5 18.5 13t8.5 19l2 15q2 11 -3 19t-15 12q-12 5 -30 7t-44 2t-44.5 -2t-30.5 -7q-13 -4 -19.5 -12t-8.5 -19l-2 -15q-1 -11 3 -19t16 -13q11 -5 28.5 -7t43.5 -2zM279 -144
q35 0 57.5 3.5t34.5 10.5q13 7 18.5 17t6.5 24l2 9q2 14 -0.5 24t-13.5 17q-10 8 -31.5 11.5t-56.5 3.5t-57.5 -3.5t-34.5 -11.5q-12 -7 -17.5 -16.5t-7.5 -24.5l-2 -9q-1 -14 1.5 -24t12.5 -17t31.5 -10.5t56.5 -3.5z" />
    <glyph glyph-name="fiveeighths" unicode="&#x215d;" 
d="M351 404q-56 0 -93.5 6t-59.5 20q-22 13 -30.5 36.5t-5.5 59.5l91 6q-1 -19 3.5 -30t16.5 -17t32.5 -8.5t55.5 -2.5q31 0 52.5 3t34.5 9q14 5 21 14t8 22l4 25q2 12 -2 20.5t-15 13.5q-12 6 -32 8.5t-51 2.5h-192l30 214h367l-10 -70h-276l-9 -69h122q43 0 74.5 -7
t52.5 -21q20 -13 28.5 -34.5t4.5 -49.5l-5 -34q-3 -26 -18.5 -47.5t-43.5 -37.5q-27 -15 -66 -23.5t-89 -8.5zM-21 250l14 100l315 -20l-8 -60zM378 270l8 60l307 20l-14 -100zM269 -215q-56 0 -94 8t-59 23t-28 36.5t-3 49.5l2 14q3 19 11.5 34t23.5 26q14 12 34 18.5
t43 8.5l3 18q-19 2 -34 7.5t-26 14.5t-15.5 21t-2.5 27l3 20q3 27 18.5 46t41.5 32q25 12 60.5 18t81.5 6t80 -5.5t57 -17.5q22 -13 31 -32.5t6 -46.5l-3 -20q-2 -15 -10.5 -27t-21.5 -21t-30 -14.5t-36 -7.5l-3 -18q24 -2 41.5 -9t29.5 -18q11 -12 16 -27t2 -33l-2 -14
q-4 -29 -17 -50.5t-38 -36.5t-65 -22.5t-97 -7.5zM305 46q26 0 45 2t32 7q11 5 18.5 13t8.5 19l2 15q2 11 -3 19t-15 12q-12 5 -30 7t-44 2t-44.5 -2t-30.5 -7q-13 -4 -19.5 -12t-8.5 -19l-2 -15q-1 -11 3 -19t16 -13q11 -5 28.5 -7t43.5 -2zM279 -144q35 0 57.5 3.5
t34.5 10.5q13 7 18.5 17t6.5 24l2 9q2 14 -0.5 24t-13.5 17q-10 8 -31.5 11.5t-56.5 3.5t-57.5 -3.5t-34.5 -11.5q-12 -7 -17.5 -16.5t-7.5 -24.5l-2 -9q-1 -14 1.5 -24t12.5 -17t31.5 -10.5t56.5 -3.5z" />
    <glyph glyph-name="seveneighths" unicode="&#x215e;" 
d="M276 410q20 54 42.5 97t49.5 81q27 37 61 72t78 70h-310l10 76h401l-10 -76q-44 -39 -79.5 -77.5t-62.5 -77.5t-47.5 -80t-35.5 -85h-97zM-21 250l14 100l315 -20l-8 -60zM378 270l8 60l307 20l-14 -100zM269 -215q-56 0 -94 8t-59 23t-28 36.5t-3 49.5l2 14
q3 19 11.5 34t23.5 26q14 12 34 18.5t43 8.5l3 18q-19 2 -34 7.5t-26 14.5t-15.5 21t-2.5 27l3 20q3 27 18.5 46t41.5 32q25 12 60.5 18t81.5 6t80 -5.5t57 -17.5q22 -13 31 -32.5t6 -46.5l-3 -20q-2 -15 -10.5 -27t-21.5 -21t-30 -14.5t-36 -7.5l-3 -18q24 -2 41.5 -9
t29.5 -18q11 -12 16 -27t2 -33l-2 -14q-4 -29 -17 -50.5t-38 -36.5t-65 -22.5t-97 -7.5zM305 46q26 0 45 2t32 7q11 5 18.5 13t8.5 19l2 15q2 11 -3 19t-15 12q-12 5 -30 7t-44 2t-44.5 -2t-30.5 -7q-13 -4 -19.5 -12t-8.5 -19l-2 -15q-1 -11 3 -19t16 -13q11 -5 28.5 -7
t43.5 -2zM279 -144q35 0 57.5 3.5t34.5 10.5q13 7 18.5 17t6.5 24l2 9q2 14 -0.5 24t-13.5 17q-10 8 -31.5 11.5t-56.5 3.5t-57.5 -3.5t-34.5 -11.5q-12 -7 -17.5 -16.5t-7.5 -24.5l-2 -9q-1 -14 1.5 -24t12.5 -17t31.5 -10.5t56.5 -3.5z" />
    <glyph glyph-name="arrowleft" unicode="&#x2190;" 
d="M330 75l-330 315v20l330 315h20v-275h350v-100h-350v-275h-20z" />
    <glyph glyph-name="arrowup" unicode="&#x2191;" 
d="M300 0v450h-275v20l315 330h20l315 -330v-20h-275v-450h-100z" />
    <glyph glyph-name="arrowright" unicode="&#x2192;" 
d="M350 75v275h-350v100h350v275h20l330 -315v-20l-330 -315h-20z" />
    <glyph glyph-name="arrowdown" unicode="&#x2193;" 
d="M340 0l-315 330v20h275v450h100v-450h275v-20l-315 -330h-20z" />
    <glyph glyph-name="arrowboth" unicode="&#x2194;" 
d="M280 350v-275h-20l-260 315v20l260 315h20v-275h140v275h20l260 -315v-20l-260 -315h-20v275h-140z" />
    <glyph glyph-name="arrowupdn" unicode="&#x2195;" 
d="M360 -100h-20l-315 330v20h275v300h-275v20l315 330h20l315 -330v-20h-275v-300h275v-20z" />
    <glyph glyph-name="arrowupdnbse" unicode="&#x21a8;" 
d="M360 -100h-20l-315 330v20h275v300h-275v20l315 330h20l315 -330v-20h-275v-300h275v-20zM56 -200l14 100h560l-14 -100h-560z" />
    <glyph glyph-name="partialdiff" unicode="&#x2202;" 
d="M295 -10q-58 0 -103.5 14t-74.5 42q-30 28 -40.5 71t1.5 99l15 71q10 47 33 85t58 64q34 27 78.5 41t95.5 14q31 0 57.5 -5.5t47.5 -15.5q20 -10 33 -23.5t18 -28.5h23q9 61 2.5 107t-33.5 84t-80.5 67.5t-138.5 52.5l53 78q99 -27 162 -65.5t95 -90.5
q32 -53 36.5 -121.5t-14.5 -159.5l-31 -148q-13 -60 -38.5 -104t-62.5 -72q-38 -29 -86 -42.5t-106 -13.5zM305 78q41 0 71.5 8.5t51.5 25.5q22 17 35.5 42t21.5 60l13 62q7 32 3.5 55.5t-18.5 39.5q-15 15 -42 23t-68 8t-72 -7.5t-52 -23.5t-34.5 -39.5t-19.5 -55.5
l-13 -62q-8 -35 -5 -60t18 -42q14 -17 41 -25.5t69 -8.5z" />
    <glyph glyph-name="Delta#1" unicode="&#x2206;" 
d="M-16 0l13 90l352 710h105l163 -710l-13 -90h-620zM515 90l-125 606l-294 -606h419z" />
    <glyph glyph-name="product" unicode="&#x220f;" 
d="M16 -200l140 1000h500l-140 -1000h-100l128 910h-300l-128 -910h-100z" />
    <glyph glyph-name="summation" unicode="&#x2211;" 
d="M549 -110l-13 -90h-550l13 90l424 422l-309 398l12 90h550l-12 -90h-438l278 -355l-11 -78l-394 -387h450z" />
    <glyph glyph-name="minus" unicode="&#x2212;" 
d="M56 300l14 100h560l-14 -100h-560z" />
    <glyph glyph-name="radical" unicode="&#x221a;" 
d="M281 0l-116 405l-116 -20l12 85l177 30l113 -429l304 829h92l-341 -900h-125z" />
    <glyph glyph-name="infinity" unicode="&#x221e;" 
d="M159 120q-31 0 -55 18.5t-40 53.5q-15 36 -19 89t5 119q10 67 29 119.5t46 88.5t58.5 54t64.5 18q28 0 49.5 -15t36.5 -42q15 -26 23.5 -59.5t12.5 -70.5q21 43 40.5 76.5t40.5 57.5q22 25 45.5 39t48.5 14q30 0 53 -18.5t39 -53.5q15 -36 19 -88.5t-6 -118.5
q-9 -67 -28.5 -120t-46.5 -89q-27 -35 -59 -53.5t-67 -18.5q-27 0 -46.5 15t-32.5 40q-14 26 -23 57.5t-17 72.5q-20 -43 -39 -76t-41 -57q-20 -25 -43 -38.5t-48 -13.5zM463 199q15 0 29 11t27 36q12 24 23 62.5t18 91.5q7 54 7 92.5t-6 62.5t-16.5 35t-25.5 11
q-16 0 -32 -14.5t-30 -39.5q-15 -25 -21 -37.5t-45 -96.5q21 -154 19 -138t5 -13q7 -28 19 -45.5t29 -17.5zM181 199q16 0 31.5 15t30.5 39q7 13 24 45.5t42 86.5q-17 123 -23.5 152t-18.5 47q-6 8 -13.5 12.5t-16.5 4.5q-15 0 -29 -11t-26 -36q-13 -24 -23.5 -62.5
t-18.5 -91.5q-6 -54 -6 -92.5t5 -62.5q6 -24 16.5 -35t25.5 -11z" />
    <glyph glyph-name="orthogonal" unicode="&#x221f;" 
d="M44 0l98 700h100l-85 -610h420l-13 -90h-520z" />
    <glyph glyph-name="intersection" unicode="&#x2229;" 
d="M44 0l61 433q10 70 34.5 122t62.5 87q38 34 86.5 51t105.5 17t100.5 -17t71.5 -51q28 -35 38.5 -87t0.5 -122l-61 -433h-100l61 433q7 50 2.5 85.5t-19.5 58.5q-16 22 -42.5 32.5t-64.5 10.5t-67.5 -10.5t-51.5 -32.5q-21 -23 -35.5 -58.5t-21.5 -85.5l-61 -433h-100z
" />
    <glyph glyph-name="integral" unicode="&#x222b;" 
d="M118 -206q-21 0 -39 1.5t-33 4.5q-16 3 -29.5 7.5t-27.5 10.5l33 86q13 -5 27.5 -9t27.5 -7q13 -2 26 -3t24 -1q30 0 50.5 7.5t33.5 24.5q14 18 23 47.5t16 76.5l77 550q7 50 25.5 91t47.5 70t67 44t84 15q20 0 38 -1.5t35 -5.5q16 -3 31 -7.5t28 -9.5l-32 -86
q-11 5 -24 9t-25 7q-14 2 -28 3t-28 1q-30 0 -50 -7.5t-34 -25.5t-23 -47.5t-16 -75.5l-77 -550q-7 -50 -26 -91t-48 -69q-30 -29 -68.5 -44.5t-85.5 -15.5z" />
    <glyph glyph-name="approxequal" unicode="&#x2248;" 
d="M474 390q-26 0 -46.5 6t-36.5 19t-29.5 34t-25.5 52q-14 37 -24.5 58t-20.5 32q-9 12 -20 16t-27 4q-14 0 -26.5 -6.5t-23.5 -20.5q-10 -14 -18 -36.5t-13 -54.5l-13 -93h-90l14 99q7 50 24.5 90t43.5 67q27 27 59.5 40.5t69.5 13.5q25 0 45 -6t36 -19q15 -13 29 -34
t26 -51q14 -37 24 -58t20 -33q9 -11 20 -15.5t28 -4.5q14 0 26.5 6.5t23.5 20.5q9 14 17.5 37t12.5 55l13 92h90l-14 -99q-7 -50 -24.5 -90t-43.5 -67q-25 -27 -57.5 -40.5t-68.5 -13.5zM418 -10q-26 0 -46.5 6t-36.5 19t-29.5 34t-25.5 52q-15 37 -25.5 58t-19.5 32
q-9 12 -20 16t-27 4q-14 0 -26.5 -6.5t-23.5 -20.5q-10 -14 -18 -36.5t-13 -54.5l-13 -93h-90l14 99q7 50 24.5 90t43.5 67q27 27 59.5 40.5t69.5 13.5q25 0 45 -6t36 -19q15 -13 28.5 -34t26.5 -51q14 -37 24 -58t19 -33q10 -11 21 -15.5t28 -4.5q14 0 26 6.5t23 20.5
q10 14 18.5 37t12.5 55l13 92h90l-14 -99q-7 -50 -24.5 -90t-43.5 -67t-58 -40.5t-68 -13.5z" />
    <glyph glyph-name="notequal" unicode="&#x2260;" 
d="M601 190h-282l-75 -190h-100l75 190h-178l14 100h203l86 220h-258l14 100h283l73 190h100l-73 -190h177l-14 -100h-202l-86 -220h257z" />
    <glyph glyph-name="equivalence" unicode="&#x2261;" 
d="M84 500l14 100h560l-14 -100h-560zM56 300l14 100h560l-14 -100h-560zM28 100l14 100h560l-14 -100h-560z" />
    <glyph glyph-name="lessequal" unicode="&#x2264;" 
d="M572 200l-465 250l14 100l535 250l-13 -95l-439 -205l381 -205zM44 0l13 90h500l-13 -90h-500z" />
    <glyph glyph-name="greaterequal" unicode="&#x2265;" 
d="M72 200l13 95l439 205l-381 205l13 95l465 -250l-14 -100zM544 0h-500l13 90h500z" />
    <glyph glyph-name="logicalnotreversed" unicode="&#x2310;" 
d="M14 0l56 400h560l-14 -100h-460l-42 -300h-100z" />
    <glyph glyph-name="integralbt" unicode="&#x2321;" 
d="M125 -206q-13 0 -31 1.5t-37 4.5q-20 3 -37.5 7.5t-30.5 10.5l33 86q13 -5 27.5 -9t27.5 -7q13 -2 26 -3t24 -1q32 0 52.5 8.5t34.5 27.5q13 18 21 47t15 73l106 760h100l-110 -786q-7 -52 -26.5 -93t-48.5 -70q-30 -28 -67 -42.5t-79 -14.5z" />
    <glyph glyph-name="uni23af" unicode="&#x23af;" 
d="M0 350v100h700v-100h-700z" />
    <glyph glyph-name="lighthorzbxd" unicode="&#x2500;" 
d="M-20 350h740v-100h-740v100z" />
    <glyph glyph-name="heavyhorzbxd" unicode="&#x2501;" 
d="M-20 400h740v-200h-740v200z" />
    <glyph glyph-name="lightvertbxd" unicode="&#x2502;" 
d="M300 1050h100v-1500h-100v1500z" />
    <glyph glyph-name="heavyvertbxd" unicode="&#x2503;" 
d="M250 1050h200v-1500h-200v1500z" />
    <glyph glyph-name="lighttrpldashhorzbxd" unicode="&#x2504;" 
d="M38 350h156v-100h-156v100zM271 350h156v-100h-156v100zM504 350h156v-100h-156v100z" />
    <glyph glyph-name="heavytrpldashhorzbxd" unicode="&#x2505;" 
d="M38 400h156v-200h-156v200zM271 400h156v-200h-156v200zM504 400h156v-200h-156v200z" />
    <glyph glyph-name="lighttrpldashvertbxd" unicode="&#x2506;" 
d="M300 55h100v-244h-100v244zM300 421h100v-244h-100v244zM300 787h100v-244h-100v244zM300 1153h100v-244h-100v244z" />
    <glyph glyph-name="heavytrpldashvertbxd" unicode="&#x2507;" 
d="M250 55h200v-244h-200v244zM250 421h200v-244h-200v244zM250 787h200v-244h-200v244zM250 1153h200v-244h-200v244z" />
    <glyph glyph-name="lightquaddashhorzbxd" unicode="&#x2508;" 
d="M21 350h132v-100h-132v100zM196 350h132v-100h-132v100zM371 350h132v-100h-132v100zM546 350h132v-100h-132v100z" />
    <glyph glyph-name="heavyquaddashhorzbxd" unicode="&#x2509;" 
d="M21 400h132v-200h-132v200zM196 400h132v-200h-132v200zM371 400h132v-200h-132v200zM546 400h132v-200h-132v200z" />
    <glyph glyph-name="lightquaddashvertbxd" unicode="&#x250a;" 
d="M300 -9h100v-207h-100v207zM300 266h100v-207h-100v207zM300 541h100v-207h-100v207zM300 816h100v-207h-100v207z" />
    <glyph glyph-name="heavyquaddashvertbxd" unicode="&#x250b;" 
d="M250 -9h200v-207h-200v207zM250 266h200v-207h-200v207zM250 541h200v-207h-200v207zM250 816h200v-207h-200v207z" />
    <glyph glyph-name="lightdnrightbxd" unicode="&#x250c;" 
d="M300 350h420v-100h-320v-700h-100v800z" />
    <glyph glyph-name="dnlightrightheavybxd" unicode="&#x250d;" 
d="M300 400h420v-200h-320v-650h-100v850z" />
    <glyph glyph-name="dnheavyrightlightbxd" unicode="&#x250e;" 
d="M250 350h470v-100h-270v-700h-200v800z" />
    <glyph glyph-name="heavydnrightbxd" unicode="&#x250f;" 
d="M250 400h470v-200h-270v-650h-200v850z" />
    <glyph glyph-name="lightdnleftbxd" unicode="&#x2510;" 
d="M-20 350h420v-800h-100v700h-320v100z" />
    <glyph glyph-name="dnlightleftheavybxd" unicode="&#x2511;" 
d="M-20 400h420v-850h-100v650h-320v200z" />
    <glyph glyph-name="dnheavyleftlightbxd" unicode="&#x2512;" 
d="M-20 350h470v-800h-200v700h-270v100z" />
    <glyph glyph-name="heavydnleftbxd" unicode="&#x2513;" 
d="M-20 400h470v-850h-200v650h-270v200z" />
    <glyph glyph-name="lightuprightbxd" unicode="&#x2514;" 
d="M300 1050h100v-700h320v-100h-420v800z" />
    <glyph glyph-name="uplightrightheavybxd" unicode="&#x2515;" 
d="M300 1050h100v-650h320v-200h-420v850z" />
    <glyph glyph-name="upheavyrightlightbxd" unicode="&#x2516;" 
d="M250 1050h200v-700h270v-100h-470v800z" />
    <glyph glyph-name="heavyuprightbxd" unicode="&#x2517;" 
d="M250 1050h200v-650h270v-200h-470v850z" />
    <glyph glyph-name="lightupleftbxd" unicode="&#x2518;" 
d="M-20 350h320v700h100v-800h-420v100z" />
    <glyph glyph-name="uplightleftheavybxd" unicode="&#x2519;" 
d="M-20 400h320v650h100v-850h-420v200z" />
    <glyph glyph-name="upheavyleftlightbxd" unicode="&#x251a;" 
d="M-20 350h270v700h200v-800h-470v100z" />
    <glyph glyph-name="heavyupleftbxd" unicode="&#x251b;" 
d="M-20 400h270v650h200v-850h-470v200z" />
    <glyph glyph-name="lightvertrightbxd" unicode="&#x251c;" 
d="M300 1050h100v-700h320v-100h-320v-700h-100v1500z" />
    <glyph glyph-name="vertlightrightheavybxd" unicode="&#x251d;" 
d="M300 1050h100v-650h320v-200h-320v-650h-100v1500z" />
    <glyph glyph-name="upheavyrightdnlightbxd" unicode="&#x251e;" 
d="M250 1050h200v-700h270v-100h-320v-700h-100v700h-50v800z" />
    <glyph glyph-name="dnheavyrightuplightbxd" unicode="&#x251f;" 
d="M250 350h50v700h100v-700h320v-100h-270v-700h-200v800z" />
    <glyph glyph-name="vertheavyrightlightbxd" unicode="&#x2520;" 
d="M250 1050h200v-700h270v-100h-270v-700h-200v1500z" />
    <glyph glyph-name="dnlightrightupheavybxd" unicode="&#x2521;" 
d="M250 1050h200v-650h270v-200h-320v-650h-100v650h-50v850z" />
    <glyph glyph-name="uplightrightdnheavybxd" unicode="&#x2522;" 
d="M250 400h50v650h100v-650h320v-200h-270v-650h-200v850z" />
    <glyph glyph-name="heavyvertrightbxd" unicode="&#x2523;" 
d="M250 1050h200v-650h270v-200h-270v-650h-200v1500z" />
    <glyph glyph-name="lightvertleftbxd" unicode="&#x2524;" 
d="M-20 350h320v700h100v-1500h-100v700h-320v100z" />
    <glyph glyph-name="vertlightleftheavybxd" unicode="&#x2525;" 
d="M-20 400h320v650h100v-1500h-100v650h-320v200z" />
    <glyph glyph-name="upheavyleftdnlightbxd" unicode="&#x2526;" 
d="M-20 350h270v700h200v-800h-50v-700h-100v700h-320v100z" />
    <glyph glyph-name="dnheavyleftuplightbxd" unicode="&#x2527;" 
d="M-20 350h320v700h100v-700h50v-800h-200v700h-270v100z" />
    <glyph glyph-name="vertheavyleftlightbxd" unicode="&#x2528;" 
d="M-20 350h270v700h200v-1500h-200v700h-270v100z" />
    <glyph glyph-name="dnlightleftupheavybxd" unicode="&#x2529;" 
d="M-20 400h270v650h200v-850h-50v-650h-100v650h-320v200z" />
    <glyph glyph-name="uplightleftdnheavybxd" unicode="&#x252a;" 
d="M-20 400h320v650h100v-650h50v-850h-200v650h-270v200z" />
    <glyph glyph-name="heavyvertleftbxd" unicode="&#x252b;" 
d="M-20 400h270v650h200v-1500h-200v650h-270v200z" />
    <glyph glyph-name="lightdnhorzbxd" unicode="&#x252c;" 
d="M-20 350h740v-100h-320v-700h-100v700h-320v100z" />
    <glyph glyph-name="leftheavyrightdnlightbxd" unicode="&#x252d;" 
d="M-20 400h420v-50h320v-100h-320v-700h-100v650h-320v200z" />
    <glyph glyph-name="rightheavyleftdnlightbxd" unicode="&#x252e;" 
d="M-20 350h320v50h420v-200h-320v-650h-100v700h-320v100z" />
    <glyph glyph-name="dnlighthorzheavybxd" unicode="&#x252f;" 
d="M-20 400h740v-200h-320v-650h-100v650h-320v200z" />
    <glyph glyph-name="dnheavyhorzlightbxd" unicode="&#x2530;" 
d="M-20 350h740v-100h-270v-700h-200v700h-270v100z" />
    <glyph glyph-name="rightlightleftdnheavybxd" unicode="&#x2531;" 
d="M-20 400h470v-50h270v-100h-270v-700h-200v650h-270v200z" />
    <glyph glyph-name="leftlightrightdnheavybxd" unicode="&#x2532;" 
d="M-20 350h270v50h470v-200h-270v-650h-200v700h-270v100z" />
    <glyph glyph-name="heavydnhorzbxd" unicode="&#x2533;" 
d="M-20 400h740v-200h-270v-650h-200v650h-270v200z" />
    <glyph glyph-name="lightuphorzbxd" unicode="&#x2534;" 
d="M-20 350h320v700h100v-700h320v-100h-740v100z" />
    <glyph glyph-name="leftheavyrightuplightbxd" unicode="&#x2535;" 
d="M-20 400h320v650h100v-700h320v-100h-320v-50h-420v200z" />
    <glyph glyph-name="rightheavyleftuplightbxd" unicode="&#x2536;" 
d="M-20 350h320v700h100v-650h320v-200h-420v50h-320v100z" />
    <glyph glyph-name="uplighthorzheavybxd" unicode="&#x2537;" 
d="M-20 400h320v650h100v-650h320v-200h-740v200z" />
    <glyph glyph-name="upheavyhorzlightbxd" unicode="&#x2538;" 
d="M-20 350h270v700h200v-700h270v-100h-740v100z" />
    <glyph glyph-name="rightlightleftupheavybxd" unicode="&#x2539;" 
d="M-20 400h270v650h200v-700h270v-100h-270v-50h-470v200z" />
    <glyph glyph-name="leftlightrightupheavybxd" unicode="&#x253a;" 
d="M-20 350h270v700h200v-650h270v-200h-470v50h-270v100z" />
    <glyph glyph-name="heavyuphorzbxd" unicode="&#x253b;" 
d="M-20 400h270v650h200v-650h270v-200h-740v200z" />
    <glyph glyph-name="lightverthorzbxd" unicode="&#x253c;" 
d="M-20 350h320v700h100v-700h320v-100h-320v-700h-100v700h-320v100z" />
    <glyph glyph-name="leftheavyrightvertlightbxd" unicode="&#x253d;" 
d="M-20 400h320v650h100v-700h320v-100h-320v-700h-100v650h-320v200z" />
    <glyph glyph-name="rightheavyleftvertlightbxd" unicode="&#x253e;" 
d="M-20 350h320v700h100v-650h320v-200h-320v-650h-100v700h-320v100z" />
    <glyph glyph-name="vertlighthorzheavybxd" unicode="&#x253f;" 
d="M-20 400h320v650h100v-650h320v-200h-320v-650h-100v650h-320v200z" />
    <glyph glyph-name="upheavydnhorzlightbxd" unicode="&#x2540;" 
d="M-20 350h270v700h200v-700h270v-100h-320v-700h-100v700h-320v100z" />
    <glyph glyph-name="dnheavyuphorzlightbxd" unicode="&#x2541;" 
d="M-20 350h320v700h100v-700h320v-100h-270v-700h-200v700h-270v100z" />
    <glyph glyph-name="vertheavyhorzlightbxd" unicode="&#x2542;" 
d="M-20 350h270v700h200v-700h270v-100h-270v-700h-200v700h-270v100z" />
    <glyph glyph-name="leftupheavyrightdnlightbxd" unicode="&#x2543;" 
d="M-20 400h270v650h200v-700h270v-100h-270v-50h-50v-650h-100v650h-320v200z" />
    <glyph glyph-name="rightupheavyleftdnlightbxd" unicode="&#x2544;" 
d="M-20 350h270v700h200v-650h270v-200h-320v-650h-100v650h-50v50h-270v100z" />
    <glyph glyph-name="leftdnheavyrightuplightbxd" unicode="&#x2545;" 
d="M-20 400h320v650h100v-650h50v-50h270v-100h-270v-700h-200v650h-270v200z" />
    <glyph glyph-name="rightdnheavyleftuplightbxd" unicode="&#x2546;" 
d="M-20 350h270v50h50v650h100v-650h320v-200h-270v-650h-200v700h-270v100z" />
    <glyph glyph-name="dnlightuphorzheavybxd" unicode="&#x2547;" 
d="M-20 400h270v650h200v-650h270v-200h-320v-650h-100v650h-320v200z" />
    <glyph glyph-name="uplightdnhorzheavybxd" unicode="&#x2548;" 
d="M-20 400h320v650h100v-650h320v-200h-270v-650h-200v650h-270v200z" />
    <glyph glyph-name="rightlightleftvertheavybxd" unicode="&#x2549;" 
d="M-20 400h270v650h200v-700h270v-100h-270v-700h-200v650h-270v200z" />
    <glyph glyph-name="leftlightrightvertheavybxd" unicode="&#x254a;" 
d="M-20 350h270v700h200v-650h270v-200h-270v-650h-200v700h-270v100z" />
    <glyph glyph-name="heavyverthorzbxd" unicode="&#x254b;" 
d="M-20 400h270v650h200v-650h270v-200h-270v-650h-200v650h-270v200z" />
    <glyph glyph-name="lightdbldashhorzbxd" unicode="&#x254c;" 
d="M87 350h175v-100h-175v100zM437 350h175v-100h-175v100z" />
    <glyph glyph-name="heavydbldashhorzbxd" unicode="&#x254d;" 
d="M87 400h175v-200h-175v200zM437 400h175v-200h-175v200z" />
    <glyph glyph-name="lightdbldashvertbxd" unicode="&#x254e;" 
d="M300 162h100v-275h-100v275zM300 712h100v-275h-100v275z" />
    <glyph glyph-name="heavydbldashvertbxd" unicode="&#x254f;" 
d="M250 162h200v-275h-200v275zM250 712h200v-275h-200v275z" />
    <glyph glyph-name="dblhorzbxd" unicode="&#x2550;" 
d="M-20 450h740v-100h-740v100zM-20 250h740v-100h-740v100z" />
    <glyph glyph-name="dblvertbxd" unicode="&#x2551;" 
d="M200 1050h100v-1500h-100v1500zM400 1050h100v-1500h-100v1500z" />
    <glyph glyph-name="dnsngrightdblbxd" unicode="&#x2552;" 
d="M300 450h420v-100h-320v-100h320v-100h-320v-600h-100v900z" />
    <glyph glyph-name="dndblrightsngbxd" unicode="&#x2553;" 
d="M200 350h520v-100h-220v-700h-100v700h-100v-700h-100v800z" />
    <glyph glyph-name="dbldnrightbxd" unicode="&#x2554;" 
d="M200 450h520v-100h-420v-800h-100v900zM400 250h320v-100h-220v-600h-100v700z" />
    <glyph glyph-name="dnsngleftdblbxd" unicode="&#x2555;" 
d="M-20 450h420v-900h-100v600h-320v100h320v100h-320v100z" />
    <glyph glyph-name="dndblleftsngbxd" unicode="&#x2556;" 
d="M-20 350h520v-800h-100v700h-100v-700h-100v700h-220v100z" />
    <glyph glyph-name="dbldnleftbxd" unicode="&#x2557;" 
d="M-20 450h520v-900h-100v800h-420v100zM-20 250h320v-700h-100v600h-220v100z" />
    <glyph glyph-name="upsngrightdblbxd" unicode="&#x2558;" 
d="M300 1050h100v-600h320v-100h-320v-100h320v-100h-420v900z" />
    <glyph glyph-name="updblrightsngbxd" unicode="&#x2559;" 
d="M200 1050h100v-700h100v700h100v-700h220v-100h-520v800z" />
    <glyph glyph-name="dbluprightbxd" unicode="&#x255a;" 
d="M200 1050h100v-800h420v-100h-520v900zM400 1050h100v-600h220v-100h-320v700z" />
    <glyph glyph-name="upsngleftdblbxd" unicode="&#x255b;" 
d="M-20 450h320v600h100v-900h-420v100h320v100h-320v100z" />
    <glyph glyph-name="updblleftsngbxd" unicode="&#x255c;" 
d="M-20 350h220v700h100v-700h100v700h100v-800h-520v100z" />
    <glyph glyph-name="dblupleftbxd" unicode="&#x255d;" 
d="M-20 250h420v800h100v-900h-520v100zM-20 450h220v600h100v-700h-320v100z" />
    <glyph glyph-name="vertsngrightdblbxd" unicode="&#x255e;" 
d="M300 1050h100v-600h320v-100h-320v-100h320v-100h-320v-600h-100v1500z" />
    <glyph glyph-name="vertdblrightsngbxd" unicode="&#x255f;" 
d="M400 1050h100v-700h220v-100h-220v-700h-100v1500zM200 1050h100v-1500h-100v1500z" />
    <glyph glyph-name="dblvertrightbxd" unicode="&#x2560;" 
d="M200 1050h100v-1500h-100v1500zM400 1050h100v-600h220v-100h-320v700zM400 250h320v-100h-220v-600h-100v700z" />
    <glyph glyph-name="vertsngleftdblbxd" unicode="&#x2561;" 
d="M-20 450h320v600h100v-1500h-100v600h-320v100h320v100h-320v100z" />
    <glyph glyph-name="vertdblleftsngbxd" unicode="&#x2562;" 
d="M-20 350h220v700h100v-1500h-100v700h-220v100zM400 1050h100v-1500h-100v1500z" />
    <glyph glyph-name="dblvertleftbxd" unicode="&#x2563;" 
d="M400 1050h100v-1500h-100v1500zM-20 250h320v-700h-100v600h-220v100zM-20 450h220v600h100v-700h-320v100z" />
    <glyph glyph-name="dnsnghorzdblbxd" unicode="&#x2564;" 
d="M-20 250h740v-100h-320v-600h-100v600h-320v100zM-20 450h740v-100h-740v100z" />
    <glyph glyph-name="dndblhorzsngbxd" unicode="&#x2565;" 
d="M-20 350h740v-100h-220v-700h-100v700h-100v-700h-100v700h-220v100z" />
    <glyph glyph-name="dbldnhorzbxd" unicode="&#x2566;" 
d="M-20 250h320v-700h-100v600h-220v100zM400 250h320v-100h-220v-600h-100v700zM-20 450h740v-100h-740v100z" />
    <glyph glyph-name="upsnghorzdblbxd" unicode="&#x2567;" 
d="M-20 450h320v600h100v-600h320v-100h-740v100zM-20 250h740v-100h-740v100z" />
    <glyph glyph-name="updblhorzsngbxd" unicode="&#x2568;" 
d="M-20 350h220v700h100v-700h100v700h100v-700h220v-100h-740v100z" />
    <glyph glyph-name="dbluphorzbxd" unicode="&#x2569;" 
d="M-20 450h220v600h100v-700h-320v100zM400 1050h100v-600h220v-100h-320v700zM-20 250h740v-100h-740v100z" />
    <glyph glyph-name="vertsnghorzdblbxd" unicode="&#x256a;" 
d="M-20 450h320v600h100v-600h320v-100h-320v-100h320v-100h-320v-600h-100v600h-320v100h320v100h-320v100z" />
    <glyph glyph-name="vertdblhorzsngbxd" unicode="&#x256b;" 
d="M-20 350h220v700h100v-700h100v700h100v-700h220v-100h-220v-700h-100v700h-100v-700h-100v700h-220v100z" />
    <glyph glyph-name="dblverthorzbxd" unicode="&#x256c;" 
d="M-20 450h220v600h100v-700h-320v100zM-20 250h320v-700h-100v600h-220v100zM400 1050h100v-600h220v-100h-320v700zM400 250h320v-100h-220v-600h-100v700z" />
    <glyph glyph-name="lightarcdnrightbxd" unicode="&#x256d;" 
d="M300 -50q0 83 31.5 156t85.5 127t127 85.5t156 31.5h20v-100h-20q-62 0 -117 -23.5t-95.5 -64t-64 -95.5t-23.5 -117v-400h-100v400z" />
    <glyph glyph-name="lightarcdnleftbxd" unicode="&#x256e;" 
d="M400 -450h-100v400q0 62 -23.5 117t-64 95.5t-95.5 64t-117 23.5h-20v100h20q83 0 156 -31.5t127 -85.5t85.5 -127t31.5 -156v-400z" />
    <glyph glyph-name="lightarcupleftbxd" unicode="&#x256f;" 
d="M400 650q0 -83 -31.5 -156t-85.5 -127t-127 -85.5t-156 -31.5h-20v100h20q62 0 117 23.5t95.5 64t64 95.5t23.5 117v400h100v-400z" />
    <glyph glyph-name="lightarcuprightbxd" unicode="&#x2570;" 
d="M300 1050h100v-400q0 -62 23.5 -117t64 -95.5t95.5 -64t117 -23.5h20v-100h-20q-83 0 -156 31.5t-127 85.5t-85.5 127t-31.5 156v400z" />
    <glyph glyph-name="lightdiaguprightdnleftbxd" unicode="&#x2571;" 
d="M641 850h59v-93l-641 -1007h-59v93z" />
    <glyph glyph-name="lightdiagupleftdnrightbxd" unicode="&#x2572;" 
d="M700 -157v-93h-59l-641 1007v93h59z" />
    <glyph glyph-name="lightdiagcrossbxd" unicode="&#x2573;" 
d="M291 300l-291 457v93h59l291 -458l291 458h59v-93l-291 -457l291 -457v-93h-59l-291 457l-291 -457h-59v93z" />
    <glyph glyph-name="lightleftbxd" unicode="&#x2574;" 
d="M-20 350h420v-100h-420v100z" />
    <glyph glyph-name="lightupbxd" unicode="&#x2575;" 
d="M300 1050h100v-800h-100v800z" />
    <glyph glyph-name="lightrightbxd" unicode="&#x2576;" 
d="M300 350h420v-100h-420v100z" />
    <glyph glyph-name="lightdnbxd" unicode="&#x2577;" 
d="M300 350h100v-800h-100v800z" />
    <glyph glyph-name="heavyleftbxd" unicode="&#x2578;" 
d="M-20 400h420v-200h-420v200z" />
    <glyph glyph-name="heavyupbxd" unicode="&#x2579;" 
d="M250 1050h200v-800h-200v800z" />
    <glyph glyph-name="heavyrightbxd" unicode="&#x257a;" 
d="M300 400h420v-200h-420v200z" />
    <glyph glyph-name="heavydnbxd" unicode="&#x257b;" 
d="M250 350h200v-800h-200v800z" />
    <glyph glyph-name="lightleftheavyrightbxd" unicode="&#x257c;" 
d="M-20 350h320v50h420v-200h-420v50h-320v100z" />
    <glyph glyph-name="lightupheavydnbxd" unicode="&#x257d;" 
d="M250 350h50v700h100v-700h50v-800h-200v800z" />
    <glyph glyph-name="heavyleftlightrightbxd" unicode="&#x257e;" 
d="M-20 400h420v-50h320v-100h-320v-50h-420v200z" />
    <glyph glyph-name="heavyuplightdnbxd" unicode="&#x257f;" 
d="M250 1050h200v-800h-50v-700h-100v700h-50v800z" />
    <glyph glyph-name="uphalfblock" unicode="&#x2580;" 
d="M0 850h700v-550h-700v550z" />
    <glyph glyph-name="dneighthblock" unicode="&#x2581;" 
d="M0 -113h700v-137h-700v137z" />
    <glyph glyph-name="dnquarterblock" unicode="&#x2582;" 
d="M0 25h700v-275h-700v275z" />
    <glyph glyph-name="dnthreeeighthsblock" unicode="&#x2583;" 
d="M0 162h700v-412h-700v412z" />
    <glyph glyph-name="dnhalfblock" unicode="&#x2584;" 
d="M0 300h700v-550h-700v550z" />
    <glyph glyph-name="dnfiveeighthsblock" unicode="&#x2585;" 
d="M0 437h700v-687h-700v687z" />
    <glyph glyph-name="dnthreequartersblock" unicode="&#x2586;" 
d="M0 575h700v-825h-700v825z" />
    <glyph glyph-name="dnseveneighthsblock" unicode="&#x2587;" 
d="M0 712h700v-962h-700v962z" />
    <glyph glyph-name="fullblock" unicode="&#x2588;" 
d="M0 850h700v-1100h-700v1100z" />
    <glyph glyph-name="leftseveneighthsblock" unicode="&#x2589;" 
d="M0 850h612v-1100h-612v1100z" />
    <glyph glyph-name="leftthreequartersblock" unicode="&#x258a;" 
d="M0 850h525v-1100h-525v1100z" />
    <glyph glyph-name="leftfiveeighthsblock" unicode="&#x258b;" 
d="M0 850h437v-1100h-437v1100z" />
    <glyph glyph-name="lefthalfblock" unicode="&#x258c;" 
d="M0 850h350v-1100h-350v1100z" />
    <glyph glyph-name="leftthreeeighthsblock" unicode="&#x258d;" 
d="M0 850h262v-1100h-262v1100z" />
    <glyph glyph-name="leftquarterblock" unicode="&#x258e;" 
d="M0 850h175v-1100h-175v1100z" />
    <glyph glyph-name="lefteighthblock" unicode="&#x258f;" 
d="M0 850h87v-1100h-87v1100z" />
    <glyph glyph-name="righthalfblock" unicode="&#x2590;" 
d="M350 850h350v-1100h-350v1100z" />
    </font>
</defs>
</svg>
